<?xml version="1.0" encoding="UTF-8" ?>
<!DOCTYPE svg PUBLIC "-//W3C//DTD SVG 1.1//EN" "http://www.w3.org/Graphics/SVG/1.1/DTD/svg11.dtd">
<svg width="900pt" height="600pt" viewBox="0 0 900 600" version="1.1" xmlns="http://www.w3.org/2000/svg">
<g id="#b7f1f3ff">
<path fill="#b7f1f3" opacity="1.00" d=" M 393.20 148.20 C 420.26 119.92 462.27 106.75 500.56 115.43 C 529.65 121.31 556.97 137.20 575.18 160.82 C 592.45 183.54 601.17 211.78 602.28 240.12 C 617.18 219.16 646.03 212.49 670.03 218.98 C 688.17 223.82 704.41 235.52 715.00 250.99 C 725.33 264.52 727.50 282.99 723.14 299.16 C 746.26 293.99 770.51 287.18 794.23 292.77 C 809.78 296.42 821.87 310.28 823.77 326.09 C 822.60 347.42 812.30 369.38 792.82 379.77 C 805.72 379.84 819.46 380.51 830.94 387.04 C 839.24 391.98 844.56 402.95 840.20 412.18 C 837.05 421.35 828.36 426.46 819.77 429.62 C 838.30 430.81 856.89 434.68 874.00 442.01 C 883.97 446.30 895.24 455.31 892.68 467.60 C 890.44 479.35 877.43 483.56 866.86 483.88 C 586.17 484.28 305.42 483.68 24.76 484.18 C 13.67 482.19 8.58 469.96 8.01 459.82 C 6.05 439.63 20.54 421.58 37.56 412.56 C 61.04 398.95 88.63 397.35 114.97 394.83 C 113.20 377.66 116.23 358.63 129.16 346.15 C 144.10 331.23 167.11 328.56 187.15 330.80 C 188.46 293.00 202.04 253.60 231.96 228.96 C 250.65 214.49 274.01 204.77 297.97 205.96 C 320.28 207.20 340.27 221.43 351.82 240.12 C 355.10 206.20 367.85 171.84 393.20 148.20 M 412.97 147.97 C 377.84 170.71 360.41 214.33 363.72 255.24 C 364.13 263.23 365.02 271.19 365.85 279.15 C 357.68 263.56 349.81 247.39 337.30 234.70 C 324.21 220.88 305.10 211.02 285.66 213.60 C 255.90 216.59 230.30 237.43 215.89 262.89 C 201.91 288.02 194.59 318.18 201.37 346.64 C 206.90 362.18 212.56 379.41 226.74 389.26 C 257.57 411.06 301.62 414.45 333.93 393.94 C 350.46 384.58 364.76 366.57 361.52 346.56 C 359.14 326.79 344.44 310.38 326.89 302.11 C 309.38 294.26 288.90 296.00 271.12 302.12 C 257.58 307.06 244.10 315.40 237.78 328.83 C 232.95 343.35 250.58 356.40 263.94 352.02 C 276.96 349.37 286.91 339.89 297.08 332.05 C 295.48 355.31 267.12 363.50 247.87 359.17 C 228.99 353.63 227.71 326.37 238.82 312.81 C 266.02 281.46 319.13 280.49 349.80 307.20 C 369.67 324.44 377.53 356.93 362.62 379.62 C 349.75 393.93 332.49 403.83 314.66 410.66 C 285.49 421.69 251.09 417.58 225.76 399.23 C 207.91 385.57 195.66 365.72 188.45 344.63 C 187.04 341.93 186.85 337.03 183.00 336.89 C 171.49 335.25 159.36 335.16 148.36 339.34 C 136.94 345.42 127.26 355.23 122.04 367.12 C 117.76 376.71 120.72 388.63 128.73 395.28 C 137.07 403.53 149.20 404.66 160.19 406.40 C 145.81 410.67 130.56 409.20 115.93 407.07 C 98.98 404.50 81.21 405.60 65.27 412.26 C 50.42 418.77 35.22 425.89 24.19 438.17 C 16.03 445.44 12.94 458.71 18.72 468.30 C 23.84 473.05 31.46 472.94 37.98 473.02 C 281.65 472.77 525.33 473.14 769.02 472.99 C 800.93 474.55 832.89 474.06 864.82 473.83 C 872.47 473.01 881.80 473.43 886.94 466.58 C 886.92 459.24 878.11 455.64 873.31 451.70 C 847.36 438.16 817.33 436.93 788.72 435.60 C 801.94 430.23 816.00 426.27 827.63 417.64 C 831.77 414.14 836.54 409.91 836.84 404.11 C 835.99 398.85 831.81 394.87 827.02 392.98 C 809.85 384.81 790.18 387.39 771.83 386.85 C 788.30 375.39 806.30 362.49 812.43 342.39 C 816.45 325.36 803.80 308.28 787.86 303.14 C 766.26 295.64 742.79 300.64 721.37 306.27 C 716.34 311.28 712.56 317.71 705.92 320.92 C 684.66 332.60 659.56 339.11 635.37 334.71 C 615.01 330.58 599.13 309.59 603.60 288.71 C 607.38 274.97 623.32 270.55 635.51 267.47 C 648.04 265.88 663.86 266.73 671.86 278.15 C 676.97 286.53 680.63 300.77 671.60 307.66 C 660.85 311.78 648.92 306.16 639.96 300.02 C 648.85 301.96 657.60 305.11 666.89 304.10 C 668.99 301.51 671.77 298.67 669.08 295.01 C 666.97 282.44 652.54 275.04 640.68 277.59 C 630.61 278.66 620.80 283.44 614.28 291.26 C 609.48 297.21 609.80 306.36 615.12 311.94 C 625.19 323.67 641.81 328.00 656.77 326.88 C 674.41 325.81 692.81 320.29 705.66 307.66 C 718.36 287.97 713.73 259.27 695.66 244.34 C 680.77 232.25 661.00 225.27 641.76 227.72 C 628.29 229.39 616.22 236.44 605.80 244.76 C 602.33 247.10 601.67 251.60 601.40 255.41 C 596.85 288.94 574.01 319.91 542.15 332.16 C 490.08 354.29 424.24 322.11 407.14 268.88 C 397.40 242.10 410.64 209.75 435.94 196.94 C 447.99 190.87 461.56 188.25 475.01 188.90 C 495.98 188.33 519.22 194.14 533.04 210.97 C 544.94 225.34 538.44 247.98 524.03 258.04 C 506.01 271.14 482.42 272.97 460.99 270.00 C 452.33 268.49 441.91 265.45 438.09 256.60 C 436.54 243.60 444.22 229.05 457.24 225.23 C 467.20 221.56 477.93 223.96 487.96 226.04 C 493.87 227.11 502.11 230.72 500.88 238.12 C 489.45 229.28 472.55 224.52 459.89 233.95 C 452.49 238.30 442.37 247.96 449.37 256.64 C 461.08 266.13 477.84 264.79 491.85 262.84 C 508.39 261.16 521.88 248.09 526.61 232.55 C 530.34 221.77 523.81 209.83 513.94 205.05 C 502.68 199.07 489.93 195.05 477.05 195.93 C 445.89 195.17 415.45 219.83 412.25 251.29 C 411.52 264.90 416.54 278.32 425.40 288.60 C 453.29 319.91 501.28 332.90 540.43 316.44 C 573.58 302.50 596.24 265.67 591.37 229.66 C 586.92 181.15 549.12 136.52 500.79 127.23 C 470.12 121.65 438.55 131.01 412.97 147.97 Z" />
<path fill="#b7f1f3" opacity="1.00" d=" M 698.17 412.17 C 702.79 411.15 697.15 416.80 698.17 412.17 Z" />
</g>
<g id="#ddffffff">
<path fill="#ddffff" opacity="1.00" d=" M 412.97 147.97 C 438.55 131.01 470.12 121.65 500.79 127.23 C 549.12 136.52 586.92 181.15 591.37 229.66 C 596.24 265.67 573.58 302.50 540.43 316.44 C 501.28 332.90 453.29 319.91 425.40 288.60 C 416.54 278.32 411.52 264.90 412.25 251.29 C 415.45 219.83 445.89 195.17 477.05 195.93 C 489.93 195.05 502.68 199.07 513.94 205.05 C 523.81 209.83 530.34 221.77 526.61 232.55 C 521.88 248.09 508.39 261.16 491.85 262.84 C 477.84 264.79 461.08 266.13 449.37 256.64 C 442.37 247.96 452.49 238.30 459.89 233.95 C 472.55 224.52 489.45 229.28 500.88 238.12 C 502.11 230.72 493.87 227.11 487.96 226.04 C 477.93 223.96 467.20 221.56 457.24 225.23 C 444.22 229.05 436.54 243.60 438.09 256.60 C 441.91 265.45 452.33 268.49 460.99 270.00 C 482.42 272.97 506.01 271.14 524.03 258.04 C 538.44 247.98 544.94 225.34 533.04 210.97 C 519.22 194.14 495.98 188.33 475.01 188.90 C 461.56 188.25 447.99 190.87 435.94 196.94 C 410.64 209.75 397.40 242.10 407.14 268.88 C 424.24 322.11 490.08 354.29 542.15 332.16 C 574.01 319.91 596.85 288.94 601.40 255.41 C 601.67 251.60 602.33 247.10 605.80 244.76 C 616.22 236.44 628.29 229.39 641.76 227.72 C 661.00 225.27 680.77 232.25 695.66 244.34 C 713.73 259.27 718.36 287.97 705.66 307.66 C 692.81 320.29 674.41 325.81 656.77 326.88 C 641.81 328.00 625.19 323.67 615.12 311.94 C 609.80 306.36 609.48 297.21 614.28 291.26 C 620.80 283.44 630.61 278.66 640.68 277.59 C 652.54 275.04 666.97 282.44 669.08 295.01 C 671.77 298.67 668.99 301.51 666.89 304.10 C 657.60 305.11 648.85 301.96 639.96 300.02 C 648.92 306.16 660.85 311.78 671.60 307.66 C 680.63 300.77 676.97 286.53 671.86 278.15 C 663.86 266.73 648.04 265.88 635.51 267.47 C 623.32 270.55 607.38 274.97 603.60 288.71 C 599.13 309.59 615.01 330.58 635.37 334.71 C 659.56 339.11 684.66 332.60 705.92 320.92 C 712.56 317.71 716.34 311.28 721.37 306.27 C 742.79 300.64 766.26 295.64 787.86 303.14 C 803.80 308.28 816.45 325.36 812.43 342.39 C 806.30 362.49 788.30 375.39 771.83 386.85 C 790.18 387.39 809.85 384.81 827.02 392.98 C 831.81 394.87 835.99 398.85 836.84 404.11 C 836.54 409.91 831.77 414.14 827.63 417.64 C 816.00 426.27 801.94 430.23 788.72 435.60 C 817.33 436.93 847.36 438.16 873.31 451.70 C 878.11 455.64 886.92 459.24 886.94 466.58 C 881.80 473.43 872.47 473.01 864.82 473.83 C 832.89 474.06 800.93 474.55 769.02 472.99 C 525.33 473.14 281.65 472.77 37.98 473.02 C 31.46 472.94 23.84 473.05 18.72 468.30 C 12.94 458.71 16.03 445.44 24.19 438.17 C 35.22 425.89 50.42 418.77 65.27 412.26 C 81.21 405.60 98.98 404.50 115.93 407.07 C 130.56 409.20 145.81 410.67 160.19 406.40 C 149.20 404.66 137.07 403.53 128.73 395.28 C 120.72 388.63 117.76 376.71 122.04 367.12 C 127.26 355.23 136.94 345.42 148.36 339.34 C 159.36 335.16 171.49 335.25 183.00 336.89 C 186.85 337.03 187.04 341.93 188.45 344.63 C 195.66 365.72 207.91 385.57 225.76 399.23 C 251.09 417.58 285.49 421.69 314.66 410.66 C 332.49 403.83 349.75 393.93 362.62 379.62 C 377.53 356.93 369.67 324.44 349.80 307.20 C 319.13 280.49 266.02 281.46 238.82 312.81 C 227.71 326.37 228.99 353.63 247.87 359.17 C 267.12 363.50 295.48 355.31 297.08 332.05 C 286.91 339.89 276.96 349.37 263.94 352.02 C 250.58 356.40 232.95 343.35 237.78 328.83 C 244.10 315.40 257.58 307.06 271.12 302.12 C 288.90 296.00 309.38 294.26 326.89 302.11 C 344.44 310.38 359.14 326.79 361.52 346.56 C 364.76 366.57 350.46 384.58 333.93 393.94 C 301.62 414.45 257.57 411.06 226.74 389.26 C 212.56 379.41 206.90 362.18 201.37 346.64 C 194.59 318.18 201.91 288.02 215.89 262.89 C 230.30 237.43 255.90 216.59 285.66 213.60 C 305.10 211.02 324.21 220.88 337.30 234.70 C 349.81 247.39 357.68 263.56 365.85 279.15 C 365.02 271.19 364.13 263.23 363.72 255.24 C 360.41 214.33 377.84 170.71 412.97 147.97 M 698.17 412.17 C 697.15 416.80 702.79 411.15 698.17 412.17 Z" />
</g>
</svg>
