<?xml version="1.0" encoding="UTF-8" ?>
<!DOCTYPE svg PUBLIC "-//W3C//DTD SVG 1.1//EN" "http://www.w3.org/Graphics/SVG/1.1/DTD/svg11.dtd">
<svg width="1024pt" height="1024pt" viewBox="0 0 1024 1024" preserveAspectRatio="none" version="1.1" xmlns="http://www.w3.org/2000/svg">
<g id="#000000ff">
</g>
<g id="#ffffffff">
<path fill="#ffffff" opacity="1.00" d=" M 338.24 3.24 L 338.76 3.24 L 338.76 3.76 L 338.24 3.76 L 338.24 3.24 Z" />
<path fill="#ffffff" opacity="1.00" d=" M 762.16 3.16 L 763.00 2.83 L 763.84 3.16 L 764.17 4.00 L 763.84 4.84 L 763.00 5.17 L 762.16 4.84 L 761.83 4.00 L 762.16 3.16 Z" />
<path fill="#ffffff" opacity="1.00" d=" M 760.24 4.24 L 760.76 4.24 L 760.76 4.76 L 760.24 4.76 L 760.24 4.24 Z" />
<path fill="#ffffff" opacity="1.00" d=" M 338.24 7.24 L 338.76 7.24 L 338.76 7.76 L 338.24 7.76 L 338.24 7.24 Z" />
<path fill="#ffffff" opacity="1.00" d=" M 376.24 7.24 L 376.76 7.24 L 376.76 7.76 L 376.24 7.76 L 376.24 7.24 Z" />
<path fill="#ffffff" opacity="1.00" d=" M 643.24 47.24 L 643.76 47.24 L 643.76 47.76 L 643.24 47.76 L 643.24 47.24 Z" />
<path fill="#ffffff" opacity="1.00" d=" M 987.24 54.24 L 987.76 54.24 L 987.76 54.76 L 987.24 54.76 L 987.24 54.24 Z" />
<path fill="#ffffff" opacity="1.00" d=" M 716.24 63.24 L 716.76 63.24 L 716.76 63.76 L 716.24 63.76 L 716.24 63.24 Z" />
<path fill="#ffffff" opacity="1.00" d=" M 202.24 75.24 L 202.76 75.24 L 202.76 75.76 L 202.24 75.76 L 202.24 75.24 Z" />
<path fill="#ffffff" opacity="1.00" d=" M 606.24 81.24 L 606.76 81.24 L 606.76 81.76 L 606.24 81.76 L 606.24 81.24 Z" />
<path fill="#ffffff" opacity="1.00" d=" M 182.24 83.24 L 182.76 83.24 L 182.76 83.76 L 182.24 83.76 L 182.24 83.24 Z" />
<path fill="#ffffff" opacity="1.00" d=" M 598.24 85.24 L 598.76 85.24 L 598.76 85.76 L 598.24 85.76 L 598.24 85.24 Z" />
<path fill="#ffffff" opacity="1.00" d=" M 185.24 89.24 L 185.76 89.24 L 185.76 89.76 L 185.24 89.76 L 185.24 89.24 Z" />
<path fill="#ffffff" opacity="1.00" d=" M 187.24 89.24 L 187.76 89.24 L 187.76 89.76 L 187.24 89.76 L 187.24 89.24 Z" />
<path fill="#ffffff" opacity="1.00" d=" M 176.24 90.24 L 176.76 90.24 L 176.76 90.76 L 176.24 90.76 L 176.24 90.24 Z" />
<path fill="#ffffff" opacity="1.00" d=" M 744.34 92.87 C 744.00 91.52 744.52 91.01 745.87 91.34 C 746.28 92.77 745.76 93.28 744.34 92.87 Z" />
<path fill="#ffffff" opacity="1.00" d=" M 243.25 95.10 L 244.00 94.72 L 244.75 95.10 L 244.75 95.90 L 244.00 96.28 L 243.25 95.90 L 243.25 95.10 Z" />
<path fill="#ffffff" opacity="1.00" d=" M 519.24 96.24 L 519.76 96.24 L 519.76 96.76 L 519.24 96.76 L 519.24 96.24 Z" />
<path fill="#ffffff" opacity="1.00" d=" M 194.24 97.24 L 194.76 97.24 L 194.76 97.76 L 194.24 97.76 L 194.24 97.24 Z" />
<path fill="#ffffff" opacity="1.00" d=" M 178.24 102.24 L 178.76 102.24 L 178.76 102.76 L 178.24 102.76 L 178.24 102.24 Z" />
<path fill="#ffffff" opacity="1.00" d=" M 249.24 103.24 L 249.76 103.24 L 249.76 103.76 L 249.24 103.76 L 249.24 103.24 Z" />
<path fill="#ffffff" opacity="1.00" d=" M 505.24 103.24 L 505.76 103.24 L 505.76 103.76 L 505.24 103.76 L 505.24 103.24 Z" />
<path fill="#ffffff" opacity="1.00" d=" M 17.24 104.24 L 17.76 104.24 L 17.76 104.76 L 17.24 104.76 L 17.24 104.24 Z" />
<path fill="#ffffff" opacity="1.00" d=" M 564.24 104.24 L 564.76 104.24 L 564.76 104.76 L 564.24 104.76 L 564.24 104.24 Z" />
<path fill="#ffffff" opacity="1.00" d=" M 559.24 108.24 L 559.76 108.24 L 559.76 108.76 L 559.24 108.76 L 559.24 108.24 Z" />
<path fill="#ffffff" opacity="1.00" d=" M 569.24 108.24 L 569.76 108.24 L 569.76 108.76 L 569.24 108.76 L 569.24 108.24 Z" />
<path fill="#ffffff" opacity="1.00" d=" M 825.24 108.24 L 825.76 108.24 L 825.76 108.76 L 825.24 108.76 L 825.24 108.24 Z" />
<path fill="#ffffff" opacity="1.00" d=" M 182.24 110.24 L 182.76 110.24 L 182.76 110.76 L 182.24 110.76 L 182.24 110.24 Z" />
<path fill="#ffffff" opacity="1.00" d=" M 548.10 110.25 L 548.90 110.25 L 549.28 111.00 L 548.90 111.75 L 548.10 111.75 L 547.72 111.00 L 548.10 110.25 Z" />
<path fill="#ffffff" opacity="1.00" d=" M 508.24 113.24 L 508.76 113.24 L 508.76 113.76 L 508.24 113.76 L 508.24 113.24 Z" />
<path fill="#ffffff" opacity="1.00" d=" M 575.24 113.24 L 575.76 113.24 L 575.76 113.76 L 575.24 113.76 L 575.24 113.24 Z" />
<path fill="#ffffff" opacity="1.00" d=" M 550.24 118.24 L 550.76 118.24 L 550.76 118.76 L 550.24 118.76 L 550.24 118.24 Z" />
<path fill="#ffffff" opacity="1.00" d=" M 806.24 118.24 L 806.76 118.24 L 806.76 118.76 L 806.24 118.76 L 806.24 118.24 Z" />
<path fill="#ffffff" opacity="1.00" d=" M 560.24 119.24 L 560.76 119.24 L 560.76 119.76 L 560.24 119.76 L 560.24 119.24 Z" />
<path fill="#ffffff" opacity="1.00" d=" M 541.24 122.24 L 541.76 122.24 L 541.76 122.76 L 541.24 122.76 L 541.24 122.24 Z" />
<path fill="#ffffff" opacity="1.00" d=" M 943.24 125.24 L 943.76 125.24 L 943.76 125.76 L 943.24 125.76 L 943.24 125.24 Z" />
<path fill="#ffffff" opacity="1.00" d=" M 532.24 126.24 L 532.76 126.24 L 532.76 126.76 L 532.24 126.76 L 532.24 126.24 Z" />
<path fill="#ffffff" opacity="1.00" d=" M 545.24 126.24 L 545.76 126.24 L 545.76 126.76 L 545.24 126.76 L 545.24 126.24 Z" />
<path fill="#ffffff" opacity="1.00" d=" M 923.24 126.24 L 923.76 126.24 L 923.76 126.76 L 923.24 126.76 L 923.24 126.24 Z" />
<path fill="#ffffff" opacity="1.00" d=" M 528.24 130.24 L 528.76 130.24 L 528.76 130.76 L 528.24 130.76 L 528.24 130.24 Z" />
<path fill="#ffffff" opacity="1.00" d=" M 288.24 154.24 L 288.76 154.24 L 288.76 154.76 L 288.24 154.76 L 288.24 154.24 Z" />
<path fill="#ffffff" opacity="1.00" d=" M 435.24 166.24 L 435.76 166.24 L 435.76 166.76 L 435.24 166.76 L 435.24 166.24 Z" />
<path fill="#ffffff" opacity="1.00" d=" M 425.24 168.24 L 425.76 168.24 L 425.76 168.76 L 425.24 168.76 L 425.24 168.24 Z" />
<path fill="#ffffff" opacity="1.00" d=" M 428.24 169.24 L 428.76 169.24 L 428.76 169.76 L 428.24 169.76 L 428.24 169.24 Z" />
<path fill="#ffffff" opacity="1.00" d=" M 424.24 170.24 L 424.76 170.24 L 424.76 170.76 L 424.24 170.76 L 424.24 170.24 Z" />
<path fill="#ffffff" opacity="1.00" d=" M 531.24 170.24 L 531.76 170.24 L 531.76 170.76 L 531.24 170.76 L 531.24 170.24 Z" />
<path fill="#ffffff" opacity="1.00" d=" M 524.24 194.24 L 524.76 194.24 L 524.76 194.76 L 524.24 194.76 L 524.24 194.24 Z" />
<path fill="#ffffff" opacity="1.00" d=" M 529.24 194.24 L 529.76 194.24 L 529.76 194.76 L 529.24 194.76 L 529.24 194.24 Z" />
<path fill="#ffffff" opacity="1.00" d=" M 522.24 195.24 L 522.76 195.24 L 522.76 195.76 L 522.24 195.76 L 522.24 195.24 Z" />
<path fill="#ffffff" opacity="1.00" d=" M 523.24 197.24 L 523.76 197.24 L 523.76 197.76 L 523.24 197.76 L 523.24 197.24 Z" />
<path fill="#ffffff" opacity="1.00" d=" M 519.24 198.24 L 519.76 198.24 L 519.76 198.76 L 519.24 198.76 L 519.24 198.24 Z" />
<path fill="#ffffff" opacity="1.00" d=" M 940.24 233.24 L 940.76 233.24 L 940.76 233.76 L 940.24 233.76 L 940.24 233.24 Z" />
<path fill="#ffffff" opacity="1.00" d=" M 938.38 238.27 C 939.39 237.57 941.73 238.50 941.54 239.81 C 940.47 240.72 937.90 239.82 938.38 238.27 Z" />
<path fill="#ffffff" opacity="1.00" d=" M 934.24 241.24 L 934.76 241.24 L 934.76 241.76 L 934.24 241.76 L 934.24 241.24 Z" />
<path fill="#ffffff" opacity="1.00" d=" M 925.24 242.24 L 925.76 242.24 L 925.76 242.76 L 925.24 242.76 L 925.24 242.24 Z" />
<path fill="#ffffff" opacity="1.00" d=" M 933.24 243.24 L 933.76 243.24 L 933.76 243.76 L 933.24 243.76 L 933.24 243.24 Z" />
<path fill="#ffffff" opacity="1.00" d=" M 552.24 253.24 L 552.76 253.24 L 552.76 253.76 L 552.24 253.76 L 552.24 253.24 Z" />
<path fill="#ffffff" opacity="1.00" d=" M 545.24 255.24 L 545.76 255.24 L 545.76 255.76 L 545.24 255.76 L 545.24 255.24 Z" />
<path fill="#ffffff" opacity="1.00" d=" M 884.24 268.24 L 884.76 268.24 L 884.76 268.76 L 884.24 268.76 L 884.24 268.24 Z" />
<path fill="#ffffff" opacity="1.00" d=" M 874.24 272.24 L 874.76 272.24 L 874.76 272.76 L 874.24 272.76 L 874.24 272.24 Z" />
<path fill="#ffffff" opacity="1.00" d=" M 870.24 273.24 L 870.76 273.24 L 870.76 273.76 L 870.24 273.76 L 870.24 273.24 Z" />
<path fill="#ffffff" opacity="1.00" d=" M 892.39 279.16 L 893.04 278.71 C 893.44 278.83 894.22 279.05 894.61 279.16 L 894.61 279.84 L 893.96 280.29 C 893.56 280.17 892.78 279.95 892.39 279.84 L 892.39 279.16 Z" />
<path fill="#ffffff" opacity="1.00" d=" M 69.24 342.24 L 69.76 342.24 L 69.76 342.76 L 69.24 342.76 L 69.24 342.24 Z" />
<path fill="#ffffff" opacity="1.00" d=" M 61.24 344.24 L 61.76 344.24 L 61.76 344.76 L 61.24 344.76 L 61.24 344.24 Z" />
<path fill="#ffffff" opacity="1.00" d=" M 77.24 349.24 L 77.76 349.24 L 77.76 349.76 L 77.24 349.76 L 77.24 349.24 Z" />
<path fill="#ffffff" opacity="1.00" d=" M 269.24 352.24 L 269.76 352.24 L 269.76 352.76 L 269.24 352.76 L 269.24 352.24 Z" />
<path fill="#ffffff" opacity="1.00" d=" M 51.24 353.24 L 51.76 353.24 L 51.76 353.76 L 51.24 353.76 L 51.24 353.24 Z" />
<path fill="#ffffff" opacity="1.00" d=" M 705.24 355.24 L 705.76 355.24 L 705.76 355.76 L 705.24 355.76 L 705.24 355.24 Z" />
<path fill="#ffffff" opacity="1.00" d=" M 680.24 359.24 L 680.76 359.24 L 680.76 359.76 L 680.24 359.76 L 680.24 359.24 Z" />
<path fill="#ffffff" opacity="1.00" d=" M 52.24 360.24 L 52.76 360.24 L 52.76 360.76 L 52.24 360.76 L 52.24 360.24 Z" />
<path fill="#ffffff" opacity="1.00" d=" M 677.24 361.24 L 677.76 361.24 L 677.76 361.76 L 677.24 361.76 L 677.24 361.24 Z" />
<path fill="#ffffff" opacity="1.00" d=" M 47.24 364.24 L 47.76 364.24 L 47.76 364.76 L 47.24 364.76 L 47.24 364.24 Z" />
<path fill="#ffffff" opacity="1.00" d=" M 57.24 364.24 L 57.76 364.24 L 57.76 364.76 L 57.24 364.76 L 57.24 364.24 Z" />
<path fill="#ffffff" opacity="1.00" d=" M 680.24 366.24 L 680.76 366.24 L 680.76 366.76 L 680.24 366.76 L 680.24 366.24 Z" />
<path fill="#ffffff" opacity="1.00" d=" M 36.24 367.24 L 36.76 367.24 L 36.76 367.76 L 36.24 367.76 L 36.24 367.24 Z" />
<path fill="#ffffff" opacity="1.00" d=" M 681.24 368.24 L 681.76 368.24 L 681.76 368.76 L 681.24 368.76 L 681.24 368.24 Z" />
<path fill="#ffffff" opacity="1.00" d=" M 319.24 369.24 L 319.76 369.24 L 319.76 369.76 L 319.24 369.76 L 319.24 369.24 Z" />
<path fill="#ffffff" opacity="1.00" d=" M 38.24 374.24 L 38.76 374.24 L 38.76 374.76 L 38.24 374.76 L 38.24 374.24 Z" />
<path fill="#ffffff" opacity="1.00" d=" M 48.24 375.24 L 48.76 375.24 L 48.76 375.76 L 48.24 375.76 L 48.24 375.24 Z" />
<path fill="#ffffff" opacity="1.00" d=" M 47.24 414.24 L 47.76 414.24 L 47.76 414.76 L 47.24 414.76 L 47.24 414.24 Z" />
<path fill="#ffffff" opacity="1.00" d=" M 447.24 436.24 L 447.76 436.24 L 447.76 436.76 L 447.24 436.76 L 447.24 436.24 Z" />
<path fill="#ffffff" opacity="1.00" d=" M 445.24 437.24 L 445.76 437.24 L 445.76 437.76 L 445.24 437.76 L 445.24 437.24 Z" />
<path fill="#ffffff" opacity="1.00" d=" M 438.24 442.24 L 438.76 442.24 L 438.76 442.76 L 438.24 442.76 L 438.24 442.24 Z" />
<path fill="#ffffff" opacity="1.00" d=" M 745.24 449.24 L 745.76 449.24 L 745.76 449.76 L 745.24 449.76 L 745.24 449.24 Z" />
<path fill="#ffffff" opacity="1.00" d=" M 742.24 450.24 L 742.76 450.24 L 742.76 450.76 L 742.24 450.76 L 742.24 450.24 Z" />
<path fill="#ffffff" opacity="1.00" d=" M 744.24 451.24 L 744.76 451.24 L 744.76 451.76 L 744.24 451.76 L 744.24 451.24 Z" />
<path fill="#ffffff" opacity="1.00" d=" M 755.24 453.24 L 755.76 453.24 L 755.76 453.76 L 755.24 453.76 L 755.24 453.24 Z" />
<path fill="#ffffff" opacity="1.00" d=" M 405.24 457.24 L 405.76 457.24 L 405.76 457.76 L 405.24 457.76 L 405.24 457.24 Z" />
<path fill="#ffffff" opacity="1.00" d=" M 24.24 467.24 L 24.76 467.24 L 24.76 467.76 L 24.24 467.76 L 24.24 467.24 Z" />
<path fill="#ffffff" opacity="1.00" d=" M 513.24 472.24 L 513.76 472.24 L 513.76 472.76 L 513.24 472.76 L 513.24 472.24 Z" />
<path fill="#ffffff" opacity="1.00" d=" M 14.24 474.24 L 14.76 474.24 L 14.76 474.76 L 14.24 474.76 L 14.24 474.24 Z" />
<path fill="#ffffff" opacity="1.00" d=" M 620.24 489.24 L 620.76 489.24 L 620.76 489.76 L 620.24 489.76 L 620.24 489.24 Z" />
<path fill="#ffffff" opacity="1.00" d=" M 623.24 495.24 L 623.76 495.24 L 623.76 495.76 L 623.24 495.76 L 623.24 495.24 Z" />
<path fill="#ffffff" opacity="1.00" d=" M 567.24 508.24 L 567.76 508.24 L 567.76 508.76 L 567.24 508.76 L 567.24 508.24 Z" />
<path fill="#ffffff" opacity="1.00" d=" M 490.24 562.24 L 490.76 562.24 L 490.76 562.76 L 490.24 562.76 L 490.24 562.24 Z" />
<path fill="#ffffff" opacity="1.00" d=" M 497.24 564.24 L 497.76 564.24 L 497.76 564.76 L 497.24 564.76 L 497.24 564.24 Z" />
<path fill="#ffffff" opacity="1.00" d=" M 753.24 564.24 L 753.76 564.24 L 753.76 564.76 L 753.24 564.76 L 753.24 564.24 Z" />
<path fill="#ffffff" opacity="1.00" d=" M 830.24 671.24 L 830.76 671.24 L 830.76 671.76 L 830.24 671.76 L 830.24 671.24 Z" />
<path fill="#ffffff" opacity="1.00" d=" M 934.24 672.24 L 934.76 672.24 L 934.76 672.76 L 934.24 672.76 L 934.24 672.24 Z" />
<path fill="#ffffff" opacity="1.00" d=" M 933.25 675.10 L 934.00 674.72 L 934.75 675.10 L 934.75 675.90 L 934.00 676.28 L 933.25 675.90 L 933.25 675.10 Z" />
<path fill="#ffffff" opacity="1.00" d=" M 451.24 680.24 L 451.76 680.24 L 451.76 680.76 L 451.24 680.76 L 451.24 680.24 Z" />
<path fill="#ffffff" opacity="1.00" d=" M 997.24 681.24 L 997.76 681.24 L 997.76 681.76 L 997.24 681.76 L 997.24 681.24 Z" />
<path fill="#ffffff" opacity="1.00" d=" M 938.24 683.24 L 938.76 683.24 L 938.76 683.76 L 938.24 683.76 L 938.24 683.24 Z" />
<path fill="#ffffff" opacity="1.00" d=" M 1001.10 686.25 L 1001.90 686.25 L 1002.28 687.00 L 1001.90 687.75 L 1001.10 687.75 L 1000.72 687.00 L 1001.10 686.25 Z" />
<path fill="#ffffff" opacity="1.00" d=" M 1004.24 686.24 L 1004.76 686.24 L 1004.76 686.76 L 1004.24 686.76 L 1004.24 686.24 Z" />
<path fill="#ffffff" opacity="1.00" d=" M 688.24 690.24 L 688.76 690.24 L 688.76 690.76 L 688.24 690.76 L 688.24 690.24 Z" />
<path fill="#ffffff" opacity="1.00" d=" M 699.24 690.24 L 699.76 690.24 L 699.76 690.76 L 699.24 690.76 L 699.24 690.24 Z" />
<path fill="#ffffff" opacity="1.00" d=" M 693.24 692.24 L 693.76 692.24 L 693.76 692.76 L 693.24 692.76 L 693.24 692.24 Z" />
<path fill="#ffffff" opacity="1.00" d=" M 223.24 717.24 L 223.76 717.24 L 223.76 717.76 L 223.24 717.76 L 223.24 717.24 Z" />
<path fill="#ffffff" opacity="1.00" d=" M 381.24 721.24 L 381.76 721.24 L 381.76 721.76 L 381.24 721.76 L 381.24 721.24 Z" />
<path fill="#ffffff" opacity="1.00" d=" M 585.24 731.24 L 585.76 731.24 L 585.76 731.76 L 585.24 731.76 L 585.24 731.24 Z" />
<path fill="#ffffff" opacity="1.00" d=" M 590.24 734.24 L 590.76 734.24 L 590.76 734.76 L 590.24 734.76 L 590.24 734.24 Z" />
<path fill="#ffffff" opacity="1.00" d=" M 984.24 738.24 L 984.76 738.24 L 984.76 738.76 L 984.24 738.76 L 984.24 738.24 Z" />
<path fill="#ffffff" opacity="1.00" d=" M 980.24 740.24 L 980.76 740.24 L 980.76 740.76 L 980.24 740.76 L 980.24 740.24 Z" />
<path fill="#ffffff" opacity="1.00" d=" M 973.34 743.87 C 973.00 742.52 973.51 742.00 974.87 742.34 C 975.27 743.76 974.76 744.28 973.34 743.87 Z" />
<path fill="#ffffff" opacity="1.00" d=" M 580.24 760.24 L 580.76 760.24 L 580.76 760.76 L 580.24 760.76 L 580.24 760.24 Z" />
<path fill="#ffffff" opacity="1.00" d=" M 454.24 762.24 L 454.76 762.24 L 454.76 762.76 L 454.24 762.76 L 454.24 762.24 Z" />
<path fill="#ffffff" opacity="1.00" d=" M 472.24 768.24 L 472.76 768.24 L 472.76 768.76 L 472.24 768.76 L 472.24 768.24 Z" />
<path fill="#ffffff" opacity="1.00" d=" M 991.24 769.24 L 991.76 769.24 L 991.76 769.76 L 991.24 769.76 L 991.24 769.24 Z" />
<path fill="#ffffff" opacity="1.00" d=" M 468.24 771.24 L 468.76 771.24 L 468.76 771.76 L 468.24 771.76 L 468.24 771.24 Z" />
<path fill="#ffffff" opacity="1.00" d=" M 451.24 773.24 L 451.76 773.24 L 451.76 773.76 L 451.24 773.76 L 451.24 773.24 Z" />
<path fill="#ffffff" opacity="1.00" d=" M 453.24 776.24 L 453.76 776.24 L 453.76 776.76 L 453.24 776.76 L 453.24 776.24 Z" />
<path fill="#ffffff" opacity="1.00" d=" M 991.24 777.24 L 991.76 777.24 L 991.76 777.76 L 991.24 777.76 L 991.24 777.24 Z" />
<path fill="#ffffff" opacity="1.00" d=" M 450.24 778.24 L 450.76 778.24 L 450.76 778.76 L 450.24 778.76 L 450.24 778.24 Z" />
<path fill="#ffffff" opacity="1.00" d=" M 454.24 779.24 L 454.76 779.24 L 454.76 779.76 L 454.24 779.76 L 454.24 779.24 Z" />
<path fill="#ffffff" opacity="1.00" d=" M 445.24 781.24 L 445.76 781.24 L 445.76 781.76 L 445.24 781.76 L 445.24 781.24 Z" />
<path fill="#ffffff" opacity="1.00" d=" M 876.24 793.24 L 876.76 793.24 L 876.76 793.76 L 876.24 793.76 L 876.24 793.24 Z" />
<path fill="#ffffff" opacity="1.00" d=" M 913.24 803.24 L 913.76 803.24 L 913.76 803.76 L 913.24 803.76 L 913.24 803.24 Z" />
<path fill="#ffffff" opacity="1.00" d=" M 458.24 807.24 L 458.76 807.24 L 458.76 807.76 L 458.24 807.76 L 458.24 807.24 Z" />
<path fill="#ffffff" opacity="1.00" d=" M 880.24 808.24 L 880.76 808.24 L 880.76 808.76 L 880.24 808.76 L 880.24 808.24 Z" />
<path fill="#ffffff" opacity="1.00" d=" M 881.24 813.24 L 881.76 813.24 L 881.76 813.76 L 881.24 813.76 L 881.24 813.24 Z" />
<path fill="#ffffff" opacity="1.00" d=" M 847.24 814.24 L 847.76 814.24 L 847.76 814.76 L 847.24 814.76 L 847.24 814.24 Z" />
<path fill="#ffffff" opacity="1.00" d=" M 875.24 815.24 L 875.76 815.24 L 875.76 815.76 L 875.24 815.76 L 875.24 815.24 Z" />
<path fill="#ffffff" opacity="1.00" d=" M 766.24 819.24 L 766.76 819.24 L 766.76 819.76 L 766.24 819.76 L 766.24 819.24 Z" />
<path fill="#ffffff" opacity="1.00" d=" M 743.24 831.24 L 743.76 831.24 L 743.76 831.76 L 743.24 831.76 L 743.24 831.24 Z" />
<path fill="#ffffff" opacity="1.00" d=" M 742.24 842.24 L 742.76 842.24 L 742.76 842.76 L 742.24 842.76 L 742.24 842.24 Z" />
<path fill="#ffffff" opacity="1.00" d=" M 744.24 842.24 L 744.76 842.24 L 744.76 842.76 L 744.24 842.76 L 744.24 842.24 Z" />
<path fill="#ffffff" opacity="1.00" d=" M 746.24 843.24 L 746.76 843.24 L 746.76 843.76 L 746.24 843.76 L 746.24 843.24 Z" />
<path fill="#ffffff" opacity="1.00" d=" M 19.24 857.24 L 19.76 857.24 L 19.76 857.76 L 19.24 857.76 L 19.24 857.24 Z" />
<path fill="#ffffff" opacity="1.00" d=" M 17.24 859.24 L 17.76 859.24 L 17.76 859.76 L 17.24 859.76 L 17.24 859.24 Z" />
<path fill="#ffffff" opacity="1.00" d=" M 247.24 859.24 L 247.76 859.24 L 247.76 859.76 L 247.24 859.76 L 247.24 859.24 Z" />
<path fill="#ffffff" opacity="1.00" d=" M 596.24 878.24 L 596.76 878.24 L 596.76 878.76 L 596.24 878.76 L 596.24 878.24 Z" />
<path fill="#ffffff" opacity="1.00" d=" M 490.10 879.25 L 490.90 879.25 L 491.28 880.00 L 490.90 880.75 L 490.10 880.75 L 489.72 880.00 L 490.10 879.25 Z" />
<path fill="#ffffff" opacity="1.00" d=" M 826.24 879.24 L 826.76 879.24 L 826.76 879.76 L 826.24 879.76 L 826.24 879.24 Z" />
<path fill="#ffffff" opacity="1.00" d=" M 597.24 884.24 L 597.76 884.24 L 597.76 884.76 L 597.24 884.76 L 597.24 884.24 Z" />
<path fill="#ffffff" opacity="1.00" d=" M 635.24 892.24 L 635.76 892.24 L 635.76 892.76 L 635.24 892.76 L 635.24 892.24 Z" />
<path fill="#ffffff" opacity="1.00" d=" M 622.24 896.24 L 622.76 896.24 L 622.76 896.76 L 622.24 896.76 L 622.24 896.24 Z" />
<path fill="#ffffff" opacity="1.00" d=" M 626.24 896.24 L 626.76 896.24 L 626.76 896.76 L 626.24 896.76 L 626.24 896.24 Z" />
<path fill="#ffffff" opacity="1.00" d=" M 638.24 896.24 L 638.76 896.24 L 638.76 896.76 L 638.24 896.76 L 638.24 896.24 Z" />
<path fill="#ffffff" opacity="1.00" d=" M 509.24 897.24 L 509.76 897.24 L 509.76 897.76 L 509.24 897.76 L 509.24 897.24 Z" />
<path fill="#ffffff" opacity="1.00" d=" M 813.24 898.24 L 813.76 898.24 L 813.76 898.76 L 813.24 898.76 L 813.24 898.24 Z" />
<path fill="#ffffff" opacity="1.00" d=" M 932.24 898.24 L 932.76 898.24 L 932.76 898.76 L 932.24 898.76 L 932.24 898.24 Z" />
<path fill="#ffffff" opacity="1.00" d=" M 991.24 898.24 L 991.76 898.24 L 991.76 898.76 L 991.24 898.76 L 991.24 898.24 Z" />
<path fill="#ffffff" opacity="1.00" d=" M 823.24 902.24 L 823.76 902.24 L 823.76 902.76 L 823.24 902.76 L 823.24 902.24 Z" />
<path fill="#ffffff" opacity="1.00" d=" M 995.24 902.24 L 995.76 902.24 L 995.76 902.76 L 995.24 902.76 L 995.24 902.24 Z" />
<path fill="#ffffff" opacity="1.00" d=" M 926.24 904.24 L 926.76 904.24 L 926.76 904.76 L 926.24 904.76 L 926.24 904.24 Z" />
<path fill="#ffffff" opacity="1.00" d=" M 976.24 905.24 L 976.76 905.24 L 976.76 905.76 L 976.24 905.76 L 976.24 905.24 Z" />
<path fill="#ffffff" opacity="1.00" d=" M 986.24 906.24 L 986.76 906.24 L 986.76 906.76 L 986.24 906.76 L 986.24 906.24 Z" />
<path fill="#ffffff" opacity="1.00" d=" M 922.24 907.24 L 922.76 907.24 L 922.76 907.76 L 922.24 907.76 L 922.24 907.24 Z" />
<path fill="#ffffff" opacity="1.00" d=" M 914.24 908.24 L 914.76 908.24 L 914.76 908.76 L 914.24 908.76 L 914.24 908.24 Z" />
<path fill="#ffffff" opacity="1.00" d=" M 997.24 908.24 L 997.76 908.24 L 997.76 908.76 L 997.24 908.76 L 997.24 908.24 Z" />
<path fill="#ffffff" opacity="1.00" d=" M 705.24 911.24 L 705.76 911.24 L 705.76 911.76 L 705.24 911.76 L 705.24 911.24 Z" />
<path fill="#ffffff" opacity="1.00" d=" M 988.10 913.25 L 988.90 913.25 L 989.28 914.00 L 988.90 914.75 L 988.10 914.75 L 987.72 914.00 L 988.10 913.25 Z" />
<path fill="#ffffff" opacity="1.00" d=" M 998.24 915.24 L 998.76 915.24 L 998.76 915.76 L 998.24 915.76 L 998.24 915.24 Z" />
<path fill="#ffffff" opacity="1.00" d=" M 977.24 916.24 L 977.76 916.24 L 977.76 916.76 L 977.24 916.76 L 977.24 916.24 Z" />
<path fill="#ffffff" opacity="1.00" d=" M 805.25 918.10 L 806.00 917.72 L 806.75 918.10 L 806.75 918.90 L 806.00 919.28 L 805.25 918.90 L 805.25 918.10 Z" />
<path fill="#ffffff" opacity="1.00" d=" M 992.24 918.24 L 992.76 918.24 L 992.76 918.76 L 992.24 918.76 L 992.24 918.24 Z" />
<path fill="#ffffff" opacity="1.00" d=" M 638.10 920.25 L 638.90 920.25 L 639.28 921.00 L 638.90 921.75 L 638.10 921.75 L 637.72 921.00 L 638.10 920.25 Z" />
<path fill="#ffffff" opacity="1.00" d=" M 894.10 920.25 L 894.90 920.25 L 895.28 921.00 L 894.90 921.75 L 894.10 921.75 L 893.72 921.00 L 894.10 920.25 Z" />
<path fill="#ffffff" opacity="1.00" d=" M 972.24 920.24 L 972.76 920.24 L 972.76 920.76 L 972.24 920.76 L 972.24 920.24 Z" />
<path fill="#ffffff" opacity="1.00" d=" M 653.24 926.24 L 653.76 926.24 L 653.76 926.76 L 653.24 926.76 L 653.24 926.24 Z" />
<path fill="#ffffff" opacity="1.00" d=" M 901.24 951.24 L 901.76 951.24 L 901.76 951.76 L 901.24 951.76 L 901.24 951.24 Z" />
<path fill="#ffffff" opacity="1.00" d=" M 686.24 958.24 L 686.76 958.24 L 686.76 958.76 L 686.24 958.76 L 686.24 958.24 Z" />
<path fill="#ffffff" opacity="1.00" d=" M 834.24 959.24 L 834.76 959.24 L 834.76 959.76 L 834.24 959.76 L 834.24 959.24 Z" />
<path fill="#ffffff" opacity="1.00" d=" M 579.24 960.24 L 579.76 960.24 L 579.76 960.76 L 579.24 960.76 L 579.24 960.24 Z" />
<path fill="#ffffff" opacity="1.00" d=" M 1006.24 960.24 L 1006.76 960.24 L 1006.76 960.76 L 1006.24 960.76 L 1006.24 960.24 Z" />
<path fill="#ffffff" opacity="1.00" d=" M 1009.24 960.24 L 1009.76 960.24 L 1009.76 960.76 L 1009.24 960.76 L 1009.24 960.24 Z" />
<path fill="#ffffff" opacity="1.00" d=" M 594.24 969.24 L 594.76 969.24 L 594.76 969.76 L 594.24 969.76 L 594.24 969.24 Z" />
<path fill="#ffffff" opacity="1.00" d=" M 589.24 972.24 L 589.76 972.24 L 589.76 972.76 L 589.24 972.76 L 589.24 972.24 Z" />
<path fill="#ffffff" opacity="1.00" d=" M 921.24 975.24 L 921.76 975.24 L 921.76 975.76 L 921.24 975.76 L 921.24 975.24 Z" />
<path fill="#ffffff" opacity="1.00" d=" M 606.24 976.24 L 606.76 976.24 L 606.76 976.76 L 606.24 976.76 L 606.24 976.24 Z" />
<path fill="#ffffff" opacity="1.00" d=" M 420.24 978.24 L 420.76 978.24 L 420.76 978.76 L 420.24 978.76 L 420.24 978.24 Z" />
<path fill="#ffffff" opacity="1.00" d=" M 932.24 978.24 L 932.76 978.24 L 932.76 978.76 L 932.24 978.76 L 932.24 978.24 Z" />
<path fill="#ffffff" opacity="1.00" d=" M 39.24 981.24 L 39.76 981.24 L 39.76 981.76 L 39.24 981.76 L 39.24 981.24 Z" />
<path fill="#ffffff" opacity="1.00" d=" M 430.34 982.87 C 430.01 981.51 430.52 981.00 431.87 981.34 C 432.28 982.76 431.77 983.27 430.34 982.87 Z" />
<path fill="#ffffff" opacity="1.00" d=" M 443.24 981.24 L 443.76 981.24 L 443.76 981.76 L 443.24 981.76 L 443.24 981.24 Z" />
<path fill="#ffffff" opacity="1.00" d=" M 604.24 981.24 L 604.76 981.24 L 604.76 981.76 L 604.24 981.76 L 604.24 981.24 Z" />
<path fill="#ffffff" opacity="1.00" d=" M 238.24 982.24 L 238.76 982.24 L 238.76 982.76 L 238.24 982.76 L 238.24 982.24 Z" />
<path fill="#ffffff" opacity="1.00" d=" M 241.24 982.24 L 241.76 982.24 L 241.76 982.76 L 241.24 982.76 L 241.24 982.24 Z" />
<path fill="#ffffff" opacity="1.00" d=" M 618.25 985.10 L 619.00 984.72 L 619.75 985.10 L 619.75 985.90 L 619.00 986.28 L 618.25 985.90 L 618.25 985.10 Z" />
<path fill="#ffffff" opacity="1.00" d=" M 928.24 985.24 L 928.76 985.24 L 928.76 985.76 L 928.24 985.76 L 928.24 985.24 Z" />
<path fill="#ffffff" opacity="1.00" d=" M 920.24 986.24 L 920.76 986.24 L 920.76 986.76 L 920.24 986.76 L 920.24 986.24 Z" />
<path fill="#ffffff" opacity="1.00" d=" M 904.24 987.24 L 904.76 987.24 L 904.76 987.76 L 904.24 987.76 L 904.24 987.24 Z" />
<path fill="#ffffff" opacity="1.00" d=" M 30.24 989.24 L 30.76 989.24 L 30.76 989.76 L 30.24 989.76 L 30.24 989.24 Z" />
<path fill="#ffffff" opacity="1.00" d=" M 602.24 989.24 L 602.76 989.24 L 602.76 989.76 L 602.24 989.76 L 602.24 989.24 Z" />
<path fill="#ffffff" opacity="1.00" d=" M 622.24 989.24 L 622.76 989.24 L 622.76 989.76 L 622.24 989.76 L 622.24 989.24 Z" />
<path fill="#ffffff" opacity="1.00" d=" M 899.25 990.24 C 899.67 990.12 900.50 989.89 900.92 989.77 C 903.65 990.66 899.20 993.71 898.97 990.99 L 899.25 990.24 Z" />
<path fill="#ffffff" opacity="1.00" d=" M 618.24 991.24 L 618.76 991.24 L 618.76 991.76 L 618.24 991.76 L 618.24 991.24 Z" />
<path fill="#ffffff" opacity="1.00" d=" M 905.24 991.24 L 905.76 991.24 L 905.76 991.76 L 905.24 991.76 L 905.24 991.24 Z" />
<path fill="#ffffff" opacity="1.00" d=" M 251.24 994.24 L 251.76 994.24 L 251.76 994.76 L 251.24 994.76 L 251.24 994.24 Z" />
<path fill="#ffffff" opacity="1.00" d=" M 601.24 994.24 L 601.76 994.24 L 601.76 994.76 L 601.24 994.76 L 601.24 994.24 Z" />
<path fill="#ffffff" opacity="1.00" d=" M 260.24 995.24 L 260.76 995.24 L 260.76 995.76 L 260.24 995.76 L 260.24 995.24 Z" />
<path fill="#ffffff" opacity="1.00" d=" M 997.24 995.24 L 997.76 995.24 L 997.76 995.76 L 997.24 995.76 L 997.24 995.24 Z" />
<path fill="#ffffff" opacity="1.00" d=" M 20.24 996.24 L 20.76 996.24 L 20.76 996.76 L 20.24 996.76 L 20.24 996.24 Z" />
<path fill="#ffffff" opacity="1.00" d=" M 212.24 996.24 L 212.76 996.24 L 212.76 996.76 L 212.24 996.76 L 212.24 996.24 Z" />
<path fill="#ffffff" opacity="1.00" d=" M 253.24 996.24 L 253.76 996.24 L 253.76 996.76 L 253.24 996.76 L 253.24 996.24 Z" />
<path fill="#ffffff" opacity="1.00" d=" M 276.24 996.24 L 276.76 996.24 L 276.76 996.76 L 276.24 996.76 L 276.24 996.24 Z" />
<path fill="#ffffff" opacity="1.00" d=" M 242.24 997.24 L 242.76 997.24 L 242.76 997.76 L 242.24 997.76 L 242.24 997.24 Z" />
<path fill="#ffffff" opacity="1.00" d=" M 974.24 999.24 L 974.76 999.24 L 974.76 999.76 L 974.24 999.76 L 974.24 999.24 Z" />
<path fill="#ffffff" opacity="1.00" d=" M 5.24 1001.24 L 5.76 1001.24 L 5.76 1001.76 L 5.24 1001.76 L 5.24 1001.24 Z" />
<path fill="#ffffff" opacity="1.00" d=" M 261.24 1001.24 L 261.76 1001.24 L 261.76 1001.76 L 261.24 1001.76 L 261.24 1001.24 Z" />
<path fill="#ffffff" opacity="1.00" d=" M 631.24 1001.24 L 631.76 1001.24 L 631.76 1001.76 L 631.24 1001.76 L 631.24 1001.24 Z" />
<path fill="#ffffff" opacity="1.00" d=" M 642.24 1001.24 L 642.76 1001.24 L 642.76 1001.76 L 642.24 1001.76 L 642.24 1001.24 Z" />
<path fill="#ffffff" opacity="1.00" d=" M 176.24 1003.24 L 176.76 1003.24 L 176.76 1003.76 L 176.24 1003.76 L 176.24 1003.24 Z" />
<path fill="#ffffff" opacity="1.00" d=" M 5.24 1004.24 L 5.76 1004.24 L 5.76 1004.76 L 5.24 1004.76 L 5.24 1004.24 Z" />
<path fill="#ffffff" opacity="1.00" d=" M 261.24 1004.24 L 261.76 1004.24 L 261.76 1004.76 L 261.24 1004.76 L 261.24 1004.24 Z" />
<path fill="#ffffff" opacity="1.00" d=" M 1.24 1006.24 L 1.76 1006.24 L 1.76 1006.76 L 1.24 1006.76 L 1.24 1006.24 Z" />
<path fill="#ffffff" opacity="1.00" d=" M 257.24 1006.24 L 257.76 1006.24 L 257.76 1006.76 L 257.24 1006.76 L 257.24 1006.24 Z" />
<path fill="#ffffff" opacity="1.00" d=" M 172.24 1011.24 L 172.76 1011.24 L 172.76 1011.76 L 172.24 1011.76 L 172.24 1011.24 Z" />
<path fill="#ffffff" opacity="1.00" d=" M 940.24 1011.24 L 940.76 1011.24 L 940.76 1011.76 L 940.24 1011.76 L 940.24 1011.24 Z" />
<path fill="#ffffff" opacity="1.00" d=" M 974.24 1011.24 L 974.76 1011.24 L 974.76 1011.76 L 974.24 1011.76 L 974.24 1011.24 Z" />
<path fill="#ffffff" opacity="1.00" d=" M 9.24 1012.24 L 9.76 1012.24 L 9.76 1012.76 L 9.24 1012.76 L 9.24 1012.24 Z" />
<path fill="#ffffff" opacity="1.00" d=" M 254.24 1012.24 L 254.76 1012.24 L 254.76 1012.76 L 254.24 1012.76 L 254.24 1012.24 Z" />
<path fill="#ffffff" opacity="1.00" d=" M 265.24 1012.24 L 265.76 1012.24 L 265.76 1012.76 L 265.24 1012.76 L 265.24 1012.24 Z" />
<path fill="#ffffff" opacity="1.00" d=" M 396.24 1012.24 L 396.76 1012.24 L 396.76 1012.76 L 396.24 1012.76 L 396.24 1012.24 Z" />
<path fill="#ffffff" opacity="1.00" d=" M 398.24 1014.24 L 398.76 1014.24 L 398.76 1014.76 L 398.24 1014.76 L 398.24 1014.24 Z" />
<path fill="#ffffff" opacity="1.00" d=" M 253.24 1015.24 L 253.76 1015.24 L 253.76 1015.76 L 253.24 1015.76 L 253.24 1015.24 Z" />
<path fill="#ffffff" opacity="1.00" d=" M 87.10 1016.25 L 87.90 1016.25 L 88.28 1017.00 L 87.90 1017.75 L 87.10 1017.75 L 86.72 1017.00 L 87.10 1016.25 Z" />
<path fill="#ffffff" opacity="1.00" d=" M 343.10 1016.25 L 343.90 1016.25 L 344.28 1017.00 L 343.90 1017.75 L 343.10 1017.75 L 342.72 1017.00 L 343.10 1016.25 Z" />
<path fill="#ffffff" opacity="1.00" d=" M 392.24 1017.24 L 392.76 1017.24 L 392.76 1017.76 L 392.24 1017.76 L 392.24 1017.24 Z" />
<path fill="#ffffff" opacity="1.00" d=" M 942.24 1017.24 L 942.76 1017.24 L 942.76 1017.76 L 942.24 1017.76 L 942.24 1017.24 Z" />
<path fill="#ffffff" opacity="1.00" d=" M 5.16 1020.16 L 6.00 1019.83 L 6.84 1020.16 L 7.17 1021.00 L 6.84 1021.84 L 6.00 1022.17 L 5.16 1021.84 L 4.83 1021.00 L 5.16 1020.16 Z" />
<path fill="#ffffff" opacity="1.00" d=" M 8.24 1020.24 L 8.76 1020.24 L 8.76 1020.76 L 8.24 1020.76 L 8.24 1020.24 Z" />
<path fill="#ffffff" opacity="1.00" d=" M 261.16 1020.16 L 262.00 1019.83 L 262.84 1020.16 L 263.17 1021.00 L 262.84 1021.84 L 262.00 1022.17 L 261.16 1021.84 L 260.83 1021.00 L 261.16 1020.16 Z" />
<path fill="#ffffff" opacity="1.00" d=" M 264.24 1020.24 L 264.76 1020.24 L 264.76 1020.76 L 264.24 1020.76 L 264.24 1020.24 Z" />
<path fill="#ffffff" opacity="1.00" d=" M 517.25 1021.10 L 518.00 1020.72 L 518.75 1021.10 L 518.75 1021.90 L 518.00 1022.28 L 517.25 1021.90 L 517.25 1021.10 Z" />
<path fill="#ffffff" opacity="1.00" d=" M 942.24 1021.24 L 942.76 1021.24 L 942.76 1021.76 L 942.24 1021.76 L 942.24 1021.24 Z" />
</g>
</svg>
