<?xml version="1.0" encoding="UTF-8" ?>
<!DOCTYPE svg PUBLIC "-//W3C//DTD SVG 1.1//EN" "http://www.w3.org/Graphics/SVG/1.1/DTD/svg11.dtd">
<svg width="1024pt" height="1024pt" viewBox="0 0 1024 1024" preserveAspectRatio="none" version="1.1" xmlns="http://www.w3.org/2000/svg">
<g id="#000000ff">
</g>
<g id="#ffffffff">
<path fill="#ffffff" opacity="1.00" d=" M 380.39 23.16 C 380.78 23.05 381.56 22.83 381.96 22.71 L 382.61 23.16 L 382.61 23.84 C 382.22 23.95 381.44 24.17 381.04 24.29 L 380.39 23.84 L 380.39 23.16 Z" />
<path fill="#ffffff" opacity="1.00" d=" M 393.24 23.24 L 393.76 23.24 L 393.76 23.76 L 393.24 23.76 L 393.24 23.24 Z" />
<path fill="#ffffff" opacity="1.00" d=" M 50.24 26.24 L 50.76 26.24 L 50.76 26.76 L 50.24 26.76 L 50.24 26.24 Z" />
<path fill="#ffffff" opacity="1.00" d=" M 526.24 27.24 L 526.76 27.24 L 526.76 27.76 L 526.24 27.76 L 526.24 27.24 Z" />
<path fill="#ffffff" opacity="1.00" d=" M 44.24 28.24 L 44.76 28.24 L 44.76 28.76 L 44.24 28.76 L 44.24 28.24 Z" />
<path fill="#ffffff" opacity="1.00" d=" M 375.24 28.24 L 375.76 28.24 L 375.76 28.76 L 375.24 28.76 L 375.24 28.24 Z" />
<path fill="#ffffff" opacity="1.00" d=" M 40.24 30.24 L 40.76 30.24 L 40.76 30.76 L 40.24 30.76 L 40.24 30.24 Z" />
<path fill="#ffffff" opacity="1.00" d=" M 349.24 32.24 L 349.76 32.24 L 349.76 32.76 L 349.24 32.76 L 349.24 32.24 Z" />
<path fill="#ffffff" opacity="1.00" d=" M 371.24 32.24 L 371.76 32.24 L 371.76 32.76 L 371.24 32.76 L 371.24 32.24 Z" />
<path fill="#ffffff" opacity="1.00" d=" M 861.24 32.24 L 861.76 32.24 L 861.76 32.76 L 861.24 32.76 L 861.24 32.24 Z" />
<path fill="#ffffff" opacity="1.00" d=" M 42.24 33.24 L 42.76 33.24 L 42.76 33.76 L 42.24 33.76 L 42.24 33.24 Z" />
<path fill="#ffffff" opacity="1.00" d=" M 150.24 33.24 L 150.76 33.24 L 150.76 33.76 L 150.24 33.76 L 150.24 33.24 Z" />
<path fill="#ffffff" opacity="1.00" d=" M 375.24 33.24 L 375.76 33.24 L 375.76 33.76 L 375.24 33.76 L 375.24 33.24 Z" />
<path fill="#ffffff" opacity="1.00" d=" M 146.24 35.24 L 146.76 35.24 L 146.76 35.76 L 146.24 35.76 L 146.24 35.24 Z" />
<path fill="#ffffff" opacity="1.00" d=" M 226.24 35.24 L 226.76 35.24 L 226.76 35.76 L 226.24 35.76 L 226.24 35.24 Z" />
<path fill="#ffffff" opacity="1.00" d=" M 994.24 35.24 L 994.76 35.24 L 994.76 35.76 L 994.24 35.76 L 994.24 35.24 Z" />
<path fill="#ffffff" opacity="1.00" d=" M 193.24 36.24 L 193.76 36.24 L 193.76 36.76 L 193.24 36.76 L 193.24 36.24 Z" />
<path fill="#ffffff" opacity="1.00" d=" M 198.24 36.24 L 198.76 36.24 L 198.76 36.76 L 198.24 36.76 L 198.24 36.24 Z" />
<path fill="#ffffff" opacity="1.00" d=" M 449.24 36.24 L 449.76 36.24 L 449.76 36.76 L 449.24 36.76 L 449.24 36.24 Z" />
<path fill="#ffffff" opacity="1.00" d=" M 454.24 36.24 L 454.76 36.24 L 454.76 36.76 L 454.24 36.76 L 454.24 36.24 Z" />
<path fill="#ffffff" opacity="1.00" d=" M 204.24 37.24 L 204.76 37.24 L 204.76 37.76 L 204.24 37.76 L 204.24 37.24 Z" />
<path fill="#ffffff" opacity="1.00" d=" M 460.24 37.24 L 460.76 37.24 L 460.76 37.76 L 460.24 37.76 L 460.24 37.24 Z" />
<path fill="#ffffff" opacity="1.00" d=" M 346.24 38.24 L 346.76 38.24 L 346.76 38.76 L 346.24 38.76 L 346.24 38.24 Z" />
<path fill="#ffffff" opacity="1.00" d=" M 360.24 38.24 L 360.76 38.24 L 360.76 38.76 L 360.24 38.76 L 360.24 38.24 Z" />
<path fill="#ffffff" opacity="1.00" d=" M 841.24 38.24 L 841.76 38.24 L 841.76 38.76 L 841.24 38.76 L 841.24 38.24 Z" />
<path fill="#ffffff" opacity="1.00" d=" M 858.24 38.24 L 858.76 38.24 L 858.76 38.76 L 858.24 38.76 L 858.24 38.24 Z" />
<path fill="#ffffff" opacity="1.00" d=" M 872.24 38.24 L 872.76 38.24 L 872.76 38.76 L 872.24 38.76 L 872.24 38.24 Z" />
<path fill="#ffffff" opacity="1.00" d=" M 149.25 39.10 L 150.00 38.72 L 150.75 39.10 L 150.75 39.90 L 150.00 40.28 L 149.25 39.90 L 149.25 39.10 Z" />
<path fill="#ffffff" opacity="1.00" d=" M 208.24 39.24 L 208.76 39.24 L 208.76 39.76 L 208.24 39.76 L 208.24 39.24 Z" />
<path fill="#ffffff" opacity="1.00" d=" M 352.24 39.24 L 352.76 39.24 L 352.76 39.76 L 352.24 39.76 L 352.24 39.24 Z" />
<path fill="#ffffff" opacity="1.00" d=" M 464.24 39.24 L 464.76 39.24 L 464.76 39.76 L 464.24 39.76 L 464.24 39.24 Z" />
<path fill="#ffffff" opacity="1.00" d=" M 864.24 39.24 L 864.76 39.24 L 864.76 39.76 L 864.24 39.76 L 864.24 39.24 Z" />
<path fill="#ffffff" opacity="1.00" d=" M 976.24 39.24 L 976.76 39.24 L 976.76 39.76 L 976.24 39.76 L 976.24 39.24 Z" />
<path fill="#ffffff" opacity="1.00" d=" M 201.24 40.24 L 201.76 40.24 L 201.76 40.76 L 201.24 40.76 L 201.24 40.24 Z" />
<path fill="#ffffff" opacity="1.00" d=" M 457.24 40.24 L 457.76 40.24 L 457.76 40.76 L 457.24 40.76 L 457.24 40.24 Z" />
<path fill="#ffffff" opacity="1.00" d=" M 969.24 40.24 L 969.76 40.24 L 969.76 40.76 L 969.24 40.76 L 969.24 40.24 Z" />
<path fill="#ffffff" opacity="1.00" d=" M 337.34 43.87 C 337.01 42.53 337.52 42.01 338.87 42.34 C 339.28 43.77 338.77 44.29 337.34 43.87 Z" />
<path fill="#ffffff" opacity="1.00" d=" M 849.34 43.87 C 849.00 42.53 849.51 42.01 850.87 42.34 C 851.28 43.77 850.76 44.29 849.34 43.87 Z" />
<path fill="#ffffff" opacity="1.00" d=" M 217.24 43.24 L 217.76 43.24 L 217.76 43.76 L 217.24 43.76 L 217.24 43.24 Z" />
<path fill="#ffffff" opacity="1.00" d=" M 223.24 43.24 L 223.76 43.24 L 223.76 43.76 L 223.24 43.76 L 223.24 43.24 Z" />
<path fill="#ffffff" opacity="1.00" d=" M 985.24 43.24 L 985.76 43.24 L 985.76 43.76 L 985.24 43.76 L 985.24 43.24 Z" />
<path fill="#ffffff" opacity="1.00" d=" M 225.24 46.24 L 225.76 46.24 L 225.76 46.76 L 225.24 46.76 L 225.24 46.24 Z" />
<path fill="#ffffff" opacity="1.00" d=" M 348.24 46.24 L 348.76 46.24 L 348.76 46.76 L 348.24 46.76 L 348.24 46.24 Z" />
<path fill="#ffffff" opacity="1.00" d=" M 204.25 47.10 L 205.00 46.72 L 205.75 47.10 L 205.75 47.90 L 205.00 48.28 L 204.25 47.90 L 204.25 47.10 Z" />
<path fill="#ffffff" opacity="1.00" d=" M 238.24 47.24 L 238.76 47.24 L 238.76 47.76 L 238.24 47.76 L 238.24 47.24 Z" />
<path fill="#ffffff" opacity="1.00" d=" M 460.25 47.10 L 461.00 46.72 L 461.75 47.10 L 461.75 47.90 L 461.00 48.28 L 460.25 47.90 L 460.25 47.10 Z" />
<path fill="#ffffff" opacity="1.00" d=" M 972.25 47.10 L 973.00 46.72 L 973.75 47.10 L 973.75 47.90 L 973.00 48.28 L 972.25 47.90 L 972.25 47.10 Z" />
<path fill="#ffffff" opacity="1.00" d=" M 198.24 48.24 L 198.76 48.24 L 198.76 48.76 L 198.24 48.76 L 198.24 48.24 Z" />
<path fill="#ffffff" opacity="1.00" d=" M 235.24 48.24 L 235.76 48.24 L 235.76 48.76 L 235.24 48.76 L 235.24 48.24 Z" />
<path fill="#ffffff" opacity="1.00" d=" M 454.24 48.24 L 454.76 48.24 L 454.76 48.76 L 454.24 48.76 L 454.24 48.24 Z" />
<path fill="#ffffff" opacity="1.00" d=" M 966.24 48.24 L 966.76 48.24 L 966.76 48.76 L 966.24 48.76 L 966.24 48.24 Z" />
<path fill="#ffffff" opacity="1.00" d=" M 435.24 52.24 L 435.76 52.24 L 435.76 52.76 L 435.24 52.76 L 435.24 52.24 Z" />
<path fill="#ffffff" opacity="1.00" d=" M 947.24 52.24 L 947.76 52.24 L 947.76 52.76 L 947.24 52.76 L 947.24 52.24 Z" />
<path fill="#ffffff" opacity="1.00" d=" M 194.24 54.24 L 194.76 54.24 L 194.76 54.76 L 194.24 54.76 L 194.24 54.24 Z" />
<path fill="#ffffff" opacity="1.00" d=" M 219.24 54.24 L 219.76 54.24 L 219.76 54.76 L 219.24 54.76 L 219.24 54.24 Z" />
<path fill="#ffffff" opacity="1.00" d=" M 450.24 54.24 L 450.76 54.24 L 450.76 54.76 L 450.24 54.76 L 450.24 54.24 Z" />
<path fill="#ffffff" opacity="1.00" d=" M 475.24 54.24 L 475.76 54.24 L 475.76 54.76 L 475.24 54.76 L 475.24 54.24 Z" />
<path fill="#ffffff" opacity="1.00" d=" M 706.24 54.24 L 706.76 54.24 L 706.76 54.76 L 706.24 54.76 L 706.24 54.24 Z" />
<path fill="#ffffff" opacity="1.00" d=" M 962.24 54.24 L 962.76 54.24 L 962.76 54.76 L 962.24 54.76 L 962.24 54.24 Z" />
<path fill="#ffffff" opacity="1.00" d=" M 686.24 55.24 L 686.76 55.24 L 686.76 55.76 L 686.24 55.76 L 686.24 55.24 Z" />
<path fill="#ffffff" opacity="1.00" d=" M 942.24 55.24 L 942.76 55.24 L 942.76 55.76 L 942.24 55.76 L 942.24 55.24 Z" />
<path fill="#ffffff" opacity="1.00" d=" M 384.24 57.24 L 384.76 57.24 L 384.76 57.76 L 384.24 57.76 L 384.24 57.24 Z" />
<path fill="#ffffff" opacity="1.00" d=" M 394.24 59.24 L 394.76 59.24 L 394.76 59.76 L 394.24 59.76 L 394.24 59.24 Z" />
<path fill="#ffffff" opacity="1.00" d=" M 102.24 60.24 L 102.76 60.24 L 102.76 60.76 L 102.24 60.76 L 102.24 60.24 Z" />
<path fill="#ffffff" opacity="1.00" d=" M 770.24 62.24 L 770.76 62.24 L 770.76 62.76 L 770.24 62.76 L 770.24 62.24 Z" />
<path fill="#ffffff" opacity="1.00" d=" M 204.24 63.24 L 204.76 63.24 L 204.76 63.76 L 204.24 63.76 L 204.24 63.24 Z" />
<path fill="#ffffff" opacity="1.00" d=" M 460.24 63.24 L 460.76 63.24 L 460.76 63.76 L 460.24 63.76 L 460.24 63.24 Z" />
<path fill="#ffffff" opacity="1.00" d=" M 445.24 64.24 L 445.76 64.24 L 445.76 64.76 L 445.24 64.76 L 445.24 64.24 Z" />
<path fill="#ffffff" opacity="1.00" d=" M 767.24 64.24 L 767.76 64.24 L 767.76 64.76 L 767.24 64.76 L 767.24 64.24 Z" />
<path fill="#ffffff" opacity="1.00" d=" M 783.24 64.24 L 783.76 64.24 L 783.76 64.76 L 783.24 64.76 L 783.24 64.24 Z" />
<path fill="#ffffff" opacity="1.00" d=" M 174.24 67.24 L 174.76 67.24 L 174.76 67.76 L 174.24 67.76 L 174.24 67.24 Z" />
<path fill="#ffffff" opacity="1.00" d=" M 393.24 67.24 L 393.76 67.24 L 393.76 67.76 L 393.24 67.76 L 393.24 67.24 Z" />
<path fill="#ffffff" opacity="1.00" d=" M 204.24 68.24 L 204.76 68.24 L 204.76 68.76 L 204.24 68.76 L 204.24 68.24 Z" />
<path fill="#ffffff" opacity="1.00" d=" M 635.24 73.24 L 635.76 73.24 L 635.76 73.76 L 635.24 73.76 L 635.24 73.24 Z" />
<path fill="#ffffff" opacity="1.00" d=" M 247.24 82.24 L 247.76 82.24 L 247.76 82.76 L 247.24 82.76 L 247.24 82.24 Z" />
<path fill="#ffffff" opacity="1.00" d=" M 884.24 84.24 L 884.76 84.24 L 884.76 84.76 L 884.24 84.76 L 884.24 84.24 Z" />
<path fill="#ffffff" opacity="1.00" d=" M 909.24 89.24 L 909.76 89.24 L 909.76 89.76 L 909.24 89.76 L 909.24 89.24 Z" />
<path fill="#ffffff" opacity="1.00" d=" M 769.24 112.24 L 769.76 112.24 L 769.76 112.76 L 769.24 112.76 L 769.24 112.24 Z" />
<path fill="#ffffff" opacity="1.00" d=" M 781.24 112.24 L 781.76 112.24 L 781.76 112.76 L 781.24 112.76 L 781.24 112.24 Z" />
<path fill="#ffffff" opacity="1.00" d=" M 764.24 113.24 L 764.76 113.24 L 764.76 113.76 L 764.24 113.76 L 764.24 113.24 Z" />
<path fill="#ffffff" opacity="1.00" d=" M 775.24 113.24 L 775.76 113.24 L 775.76 113.76 L 775.24 113.76 L 775.24 113.24 Z" />
<path fill="#ffffff" opacity="1.00" d=" M 831.24 113.24 L 831.76 113.24 L 831.76 113.76 L 831.24 113.76 L 831.24 113.24 Z" />
<path fill="#ffffff" opacity="1.00" d=" M 1020.24 113.24 L 1020.76 113.24 L 1020.76 113.76 L 1020.24 113.76 L 1020.24 113.24 Z" />
<path fill="#ffffff" opacity="1.00" d=" M 1006.24 115.24 L 1006.76 115.24 L 1006.76 115.76 L 1006.24 115.76 L 1006.24 115.24 Z" />
<path fill="#ffffff" opacity="1.00" d=" M 854.24 116.24 L 854.76 116.24 L 854.76 116.76 L 854.24 116.76 L 854.24 116.24 Z" />
<path fill="#ffffff" opacity="1.00" d=" M 772.24 118.24 L 772.76 118.24 L 772.76 118.76 L 772.24 118.76 L 772.24 118.24 Z" />
<path fill="#ffffff" opacity="1.00" d=" M 304.24 119.24 L 304.76 119.24 L 304.76 119.76 L 304.24 119.76 L 304.24 119.24 Z" />
<path fill="#ffffff" opacity="1.00" d=" M 832.24 120.24 L 832.76 120.24 L 832.76 120.76 L 832.24 120.76 L 832.24 120.24 Z" />
<path fill="#ffffff" opacity="1.00" d=" M 855.24 120.24 L 855.76 120.24 L 855.76 120.76 L 855.24 120.76 L 855.24 120.24 Z" />
<path fill="#ffffff" opacity="1.00" d=" M 325.24 123.24 L 325.76 123.24 L 325.76 123.76 L 325.24 123.76 L 325.24 123.24 Z" />
<path fill="#ffffff" opacity="1.00" d=" M 837.24 123.24 L 837.76 123.24 L 837.76 123.76 L 837.24 123.76 L 837.24 123.24 Z" />
<path fill="#ffffff" opacity="1.00" d=" M 310.24 125.24 L 310.76 125.24 L 310.76 125.76 L 310.24 125.76 L 310.24 125.24 Z" />
<path fill="#ffffff" opacity="1.00" d=" M 515.24 127.24 L 515.76 127.24 L 515.76 127.76 L 515.24 127.76 L 515.24 127.24 Z" />
<path fill="#ffffff" opacity="1.00" d=" M 522.24 129.24 L 522.76 129.24 L 522.76 129.76 L 522.24 129.76 L 522.24 129.24 Z" />
<path fill="#ffffff" opacity="1.00" d=" M 834.24 129.24 L 834.76 129.24 L 834.76 129.76 L 834.24 129.76 L 834.24 129.24 Z" />
<path fill="#ffffff" opacity="1.00" d=" M 532.24 130.24 L 532.76 130.24 L 532.76 130.76 L 532.24 130.76 L 532.24 130.24 Z" />
<path fill="#ffffff" opacity="1.00" d=" M 826.13 131.34 C 827.46 131.01 827.98 131.52 827.66 132.87 C 826.22 133.28 825.70 132.77 826.13 131.34 Z" />
<path fill="#ffffff" opacity="1.00" d=" M 669.24 132.24 L 669.76 132.24 L 669.76 132.76 L 669.24 132.76 L 669.24 132.24 Z" />
<path fill="#ffffff" opacity="1.00" d=" M 830.24 132.24 L 830.76 132.24 L 830.76 132.76 L 830.24 132.76 L 830.24 132.24 Z" />
<path fill="#ffffff" opacity="1.00" d=" M 652.24 137.24 L 652.76 137.24 L 652.76 137.76 L 652.24 137.76 L 652.24 137.24 Z" />
<path fill="#ffffff" opacity="1.00" d=" M 674.24 137.24 L 674.76 137.24 L 674.76 137.76 L 674.24 137.76 L 674.24 137.24 Z" />
<path fill="#ffffff" opacity="1.00" d=" M 48.24 139.24 L 48.76 139.24 L 48.76 139.76 L 48.24 139.76 L 48.24 139.24 Z" />
<path fill="#ffffff" opacity="1.00" d=" M 704.24 139.24 L 704.76 139.24 L 704.76 139.76 L 704.24 139.76 L 704.24 139.24 Z" />
<path fill="#ffffff" opacity="1.00" d=" M 660.24 140.24 L 660.76 140.24 L 660.76 140.76 L 660.24 140.76 L 660.24 140.24 Z" />
<path fill="#ffffff" opacity="1.00" d=" M 669.24 140.24 L 669.76 140.24 L 669.76 140.76 L 669.24 140.76 L 669.24 140.24 Z" />
<path fill="#ffffff" opacity="1.00" d=" M 683.24 140.24 L 683.76 140.24 L 683.76 140.76 L 683.24 140.76 L 683.24 140.24 Z" />
<path fill="#ffffff" opacity="1.00" d=" M 724.24 141.24 L 724.76 141.24 L 724.76 141.76 L 724.24 141.76 L 724.24 141.24 Z" />
<path fill="#ffffff" opacity="1.00" d=" M 17.24 143.24 L 17.76 143.24 L 17.76 143.76 L 17.24 143.76 L 17.24 143.24 Z" />
<path fill="#ffffff" opacity="1.00" d=" M 12.24 144.24 L 12.76 144.24 L 12.76 144.76 L 12.24 144.76 L 12.24 144.24 Z" />
<path fill="#ffffff" opacity="1.00" d=" M 2.24 145.24 L 2.76 145.24 L 2.76 145.76 L 2.24 145.76 L 2.24 145.24 Z" />
<path fill="#ffffff" opacity="1.00" d=" M 454.24 145.24 L 454.76 145.24 L 454.76 145.76 L 454.24 145.76 L 454.24 145.24 Z" />
<path fill="#ffffff" opacity="1.00" d=" M 673.25 145.10 L 674.00 144.72 L 674.75 145.10 L 674.75 145.90 L 674.00 146.28 L 673.25 145.90 L 673.25 145.10 Z" />
<path fill="#ffffff" opacity="1.00" d=" M 710.24 145.24 L 710.76 145.24 L 710.76 145.76 L 710.24 145.76 L 710.24 145.24 Z" />
<path fill="#ffffff" opacity="1.00" d=" M 729.24 145.24 L 729.76 145.24 L 729.76 145.76 L 729.24 145.76 L 729.24 145.24 Z" />
<path fill="#ffffff" opacity="1.00" d=" M 0.00 146.23 L 0.56 146.23 L 0.56 146.77 L 0.00 146.77 L 0.00 146.23 Z" />
<path fill="#ffffff" opacity="1.00" d=" M 684.25 146.10 L 685.00 145.72 L 685.75 146.10 L 685.75 146.90 L 685.00 147.28 L 684.25 146.90 L 684.25 146.10 Z" />
<path fill="#ffffff" opacity="1.00" d=" M 1004.24 148.24 L 1004.76 148.24 L 1004.76 148.76 L 1004.24 148.76 L 1004.24 148.24 Z" />
<path fill="#ffffff" opacity="1.00" d=" M 59.24 150.24 L 59.76 150.24 L 59.76 150.76 L 59.24 150.76 L 59.24 150.24 Z" />
<path fill="#ffffff" opacity="1.00" d=" M 693.34 151.87 C 693.00 150.52 693.52 150.01 694.87 150.34 C 695.28 151.77 694.76 152.28 693.34 151.87 Z" />
<path fill="#ffffff" opacity="1.00" d=" M 48.24 151.24 L 48.76 151.24 L 48.76 151.76 L 48.24 151.76 L 48.24 151.24 Z" />
<path fill="#ffffff" opacity="1.00" d=" M 193.24 153.24 L 193.76 153.24 L 193.76 153.76 L 193.24 153.76 L 193.24 153.24 Z" />
<path fill="#ffffff" opacity="1.00" d=" M 705.24 153.24 L 705.76 153.24 L 705.76 153.76 L 705.24 153.76 L 705.24 153.24 Z" />
<path fill="#ffffff" opacity="1.00" d=" M 62.24 154.24 L 62.76 154.24 L 62.76 154.76 L 62.24 154.76 L 62.24 154.24 Z" />
<path fill="#ffffff" opacity="1.00" d=" M 77.24 154.24 L 77.76 154.24 L 77.76 154.76 L 77.24 154.76 L 77.24 154.24 Z" />
<path fill="#ffffff" opacity="1.00" d=" M 660.24 154.24 L 660.76 154.24 L 660.76 154.76 L 660.24 154.76 L 660.24 154.24 Z" />
<path fill="#ffffff" opacity="1.00" d=" M 711.24 154.24 L 711.76 154.24 L 711.76 154.76 L 711.24 154.76 L 711.24 154.24 Z" />
<path fill="#ffffff" opacity="1.00" d=" M 96.24 178.24 L 96.76 178.24 L 96.76 178.76 L 96.24 178.76 L 96.24 178.24 Z" />
<path fill="#ffffff" opacity="1.00" d=" M 974.24 179.24 L 974.76 179.24 L 974.76 179.76 L 974.24 179.76 L 974.24 179.24 Z" />
<path fill="#ffffff" opacity="1.00" d=" M 246.24 182.24 L 246.76 182.24 L 246.76 182.76 L 246.24 182.76 L 246.24 182.24 Z" />
<path fill="#ffffff" opacity="1.00" d=" M 259.25 183.10 L 260.00 182.72 L 260.75 183.10 L 260.75 183.90 L 260.00 184.28 L 259.25 183.90 L 259.25 183.10 Z" />
<path fill="#ffffff" opacity="1.00" d=" M 951.24 184.24 L 951.76 184.24 L 951.76 184.76 L 951.24 184.76 L 951.24 184.24 Z" />
<path fill="#ffffff" opacity="1.00" d=" M 905.24 191.24 L 905.76 191.24 L 905.76 191.76 L 905.24 191.76 L 905.24 191.24 Z" />
<path fill="#ffffff" opacity="1.00" d=" M 171.24 196.24 L 171.76 196.24 L 171.76 196.76 L 171.24 196.76 L 171.24 196.24 Z" />
<path fill="#ffffff" opacity="1.00" d=" M 939.24 196.24 L 939.76 196.24 L 939.76 196.76 L 939.24 196.76 L 939.24 196.24 Z" />
<path fill="#ffffff" opacity="1.00" d=" M 190.24 205.24 L 190.76 205.24 L 190.76 205.76 L 190.24 205.76 L 190.24 205.24 Z" />
<path fill="#ffffff" opacity="1.00" d=" M 165.24 207.24 L 165.76 207.24 L 165.76 207.76 L 165.24 207.76 L 165.24 207.24 Z" />
<path fill="#ffffff" opacity="1.00" d=" M 177.24 210.24 L 177.76 210.24 L 177.76 210.76 L 177.24 210.76 L 177.24 210.24 Z" />
<path fill="#ffffff" opacity="1.00" d=" M 191.25 215.10 L 192.00 214.72 L 192.75 215.10 L 192.75 215.90 L 192.00 216.28 L 191.25 215.90 L 191.25 215.10 Z" />
<path fill="#ffffff" opacity="1.00" d=" M 187.24 217.24 L 187.76 217.24 L 187.76 217.76 L 187.24 217.76 L 187.24 217.24 Z" />
<path fill="#ffffff" opacity="1.00" d=" M 170.24 221.24 L 170.76 221.24 L 170.76 221.76 L 170.24 221.76 L 170.24 221.24 Z" />
<path fill="#ffffff" opacity="1.00" d=" M 461.44 226.85 C 460.73 226.01 461.67 223.95 462.85 224.45 C 463.84 225.35 462.82 227.67 461.44 226.85 Z" />
<path fill="#ffffff" opacity="1.00" d=" M 8.24 228.24 L 8.76 228.24 L 8.76 228.76 L 8.24 228.76 L 8.24 228.24 Z" />
<path fill="#ffffff" opacity="1.00" d=" M 466.24 230.24 L 466.76 230.24 L 466.76 230.76 L 466.24 230.76 L 466.24 230.24 Z" />
<path fill="#ffffff" opacity="1.00" d=" M 858.10 233.25 L 858.90 233.25 L 859.28 234.00 L 858.90 234.75 L 858.10 234.75 L 857.72 234.00 L 858.10 233.25 Z" />
<path fill="#ffffff" opacity="1.00" d=" M 865.24 236.24 L 865.76 236.24 L 865.76 236.76 L 865.24 236.76 L 865.24 236.24 Z" />
<path fill="#ffffff" opacity="1.00" d=" M 264.24 240.24 L 264.76 240.24 L 264.76 240.76 L 264.24 240.76 L 264.24 240.24 Z" />
<path fill="#ffffff" opacity="1.00" d=" M 422.24 241.24 L 422.76 241.24 L 422.76 241.76 L 422.24 241.76 L 422.24 241.24 Z" />
<path fill="#ffffff" opacity="1.00" d=" M 257.25 242.10 L 258.00 241.72 L 258.75 242.10 L 258.75 242.90 L 258.00 243.28 L 257.25 242.90 L 257.25 242.10 Z" />
<path fill="#ffffff" opacity="1.00" d=" M 421.24 243.24 L 421.76 243.24 L 421.76 243.76 L 421.24 243.76 L 421.24 243.24 Z" />
<path fill="#ffffff" opacity="1.00" d=" M 246.24 245.24 L 246.76 245.24 L 246.76 245.76 L 246.24 245.76 L 246.24 245.24 Z" />
<path fill="#ffffff" opacity="1.00" d=" M 433.24 246.24 L 433.76 246.24 L 433.76 246.76 L 433.24 246.76 L 433.24 246.24 Z" />
<path fill="#ffffff" opacity="1.00" d=" M 130.24 247.24 L 130.76 247.24 L 130.76 247.76 L 130.24 247.76 L 130.24 247.24 Z" />
<path fill="#ffffff" opacity="1.00" d=" M 434.24 250.24 L 434.76 250.24 L 434.76 250.76 L 434.24 250.76 L 434.24 250.24 Z" />
<path fill="#ffffff" opacity="1.00" d=" M 436.24 254.24 L 436.76 254.24 L 436.76 254.76 L 436.24 254.76 L 436.24 254.24 Z" />
<path fill="#ffffff" opacity="1.00" d=" M 1018.16 259.16 L 1019.00 258.83 L 1019.84 259.16 L 1020.17 260.00 L 1019.84 260.84 L 1019.00 261.17 L 1018.16 260.84 L 1017.83 260.00 L 1018.16 259.16 Z" />
<path fill="#ffffff" opacity="1.00" d=" M 1016.24 260.24 L 1016.76 260.24 L 1016.76 260.76 L 1016.24 260.76 L 1016.24 260.24 Z" />
<path fill="#ffffff" opacity="1.00" d=" M 66.24 268.24 L 66.76 268.24 L 66.76 268.76 L 66.24 268.76 L 66.24 268.24 Z" />
<path fill="#ffffff" opacity="1.00" d=" M 50.24 269.24 L 50.76 269.24 L 50.76 269.76 L 50.24 269.76 L 50.24 269.24 Z" />
<path fill="#ffffff" opacity="1.00" d=" M 541.24 272.24 L 541.76 272.24 L 541.76 272.76 L 541.24 272.76 L 541.24 272.24 Z" />
<path fill="#ffffff" opacity="1.00" d=" M 166.24 291.24 L 166.76 291.24 L 166.76 291.76 L 166.24 291.76 L 166.24 291.24 Z" />
<path fill="#ffffff" opacity="1.00" d=" M 352.24 295.24 L 352.76 295.24 L 352.76 295.76 L 352.24 295.76 L 352.24 295.24 Z" />
<path fill="#ffffff" opacity="1.00" d=" M 164.24 299.24 L 164.76 299.24 L 164.76 299.76 L 164.24 299.76 L 164.24 299.24 Z" />
<path fill="#ffffff" opacity="1.00" d=" M 947.24 308.24 L 947.76 308.24 L 947.76 308.76 L 947.24 308.76 L 947.24 308.24 Z" />
<path fill="#ffffff" opacity="1.00" d=" M 579.24 327.24 L 579.76 327.24 L 579.76 327.76 L 579.24 327.76 L 579.24 327.24 Z" />
<path fill="#ffffff" opacity="1.00" d=" M 107.24 328.24 L 107.76 328.24 L 107.76 328.76 L 107.24 328.76 L 107.24 328.24 Z" />
<path fill="#ffffff" opacity="1.00" d=" M 891.24 329.24 L 891.76 329.24 L 891.76 329.76 L 891.24 329.76 L 891.24 329.24 Z" />
<path fill="#ffffff" opacity="1.00" d=" M 563.24 330.24 L 563.76 330.24 L 563.76 330.76 L 563.24 330.76 L 563.24 330.24 Z" />
<path fill="#ffffff" opacity="1.00" d=" M 110.24 331.24 L 110.76 331.24 L 110.76 331.76 L 110.24 331.76 L 110.24 331.24 Z" />
<path fill="#ffffff" opacity="1.00" d=" M 584.24 332.24 L 584.76 332.24 L 584.76 332.76 L 584.24 332.76 L 584.24 332.24 Z" />
<path fill="#ffffff" opacity="1.00" d=" M 888.25 333.10 L 889.00 332.72 L 889.75 333.10 L 889.75 333.90 L 889.00 334.28 L 888.25 333.90 L 888.25 333.10 Z" />
<path fill="#ffffff" opacity="1.00" d=" M 105.25 334.10 L 106.00 333.72 L 106.75 334.10 L 106.75 334.90 L 106.00 335.28 L 105.25 334.90 L 105.25 334.10 Z" />
<path fill="#ffffff" opacity="1.00" d=" M 583.24 334.24 L 583.76 334.24 L 583.76 334.76 L 583.24 334.76 L 583.24 334.24 Z" />
<path fill="#ffffff" opacity="1.00" d=" M 94.24 337.24 L 94.76 337.24 L 94.76 337.76 L 94.24 337.76 L 94.24 337.24 Z" />
<path fill="#ffffff" opacity="1.00" d=" M 574.24 337.24 L 574.76 337.24 L 574.76 337.76 L 574.24 337.76 L 574.24 337.24 Z" />
<path fill="#ffffff" opacity="1.00" d=" M 565.24 338.24 L 565.76 338.24 L 565.76 338.76 L 565.24 338.76 L 565.24 338.24 Z" />
<path fill="#ffffff" opacity="1.00" d=" M 86.24 341.24 L 86.76 341.24 L 86.76 341.76 L 86.24 341.76 L 86.24 341.24 Z" />
<path fill="#ffffff" opacity="1.00" d=" M 165.24 346.24 L 165.76 346.24 L 165.76 346.76 L 165.24 346.76 L 165.24 346.24 Z" />
<path fill="#ffffff" opacity="1.00" d=" M 167.24 349.24 L 167.76 349.24 L 167.76 349.76 L 167.24 349.76 L 167.24 349.24 Z" />
<path fill="#ffffff" opacity="1.00" d=" M 259.24 383.24 L 259.76 383.24 L 259.76 383.76 L 259.24 383.76 L 259.24 383.24 Z" />
<path fill="#ffffff" opacity="1.00" d=" M 90.24 415.24 L 90.76 415.24 L 90.76 415.76 L 90.24 415.76 L 90.24 415.24 Z" />
<path fill="#ffffff" opacity="1.00" d=" M 78.24 416.24 L 78.76 416.24 L 78.76 416.76 L 78.24 416.76 L 78.24 416.24 Z" />
<path fill="#ffffff" opacity="1.00" d=" M 99.24 416.24 L 99.76 416.24 L 99.76 416.76 L 99.24 416.76 L 99.24 416.24 Z" />
<path fill="#ffffff" opacity="1.00" d=" M 325.24 416.24 L 325.76 416.24 L 325.76 416.76 L 325.24 416.76 L 325.24 416.24 Z" />
<path fill="#ffffff" opacity="1.00" d=" M 75.24 418.24 L 75.76 418.24 L 75.76 418.76 L 75.24 418.76 L 75.24 418.24 Z" />
<path fill="#ffffff" opacity="1.00" d=" M 441.24 421.24 L 441.76 421.24 L 441.76 421.76 L 441.24 421.76 L 441.24 421.24 Z" />
<path fill="#ffffff" opacity="1.00" d=" M 452.24 421.24 L 452.76 421.24 L 452.76 421.76 L 452.24 421.76 L 452.24 421.24 Z" />
<path fill="#ffffff" opacity="1.00" d=" M 440.24 423.24 L 440.76 423.24 L 440.76 423.76 L 440.24 423.76 L 440.24 423.24 Z" />
<path fill="#ffffff" opacity="1.00" d=" M 448.25 423.10 L 449.00 422.72 L 449.75 423.10 L 449.75 423.90 L 449.00 424.28 L 448.25 423.90 L 448.25 423.10 Z" />
<path fill="#ffffff" opacity="1.00" d=" M 427.24 427.24 L 427.76 427.24 L 427.76 427.76 L 427.24 427.76 L 427.24 427.24 Z" />
<path fill="#ffffff" opacity="1.00" d=" M 423.24 428.24 L 423.76 428.24 L 423.76 428.76 L 423.24 428.76 L 423.24 428.24 Z" />
<path fill="#ffffff" opacity="1.00" d=" M 1.24 429.24 L 1.76 429.24 L 1.76 429.76 L 1.24 429.76 L 1.24 429.24 Z" />
<path fill="#ffffff" opacity="1.00" d=" M 160.24 431.24 L 160.76 431.24 L 160.76 431.76 L 160.24 431.76 L 160.24 431.24 Z" />
<path fill="#ffffff" opacity="1.00" d=" M 55.24 457.24 L 55.76 457.24 L 55.76 457.76 L 55.24 457.76 L 55.24 457.24 Z" />
<path fill="#ffffff" opacity="1.00" d=" M 60.24 457.24 L 60.76 457.24 L 60.76 457.76 L 60.24 457.76 L 60.24 457.24 Z" />
<path fill="#ffffff" opacity="1.00" d=" M 428.24 457.24 L 428.76 457.24 L 428.76 457.76 L 428.24 457.76 L 428.24 457.24 Z" />
<path fill="#ffffff" opacity="1.00" d=" M 324.25 484.10 L 325.00 483.72 L 325.75 484.10 L 325.75 484.90 L 325.00 485.28 L 324.25 484.90 L 324.25 484.10 Z" />
<path fill="#ffffff" opacity="1.00" d=" M 327.24 484.24 L 327.76 484.24 L 327.76 484.76 L 327.24 484.76 L 327.24 484.24 Z" />
<path fill="#ffffff" opacity="1.00" d=" M 568.24 484.24 L 568.76 484.24 L 568.76 484.76 L 568.24 484.76 L 568.24 484.24 Z" />
<path fill="#ffffff" opacity="1.00" d=" M 558.24 485.24 L 558.76 485.24 L 558.76 485.76 L 558.24 485.76 L 558.24 485.24 Z" />
<path fill="#ffffff" opacity="1.00" d=" M 13.24 486.24 L 13.76 486.24 L 13.76 486.76 L 13.24 486.76 L 13.24 486.24 Z" />
<path fill="#ffffff" opacity="1.00" d=" M 27.24 487.24 L 27.76 487.24 L 27.76 487.76 L 27.24 487.76 L 27.24 487.24 Z" />
<path fill="#ffffff" opacity="1.00" d=" M 326.24 487.24 L 326.76 487.24 L 326.76 487.76 L 326.24 487.76 L 326.24 487.24 Z" />
<path fill="#ffffff" opacity="1.00" d=" M 13.24 488.24 L 13.76 488.24 L 13.76 488.76 L 13.24 488.76 L 13.24 488.24 Z" />
<path fill="#ffffff" opacity="1.00" d=" M 35.24 488.24 L 35.76 488.24 L 35.76 488.76 L 35.24 488.76 L 35.24 488.24 Z" />
<path fill="#ffffff" opacity="1.00" d=" M 551.24 488.24 L 551.76 488.24 L 551.76 488.76 L 551.24 488.76 L 551.24 488.24 Z" />
<path fill="#ffffff" opacity="1.00" d=" M 560.24 488.24 L 560.76 488.24 L 560.76 488.76 L 560.24 488.76 L 560.24 488.24 Z" />
<path fill="#ffffff" opacity="1.00" d=" M 546.24 490.24 L 546.76 490.24 L 546.76 490.76 L 546.24 490.76 L 546.24 490.24 Z" />
<path fill="#ffffff" opacity="1.00" d=" M 549.24 490.24 L 549.76 490.24 L 549.76 490.76 L 549.24 490.76 L 549.24 490.24 Z" />
<path fill="#ffffff" opacity="1.00" d=" M 30.24 491.24 L 30.76 491.24 L 30.76 491.76 L 30.24 491.76 L 30.24 491.24 Z" />
<path fill="#ffffff" opacity="1.00" d=" M 541.24 492.24 L 541.76 492.24 L 541.76 492.76 L 541.24 492.76 L 541.24 492.24 Z" />
<path fill="#ffffff" opacity="1.00" d=" M 32.24 493.24 L 32.76 493.24 L 32.76 493.76 L 32.24 493.76 L 32.24 493.24 Z" />
<path fill="#ffffff" opacity="1.00" d=" M 25.24 494.24 L 25.76 494.24 L 25.76 494.76 L 25.24 494.76 L 25.24 494.24 Z" />
<path fill="#ffffff" opacity="1.00" d=" M 543.24 495.24 L 543.76 495.24 L 543.76 495.76 L 543.24 495.76 L 543.24 495.24 Z" />
<path fill="#ffffff" opacity="1.00" d=" M 8.24 496.24 L 8.76 496.24 L 8.76 496.76 L 8.24 496.76 L 8.24 496.24 Z" />
<path fill="#ffffff" opacity="1.00" d=" M 1.25 498.10 L 2.00 497.72 L 2.75 498.10 L 2.75 498.90 L 2.00 499.28 L 1.25 498.90 L 1.25 498.10 Z" />
<path fill="#ffffff" opacity="1.00" d=" M 10.24 501.24 L 10.76 501.24 L 10.76 501.76 L 10.24 501.76 L 10.24 501.24 Z" />
<path fill="#ffffff" opacity="1.00" d=" M 16.24 501.24 L 16.76 501.24 L 16.76 501.76 L 16.24 501.76 L 16.24 501.24 Z" />
<path fill="#ffffff" opacity="1.00" d=" M 1014.24 501.24 L 1014.76 501.24 L 1014.76 501.76 L 1014.24 501.76 L 1014.24 501.24 Z" />
<path fill="#ffffff" opacity="1.00" d=" M 21.24 502.24 L 21.76 502.24 L 21.76 502.76 L 21.24 502.76 L 21.24 502.24 Z" />
<path fill="#ffffff" opacity="1.00" d=" M 1006.24 502.24 L 1006.76 502.24 L 1006.76 502.76 L 1006.24 502.76 L 1006.24 502.24 Z" />
<path fill="#ffffff" opacity="1.00" d=" M 916.24 510.24 L 916.76 510.24 L 916.76 510.76 L 916.24 510.76 L 916.24 510.24 Z" />
<path fill="#ffffff" opacity="1.00" d=" M 917.24 512.24 L 917.76 512.24 L 917.76 512.76 L 917.24 512.76 L 917.24 512.24 Z" />
<path fill="#ffffff" opacity="1.00" d=" M 920.24 517.24 L 920.76 517.24 L 920.76 517.76 L 920.24 517.76 L 920.24 517.24 Z" />
<path fill="#ffffff" opacity="1.00" d=" M 339.38 529.27 C 340.40 528.56 342.74 529.49 342.54 530.81 C 341.47 531.72 338.90 530.81 339.38 529.27 Z" />
<path fill="#ffffff" opacity="1.00" d=" M 225.24 530.24 L 225.76 530.24 L 225.76 530.76 L 225.24 530.76 L 225.24 530.24 Z" />
<path fill="#ffffff" opacity="1.00" d=" M 968.10 531.25 L 968.90 531.25 L 969.28 532.00 L 968.90 532.75 L 968.10 532.75 L 967.72 532.00 L 968.10 531.25 Z" />
<path fill="#ffffff" opacity="1.00" d=" M 47.25 532.10 L 48.00 531.72 L 48.75 532.10 L 48.75 532.90 L 48.00 533.28 L 47.25 532.90 L 47.25 532.10 Z" />
<path fill="#ffffff" opacity="1.00" d=" M 686.24 535.24 L 686.76 535.24 L 686.76 535.76 L 686.24 535.76 L 686.24 535.24 Z" />
<path fill="#ffffff" opacity="1.00" d=" M 389.24 539.24 L 389.76 539.24 L 389.76 539.76 L 389.24 539.76 L 389.24 539.24 Z" />
<path fill="#ffffff" opacity="1.00" d=" M 385.24 542.24 L 385.76 542.24 L 385.76 542.76 L 385.24 542.76 L 385.24 542.24 Z" />
<path fill="#ffffff" opacity="1.00" d=" M 373.24 546.24 L 373.76 546.24 L 373.76 546.76 L 373.24 546.76 L 373.24 546.24 Z" />
<path fill="#ffffff" opacity="1.00" d=" M 278.24 550.24 L 278.76 550.24 L 278.76 550.76 L 278.24 550.76 L 278.24 550.24 Z" />
<path fill="#ffffff" opacity="1.00" d=" M 281.24 551.24 L 281.76 551.24 L 281.76 551.76 L 281.24 551.76 L 281.24 551.24 Z" />
<path fill="#ffffff" opacity="1.00" d=" M 368.24 552.24 L 368.76 552.24 L 368.76 552.76 L 368.24 552.76 L 368.24 552.24 Z" />
<path fill="#ffffff" opacity="1.00" d=" M 202.34 556.13 C 203.77 555.71 204.28 556.22 203.87 557.66 C 202.52 557.98 202.01 557.47 202.34 556.13 Z" />
<path fill="#ffffff" opacity="1.00" d=" M 363.24 559.24 L 363.76 559.24 L 363.76 559.76 L 363.24 559.76 L 363.24 559.24 Z" />
<path fill="#ffffff" opacity="1.00" d=" M 49.24 560.24 L 49.76 560.24 L 49.76 560.76 L 49.24 560.76 L 49.24 560.24 Z" />
<path fill="#ffffff" opacity="1.00" d=" M 48.24 562.24 L 48.76 562.24 L 48.76 562.76 L 48.24 562.76 L 48.24 562.24 Z" />
<path fill="#ffffff" opacity="1.00" d=" M 191.24 562.24 L 191.76 562.24 L 191.76 562.76 L 191.24 562.76 L 191.24 562.24 Z" />
<path fill="#ffffff" opacity="1.00" d=" M 906.24 593.24 L 906.76 593.24 L 906.76 593.76 L 906.24 593.76 L 906.24 593.24 Z" />
<path fill="#ffffff" opacity="1.00" d=" M 901.24 597.24 L 901.76 597.24 L 901.76 597.76 L 901.24 597.76 L 901.24 597.24 Z" />
<path fill="#ffffff" opacity="1.00" d=" M 746.24 602.24 L 746.76 602.24 L 746.76 602.76 L 746.24 602.76 L 746.24 602.24 Z" />
<path fill="#ffffff" opacity="1.00" d=" M 1010.34 604.87 C 1010.00 603.52 1010.51 603.01 1011.87 603.34 C 1012.27 604.77 1011.76 605.28 1010.34 604.87 Z" />
<path fill="#ffffff" opacity="1.00" d=" M 1015.24 603.24 L 1015.76 603.24 L 1015.76 603.76 L 1015.24 603.76 L 1015.24 603.24 Z" />
<path fill="#ffffff" opacity="1.00" d=" M 743.20 605.05 C 746.70 604.16 742.98 609.14 742.22 606.19 C 742.46 605.90 742.95 605.33 743.20 605.05 Z" />
<path fill="#ffffff" opacity="1.00" d=" M 807.24 605.24 L 807.76 605.24 L 807.76 605.76 L 807.24 605.76 L 807.24 605.24 Z" />
<path fill="#ffffff" opacity="1.00" d=" M 810.24 607.24 L 810.76 607.24 L 810.76 607.76 L 810.24 607.76 L 810.24 607.24 Z" />
<path fill="#ffffff" opacity="1.00" d=" M 170.24 613.24 L 170.76 613.24 L 170.76 613.76 L 170.24 613.76 L 170.24 613.24 Z" />
<path fill="#ffffff" opacity="1.00" d=" M 591.24 613.24 L 591.76 613.24 L 591.76 613.76 L 591.24 613.76 L 591.24 613.24 Z" />
<path fill="#ffffff" opacity="1.00" d=" M 737.24 614.24 L 737.76 614.24 L 737.76 614.76 L 737.24 614.76 L 737.24 614.24 Z" />
<path fill="#ffffff" opacity="1.00" d=" M 775.24 617.24 L 775.76 617.24 L 775.76 617.76 L 775.24 617.76 L 775.24 617.24 Z" />
<path fill="#ffffff" opacity="1.00" d=" M 276.24 620.24 L 276.76 620.24 L 276.76 620.76 L 276.24 620.76 L 276.24 620.24 Z" />
<path fill="#ffffff" opacity="1.00" d=" M 279.24 626.24 L 279.76 626.24 L 279.76 626.76 L 279.24 626.76 L 279.24 626.24 Z" />
<path fill="#ffffff" opacity="1.00" d=" M 279.24 628.24 L 279.76 628.24 L 279.76 628.76 L 279.24 628.76 L 279.24 628.24 Z" />
<path fill="#ffffff" opacity="1.00" d=" M 124.24 629.24 L 124.76 629.24 L 124.76 629.76 L 124.24 629.76 L 124.24 629.24 Z" />
<path fill="#ffffff" opacity="1.00" d=" M 130.24 629.24 L 130.76 629.24 L 130.76 629.76 L 130.24 629.76 L 130.24 629.24 Z" />
<path fill="#ffffff" opacity="1.00" d=" M 271.24 629.24 L 271.76 629.24 L 271.76 629.76 L 271.24 629.76 L 271.24 629.24 Z" />
<path fill="#ffffff" opacity="1.00" d=" M 123.24 636.24 L 123.76 636.24 L 123.76 636.76 L 123.24 636.76 L 123.24 636.24 Z" />
<path fill="#ffffff" opacity="1.00" d=" M 110.24 640.24 L 110.76 640.24 L 110.76 640.76 L 110.24 640.76 L 110.24 640.24 Z" />
<path fill="#ffffff" opacity="1.00" d=" M 114.24 640.24 L 114.76 640.24 L 114.76 640.76 L 114.24 640.76 L 114.24 640.24 Z" />
<path fill="#ffffff" opacity="1.00" d=" M 126.24 640.24 L 126.76 640.24 L 126.76 640.76 L 126.24 640.76 L 126.24 640.24 Z" />
<path fill="#ffffff" opacity="1.00" d=" M 546.10 640.25 L 546.90 640.25 L 547.28 641.00 L 546.90 641.75 L 546.10 641.75 L 545.72 641.00 L 546.10 640.25 Z" />
<path fill="#ffffff" opacity="1.00" d=" M 101.24 642.24 L 101.76 642.24 L 101.76 642.76 L 101.24 642.76 L 101.24 642.24 Z" />
<path fill="#ffffff" opacity="1.00" d=" M 187.24 645.24 L 187.76 645.24 L 187.76 645.76 L 187.24 645.76 L 187.24 645.24 Z" />
<path fill="#ffffff" opacity="1.00" d=" M 121.24 647.24 L 121.76 647.24 L 121.76 647.76 L 121.24 647.76 L 121.24 647.24 Z" />
<path fill="#ffffff" opacity="1.00" d=" M 192.24 648.24 L 192.76 648.24 L 192.76 648.76 L 192.24 648.76 L 192.24 648.24 Z" />
<path fill="#ffffff" opacity="1.00" d=" M 464.24 649.24 L 464.76 649.24 L 464.76 649.76 L 464.24 649.76 L 464.24 649.24 Z" />
<path fill="#ffffff" opacity="1.00" d=" M 109.24 653.24 L 109.76 653.24 L 109.76 653.76 L 109.24 653.76 L 109.24 653.24 Z" />
<path fill="#ffffff" opacity="1.00" d=" M 119.24 655.24 L 119.76 655.24 L 119.76 655.76 L 119.24 655.76 L 119.24 655.24 Z" />
<path fill="#ffffff" opacity="1.00" d=" M 36.24 656.24 L 36.76 656.24 L 36.76 656.76 L 36.24 656.76 L 36.24 656.24 Z" />
<path fill="#ffffff" opacity="1.00" d=" M 26.24 657.24 L 26.76 657.24 L 26.76 657.76 L 26.24 657.76 L 26.24 657.24 Z" />
<path fill="#ffffff" opacity="1.00" d=" M 120.24 657.24 L 120.76 657.24 L 120.76 657.76 L 120.24 657.76 L 120.24 657.24 Z" />
<path fill="#ffffff" opacity="1.00" d=" M 455.24 660.24 L 455.76 660.24 L 455.76 660.76 L 455.24 660.76 L 455.24 660.24 Z" />
<path fill="#ffffff" opacity="1.00" d=" M 622.24 664.24 L 622.76 664.24 L 622.76 664.76 L 622.24 664.76 L 622.24 664.24 Z" />
<path fill="#ffffff" opacity="1.00" d=" M 169.24 671.24 L 169.76 671.24 L 169.76 671.76 L 169.24 671.76 L 169.24 671.24 Z" />
<path fill="#ffffff" opacity="1.00" d=" M 12.25 673.10 L 13.00 672.72 L 13.75 673.10 L 13.75 673.90 L 13.00 674.28 L 12.25 673.90 L 12.25 673.10 Z" />
<path fill="#ffffff" opacity="1.00" d=" M 922.24 674.24 L 922.76 674.24 L 922.76 674.76 L 922.24 674.76 L 922.24 674.24 Z" />
<path fill="#ffffff" opacity="1.00" d=" M 12.24 676.24 L 12.76 676.24 L 12.76 676.76 L 12.24 676.76 L 12.24 676.24 Z" />
<path fill="#ffffff" opacity="1.00" d=" M 69.24 679.24 L 69.76 679.24 L 69.76 679.76 L 69.24 679.76 L 69.24 679.24 Z" />
<path fill="#ffffff" opacity="1.00" d=" M 71.24 679.24 L 71.76 679.24 L 71.76 679.76 L 71.24 679.76 L 71.24 679.24 Z" />
<path fill="#ffffff" opacity="1.00" d=" M 982.24 682.24 L 982.76 682.24 L 982.76 682.76 L 982.24 682.76 L 982.24 682.24 Z" />
<path fill="#ffffff" opacity="1.00" d=" M 74.24 685.24 L 74.76 685.24 L 74.76 685.76 L 74.24 685.76 L 74.24 685.24 Z" />
<path fill="#ffffff" opacity="1.00" d=" M 995.24 698.24 L 995.76 698.24 L 995.76 698.76 L 995.24 698.76 L 995.24 698.24 Z" />
<path fill="#ffffff" opacity="1.00" d=" M 998.24 699.24 L 998.76 699.24 L 998.76 699.76 L 998.24 699.76 L 998.24 699.24 Z" />
<path fill="#ffffff" opacity="1.00" d=" M 887.24 701.24 L 887.76 701.24 L 887.76 701.76 L 887.24 701.76 L 887.24 701.24 Z" />
<path fill="#ffffff" opacity="1.00" d=" M 352.24 704.24 L 352.76 704.24 L 352.76 704.76 L 352.24 704.76 L 352.24 704.24 Z" />
<path fill="#ffffff" opacity="1.00" d=" M 886.24 709.24 L 886.76 709.24 L 886.76 709.76 L 886.24 709.76 L 886.24 709.24 Z" />
<path fill="#ffffff" opacity="1.00" d=" M 896.24 709.24 L 896.76 709.24 L 896.76 709.76 L 896.24 709.76 L 896.24 709.24 Z" />
<path fill="#ffffff" opacity="1.00" d=" M 904.24 709.24 L 904.76 709.24 L 904.76 709.76 L 904.24 709.76 L 904.24 709.24 Z" />
<path fill="#ffffff" opacity="1.00" d=" M 896.24 711.24 L 896.76 711.24 L 896.76 711.76 L 896.24 711.76 L 896.24 711.24 Z" />
<path fill="#ffffff" opacity="1.00" d=" M 957.25 716.10 L 958.00 715.72 L 958.75 716.10 L 958.75 716.90 L 958.00 717.28 L 957.25 716.90 L 957.25 716.10 Z" />
<path fill="#ffffff" opacity="1.00" d=" M 14.24 718.24 L 14.76 718.24 L 14.76 718.76 L 14.24 718.76 L 14.24 718.24 Z" />
<path fill="#ffffff" opacity="1.00" d=" M 959.25 718.10 L 960.00 717.72 L 960.75 718.10 L 960.75 718.90 L 960.00 719.28 L 959.25 718.90 L 959.25 718.10 Z" />
<path fill="#ffffff" opacity="1.00" d=" M 21.24 720.24 L 21.76 720.24 L 21.76 720.76 L 21.24 720.76 L 21.24 720.24 Z" />
<path fill="#ffffff" opacity="1.00" d=" M 18.24 721.24 L 18.76 721.24 L 18.76 721.76 L 18.24 721.76 L 18.24 721.24 Z" />
<path fill="#ffffff" opacity="1.00" d=" M 860.24 725.24 L 860.76 725.24 L 860.76 725.76 L 860.24 725.76 L 860.24 725.24 Z" />
<path fill="#ffffff" opacity="1.00" d=" M 955.24 725.24 L 955.76 725.24 L 955.76 725.76 L 955.24 725.76 L 955.24 725.24 Z" />
<path fill="#ffffff" opacity="1.00" d=" M 823.24 728.24 L 823.76 728.24 L 823.76 728.76 L 823.24 728.76 L 823.24 728.24 Z" />
<path fill="#ffffff" opacity="1.00" d=" M 977.24 728.24 L 977.76 728.24 L 977.76 728.76 L 977.24 728.76 L 977.24 728.24 Z" />
<path fill="#ffffff" opacity="1.00" d=" M 816.24 729.24 L 816.76 729.24 L 816.76 729.76 L 816.24 729.76 L 816.24 729.24 Z" />
<path fill="#ffffff" opacity="1.00" d=" M 957.24 730.24 L 957.76 730.24 L 957.76 730.76 L 957.24 730.76 L 957.24 730.24 Z" />
<path fill="#ffffff" opacity="1.00" d=" M 535.24 731.24 L 535.76 731.24 L 535.76 731.76 L 535.24 731.76 L 535.24 731.24 Z" />
<path fill="#ffffff" opacity="1.00" d=" M 820.24 731.24 L 820.76 731.24 L 820.76 731.76 L 820.24 731.76 L 820.24 731.24 Z" />
<path fill="#ffffff" opacity="1.00" d=" M 517.34 734.87 C 517.01 733.52 517.52 733.00 518.87 733.34 C 519.28 734.76 518.77 735.28 517.34 734.87 Z" />
<path fill="#ffffff" opacity="1.00" d=" M 522.24 733.24 L 522.76 733.24 L 522.76 733.76 L 522.24 733.76 L 522.24 733.24 Z" />
<path fill="#ffffff" opacity="1.00" d=" M 858.24 733.24 L 858.76 733.24 L 858.76 733.76 L 858.24 733.76 L 858.24 733.24 Z" />
<path fill="#ffffff" opacity="1.00" d=" M 531.24 734.24 L 531.76 734.24 L 531.76 734.76 L 531.24 734.76 L 531.24 734.24 Z" />
<path fill="#ffffff" opacity="1.00" d=" M 536.16 734.16 L 537.00 733.83 L 537.84 734.16 L 538.17 735.00 L 537.84 735.84 L 537.00 736.17 L 536.16 735.84 L 535.83 735.00 L 536.16 734.16 Z" />
<path fill="#ffffff" opacity="1.00" d=" M 982.24 735.24 L 982.76 735.24 L 982.76 735.76 L 982.24 735.76 L 982.24 735.24 Z" />
<path fill="#ffffff" opacity="1.00" d=" M 539.24 737.24 L 539.76 737.24 L 539.76 737.76 L 539.24 737.76 L 539.24 737.24 Z" />
<path fill="#ffffff" opacity="1.00" d=" M 857.24 738.24 L 857.76 738.24 L 857.76 738.76 L 857.24 738.76 L 857.24 738.24 Z" />
<path fill="#ffffff" opacity="1.00" d=" M 997.24 739.24 L 997.76 739.24 L 997.76 739.76 L 997.24 739.76 L 997.24 739.24 Z" />
<path fill="#ffffff" opacity="1.00" d=" M 854.24 740.24 L 854.76 740.24 L 854.76 740.76 L 854.24 740.76 L 854.24 740.24 Z" />
<path fill="#ffffff" opacity="1.00" d=" M 952.24 766.24 L 952.76 766.24 L 952.76 766.76 L 952.24 766.76 L 952.24 766.24 Z" />
<path fill="#ffffff" opacity="1.00" d=" M 862.24 773.24 L 862.76 773.24 L 862.76 773.76 L 862.24 773.76 L 862.24 773.24 Z" />
<path fill="#ffffff" opacity="1.00" d=" M 372.24 775.24 L 372.76 775.24 L 372.76 775.76 L 372.24 775.76 L 372.24 775.24 Z" />
<path fill="#ffffff" opacity="1.00" d=" M 255.24 776.24 L 255.76 776.24 L 255.76 776.76 L 255.24 776.76 L 255.24 776.24 Z" />
<path fill="#ffffff" opacity="1.00" d=" M 240.24 779.24 L 240.76 779.24 L 240.76 779.76 L 240.24 779.76 L 240.24 779.24 Z" />
<path fill="#ffffff" opacity="1.00" d=" M 246.24 779.24 L 246.76 779.24 L 246.76 779.76 L 246.24 779.76 L 246.24 779.24 Z" />
<path fill="#ffffff" opacity="1.00" d=" M 266.24 779.24 L 266.76 779.24 L 266.76 779.76 L 266.24 779.76 L 266.24 779.24 Z" />
<path fill="#ffffff" opacity="1.00" d=" M 254.25 782.10 L 255.00 781.72 L 255.75 782.10 L 255.75 782.90 L 255.00 783.28 L 254.25 782.90 L 254.25 782.10 Z" />
<path fill="#ffffff" opacity="1.00" d=" M 248.24 784.24 L 248.76 784.24 L 248.76 784.76 L 248.24 784.76 L 248.24 784.24 Z" />
<path fill="#ffffff" opacity="1.00" d=" M 269.24 785.24 L 269.76 785.24 L 269.76 785.76 L 269.24 785.76 L 269.24 785.24 Z" />
<path fill="#ffffff" opacity="1.00" d=" M 444.24 791.24 L 444.76 791.24 L 444.76 791.76 L 444.24 791.76 L 444.24 791.24 Z" />
<path fill="#ffffff" opacity="1.00" d=" M 437.24 793.24 L 437.76 793.24 L 437.76 793.76 L 437.24 793.76 L 437.24 793.24 Z" />
<path fill="#ffffff" opacity="1.00" d=" M 424.25 795.24 C 424.67 795.12 425.50 794.89 425.92 794.77 C 428.65 795.67 424.21 798.72 423.97 795.99 L 424.25 795.24 Z" />
<path fill="#ffffff" opacity="1.00" d=" M 436.24 795.24 L 436.76 795.24 L 436.76 795.76 L 436.24 795.76 L 436.24 795.24 Z" />
<path fill="#ffffff" opacity="1.00" d=" M 436.24 797.24 L 436.76 797.24 L 436.76 797.76 L 436.24 797.76 L 436.24 797.24 Z" />
<path fill="#ffffff" opacity="1.00" d=" M 431.24 798.24 L 431.76 798.24 L 431.76 798.76 L 431.24 798.76 L 431.24 798.24 Z" />
<path fill="#ffffff" opacity="1.00" d=" M 412.24 802.24 L 412.76 802.24 L 412.76 802.76 L 412.24 802.76 L 412.24 802.24 Z" />
<path fill="#ffffff" opacity="1.00" d=" M 233.24 828.24 L 233.76 828.24 L 233.76 828.76 L 233.24 828.76 L 233.24 828.24 Z" />
<path fill="#ffffff" opacity="1.00" d=" M 202.24 829.24 L 202.76 829.24 L 202.76 829.76 L 202.24 829.76 L 202.24 829.24 Z" />
<path fill="#ffffff" opacity="1.00" d=" M 209.24 829.24 L 209.76 829.24 L 209.76 829.76 L 209.24 829.76 L 209.24 829.24 Z" />
<path fill="#ffffff" opacity="1.00" d=" M 229.24 829.24 L 229.76 829.24 L 229.76 829.76 L 229.24 829.76 L 229.24 829.24 Z" />
<path fill="#ffffff" opacity="1.00" d=" M 181.24 830.24 L 181.76 830.24 L 181.76 830.76 L 181.24 830.76 L 181.24 830.24 Z" />
<path fill="#ffffff" opacity="1.00" d=" M 187.24 830.24 L 187.76 830.24 L 187.76 830.76 L 187.24 830.76 L 187.24 830.24 Z" />
<path fill="#ffffff" opacity="1.00" d=" M 226.24 830.24 L 226.76 830.24 L 226.76 830.76 L 226.24 830.76 L 226.24 830.24 Z" />
<path fill="#ffffff" opacity="1.00" d=" M 231.24 831.24 L 231.76 831.24 L 231.76 831.76 L 231.24 831.76 L 231.24 831.24 Z" />
<path fill="#ffffff" opacity="1.00" d=" M 228.24 833.24 L 228.76 833.24 L 228.76 833.76 L 228.24 833.76 L 228.24 833.24 Z" />
<path fill="#ffffff" opacity="1.00" d=" M 222.24 836.24 L 222.76 836.24 L 222.76 836.76 L 222.24 836.76 L 222.24 836.24 Z" />
<path fill="#ffffff" opacity="1.00" d=" M 96.24 847.24 L 96.76 847.24 L 96.76 847.76 L 96.24 847.76 L 96.24 847.24 Z" />
<path fill="#ffffff" opacity="1.00" d=" M 106.24 847.24 L 106.76 847.24 L 106.76 847.76 L 106.24 847.76 L 106.24 847.24 Z" />
<path fill="#ffffff" opacity="1.00" d=" M 20.25 849.10 L 21.00 848.72 L 21.75 849.10 L 21.75 849.90 L 21.00 850.28 L 20.25 849.90 L 20.25 849.10 Z" />
<path fill="#ffffff" opacity="1.00" d=" M 88.24 849.24 L 88.76 849.24 L 88.76 849.76 L 88.24 849.76 L 88.24 849.24 Z" />
<path fill="#ffffff" opacity="1.00" d=" M 88.24 854.24 L 88.76 854.24 L 88.76 854.76 L 88.24 854.76 L 88.24 854.24 Z" />
<path fill="#ffffff" opacity="1.00" d=" M 84.24 855.24 L 84.76 855.24 L 84.76 855.76 L 84.24 855.76 L 84.24 855.24 Z" />
<path fill="#ffffff" opacity="1.00" d=" M 87.24 856.24 L 87.76 856.24 L 87.76 856.76 L 87.24 856.76 L 87.24 856.24 Z" />
<path fill="#ffffff" opacity="1.00" d=" M 87.24 862.24 L 87.76 862.24 L 87.76 862.76 L 87.24 862.76 L 87.24 862.24 Z" />
<path fill="#ffffff" opacity="1.00" d=" M 989.24 874.24 L 989.76 874.24 L 989.76 874.76 L 989.24 874.76 L 989.24 874.24 Z" />
<path fill="#ffffff" opacity="1.00" d=" M 1003.24 877.24 L 1003.76 877.24 L 1003.76 877.76 L 1003.24 877.76 L 1003.24 877.24 Z" />
<path fill="#ffffff" opacity="1.00" d=" M 988.24 878.24 L 988.76 878.24 L 988.76 878.76 L 988.24 878.76 L 988.24 878.24 Z" />
<path fill="#ffffff" opacity="1.00" d=" M 1012.24 880.24 L 1012.76 880.24 L 1012.76 880.76 L 1012.24 880.76 L 1012.24 880.24 Z" />
<path fill="#ffffff" opacity="1.00" d=" M 1007.24 881.24 L 1007.76 881.24 L 1007.76 881.76 L 1007.24 881.76 L 1007.24 881.24 Z" />
<path fill="#ffffff" opacity="1.00" d=" M 613.24 898.24 L 613.76 898.24 L 613.76 898.76 L 613.24 898.76 L 613.24 898.24 Z" />
<path fill="#ffffff" opacity="1.00" d=" M 578.24 899.24 L 578.76 899.24 L 578.76 899.76 L 578.24 899.76 L 578.24 899.24 Z" />
<path fill="#ffffff" opacity="1.00" d=" M 593.24 899.24 L 593.76 899.24 L 593.76 899.76 L 593.24 899.76 L 593.24 899.24 Z" />
<path fill="#ffffff" opacity="1.00" d=" M 567.24 902.24 L 567.76 902.24 L 567.76 902.76 L 567.24 902.76 L 567.24 902.24 Z" />
<path fill="#ffffff" opacity="1.00" d=" M 585.24 902.24 L 585.76 902.24 L 585.76 902.76 L 585.24 902.76 L 585.24 902.24 Z" />
<path fill="#ffffff" opacity="1.00" d=" M 580.24 903.24 L 580.76 903.24 L 580.76 903.76 L 580.24 903.76 L 580.24 903.24 Z" />
<path fill="#ffffff" opacity="1.00" d=" M 633.24 903.24 L 633.76 903.24 L 633.76 903.76 L 633.24 903.76 L 633.24 903.24 Z" />
<path fill="#ffffff" opacity="1.00" d=" M 578.24 907.24 L 578.76 907.24 L 578.76 907.76 L 578.24 907.76 L 578.24 907.24 Z" />
<path fill="#ffffff" opacity="1.00" d=" M 592.24 908.24 L 592.76 908.24 L 592.76 908.76 L 592.24 908.76 L 592.24 908.24 Z" />
<path fill="#ffffff" opacity="1.00" d=" M 621.24 909.24 L 621.76 909.24 L 621.76 909.76 L 621.24 909.76 L 621.24 909.24 Z" />
<path fill="#ffffff" opacity="1.00" d=" M 449.24 911.24 L 449.76 911.24 L 449.76 911.76 L 449.24 911.76 L 449.24 911.24 Z" />
<path fill="#ffffff" opacity="1.00" d=" M 455.24 916.24 L 455.76 916.24 L 455.76 916.76 L 455.24 916.76 L 455.24 916.24 Z" />
<path fill="#ffffff" opacity="1.00" d=" M 967.24 916.24 L 967.76 916.24 L 967.76 916.76 L 967.24 916.76 L 967.24 916.24 Z" />
<path fill="#ffffff" opacity="1.00" d=" M 418.24 943.24 L 418.76 943.24 L 418.76 943.76 L 418.24 943.76 L 418.24 943.24 Z" />
<path fill="#ffffff" opacity="1.00" d=" M 406.25 946.10 L 407.00 945.72 L 407.75 946.10 L 407.75 946.90 L 407.00 947.28 L 406.25 946.90 L 406.25 946.10 Z" />
<path fill="#ffffff" opacity="1.00" d=" M 432.24 946.24 L 432.76 946.24 L 432.76 946.76 L 432.24 946.76 L 432.24 946.24 Z" />
<path fill="#ffffff" opacity="1.00" d=" M 443.24 946.24 L 443.76 946.24 L 443.76 946.76 L 443.24 946.76 L 443.24 946.24 Z" />
<path fill="#ffffff" opacity="1.00" d=" M 391.25 947.10 L 392.00 946.72 L 392.75 947.10 L 392.75 947.90 L 392.00 948.28 L 391.25 947.90 L 391.25 947.10 Z" />
<path fill="#ffffff" opacity="1.00" d=" M 437.24 948.24 L 437.76 948.24 L 437.76 948.76 L 437.24 948.76 L 437.24 948.24 Z" />
<path fill="#ffffff" opacity="1.00" d=" M 402.24 949.24 L 402.76 949.24 L 402.76 949.76 L 402.24 949.76 L 402.24 949.24 Z" />
<path fill="#ffffff" opacity="1.00" d=" M 432.24 949.24 L 432.76 949.24 L 432.76 949.76 L 432.24 949.76 L 432.24 949.24 Z" />
<path fill="#ffffff" opacity="1.00" d=" M 527.24 949.24 L 527.76 949.24 L 527.76 949.76 L 527.24 949.76 L 527.24 949.24 Z" />
<path fill="#ffffff" opacity="1.00" d=" M 405.24 952.24 L 405.76 952.24 L 405.76 952.76 L 405.24 952.76 L 405.24 952.24 Z" />
<path fill="#ffffff" opacity="1.00" d=" M 431.24 952.24 L 431.76 952.24 L 431.76 952.76 L 431.24 952.76 L 431.24 952.24 Z" />
<path fill="#ffffff" opacity="1.00" d=" M 427.24 958.24 L 427.76 958.24 L 427.76 958.76 L 427.24 958.76 L 427.24 958.24 Z" />
<path fill="#ffffff" opacity="1.00" d=" M 430.24 958.24 L 430.76 958.24 L 430.76 958.76 L 430.24 958.76 L 430.24 958.24 Z" />
<path fill="#ffffff" opacity="1.00" d=" M 683.24 958.24 L 683.76 958.24 L 683.76 958.76 L 683.24 958.76 L 683.24 958.24 Z" />
<path fill="#ffffff" opacity="1.00" d=" M 658.24 959.24 L 658.76 959.24 L 658.76 959.76 L 658.24 959.76 L 658.24 959.24 Z" />
<path fill="#ffffff" opacity="1.00" d=" M 67.24 960.24 L 67.76 960.24 L 67.76 960.76 L 67.24 960.76 L 67.24 960.24 Z" />
<path fill="#ffffff" opacity="1.00" d=" M 753.24 960.24 L 753.76 960.24 L 753.76 960.76 L 753.24 960.76 L 753.24 960.24 Z" />
<path fill="#ffffff" opacity="1.00" d=" M 675.24 961.24 L 675.76 961.24 L 675.76 961.76 L 675.24 961.76 L 675.24 961.24 Z" />
<path fill="#ffffff" opacity="1.00" d=" M 666.24 964.24 L 666.76 964.24 L 666.76 964.76 L 666.24 964.76 L 666.24 964.24 Z" />
<path fill="#ffffff" opacity="1.00" d=" M 465.24 965.24 L 465.76 965.24 L 465.76 965.76 L 465.24 965.76 L 465.24 965.24 Z" />
<path fill="#ffffff" opacity="1.00" d=" M 653.24 970.24 L 653.76 970.24 L 653.76 970.76 L 653.24 970.76 L 653.24 970.24 Z" />
<path fill="#ffffff" opacity="1.00" d=" M 782.24 974.24 L 782.76 974.24 L 782.76 974.76 L 782.24 974.76 L 782.24 974.24 Z" />
<path fill="#ffffff" opacity="1.00" d=" M 567.24 984.24 L 567.76 984.24 L 567.76 984.76 L 567.24 984.76 L 567.24 984.24 Z" />
<path fill="#ffffff" opacity="1.00" d=" M 823.24 984.24 L 823.76 984.24 L 823.76 984.76 L 823.24 984.76 L 823.24 984.24 Z" />
<path fill="#ffffff" opacity="1.00" d=" M 560.24 985.24 L 560.76 985.24 L 560.76 985.76 L 560.24 985.76 L 560.24 985.24 Z" />
<path fill="#ffffff" opacity="1.00" d=" M 588.24 986.24 L 588.76 986.24 L 588.76 986.76 L 588.24 986.76 L 588.24 986.24 Z" />
<path fill="#ffffff" opacity="1.00" d=" M 844.24 986.24 L 844.76 986.24 L 844.76 986.76 L 844.24 986.76 L 844.24 986.24 Z" />
<path fill="#ffffff" opacity="1.00" d=" M 564.24 987.24 L 564.76 987.24 L 564.76 987.76 L 564.24 987.76 L 564.24 987.24 Z" />
<path fill="#ffffff" opacity="1.00" d=" M 820.24 987.24 L 820.76 987.24 L 820.76 987.76 L 820.24 987.76 L 820.24 987.24 Z" />
<path fill="#ffffff" opacity="1.00" d=" M 314.24 988.24 L 314.76 988.24 L 314.76 988.76 L 314.24 988.76 L 314.24 988.24 Z" />
<path fill="#ffffff" opacity="1.00" d=" M 319.24 988.24 L 319.76 988.24 L 319.76 988.76 L 319.24 988.76 L 319.24 988.24 Z" />
<path fill="#ffffff" opacity="1.00" d=" M 570.24 988.24 L 570.76 988.24 L 570.76 988.76 L 570.24 988.76 L 570.24 988.24 Z" />
<path fill="#ffffff" opacity="1.00" d=" M 575.24 988.24 L 575.76 988.24 L 575.76 988.76 L 575.24 988.76 L 575.24 988.24 Z" />
<path fill="#ffffff" opacity="1.00" d=" M 826.24 988.24 L 826.76 988.24 L 826.76 988.76 L 826.24 988.76 L 826.24 988.24 Z" />
<path fill="#ffffff" opacity="1.00" d=" M 831.24 988.24 L 831.76 988.24 L 831.76 988.76 L 831.24 988.76 L 831.24 988.24 Z" />
<path fill="#ffffff" opacity="1.00" d=" M 330.24 990.24 L 330.76 990.24 L 330.76 990.76 L 330.24 990.76 L 330.24 990.24 Z" />
<path fill="#ffffff" opacity="1.00" d=" M 333.25 990.10 L 334.00 989.72 L 334.75 990.10 L 334.75 990.90 L 334.00 991.28 L 333.25 990.90 L 333.25 990.10 Z" />
<path fill="#ffffff" opacity="1.00" d=" M 586.24 990.24 L 586.76 990.24 L 586.76 990.76 L 586.24 990.76 L 586.24 990.24 Z" />
<path fill="#ffffff" opacity="1.00" d=" M 589.25 990.10 L 590.00 989.72 L 590.75 990.10 L 590.75 990.90 L 590.00 991.28 L 589.25 990.90 L 589.25 990.10 Z" />
<path fill="#ffffff" opacity="1.00" d=" M 842.24 990.24 L 842.76 990.24 L 842.76 990.76 L 842.24 990.76 L 842.24 990.24 Z" />
<path fill="#ffffff" opacity="1.00" d=" M 845.25 990.10 L 846.00 989.72 L 846.75 990.10 L 846.75 990.90 L 846.00 991.28 L 845.25 990.90 L 845.25 990.10 Z" />
<path fill="#ffffff" opacity="1.00" d=" M 675.24 992.24 L 675.76 992.24 L 675.76 992.76 L 675.24 992.76 L 675.24 992.24 Z" />
<path fill="#ffffff" opacity="1.00" d=" M 216.24 994.24 L 216.76 994.24 L 216.76 994.76 L 216.24 994.76 L 216.24 994.24 Z" />
<path fill="#ffffff" opacity="1.00" d=" M 4.24 995.24 L 4.76 995.24 L 4.76 995.76 L 4.24 995.76 L 4.24 995.24 Z" />
<path fill="#ffffff" opacity="1.00" d=" M 811.24 1006.24 L 811.76 1006.24 L 811.76 1006.76 L 811.24 1006.76 L 811.24 1006.24 Z" />
<path fill="#ffffff" opacity="1.00" d=" M 777.24 1012.24 L 777.76 1012.24 L 777.76 1012.76 L 777.24 1012.76 L 777.24 1012.24 Z" />
<path fill="#ffffff" opacity="1.00" d=" M 1022.24 1012.24 L 1022.76 1012.24 L 1022.76 1012.76 L 1022.24 1012.76 L 1022.24 1012.24 Z" />
<path fill="#ffffff" opacity="1.00" d=" M 1021.24 1015.24 L 1021.76 1015.24 L 1021.76 1015.76 L 1021.24 1015.76 L 1021.24 1015.24 Z" />
<path fill="#ffffff" opacity="1.00" d=" M 174.24 1017.24 L 174.76 1017.24 L 174.76 1017.76 L 174.24 1017.76 L 174.24 1017.24 Z" />
<path fill="#ffffff" opacity="1.00" d=" M 505.24 1018.24 L 505.76 1018.24 L 505.76 1018.76 L 505.24 1018.76 L 505.24 1018.24 Z" />
<path fill="#ffffff" opacity="1.00" d=" M 1017.24 1018.24 L 1017.76 1018.24 L 1017.76 1018.76 L 1017.24 1018.76 L 1017.24 1018.24 Z" />
<path fill="#ffffff" opacity="1.00" d=" M 776.24 1020.24 L 776.76 1020.24 L 776.76 1020.76 L 776.24 1020.76 L 776.24 1020.24 Z" />
<path fill="#ffffff" opacity="1.00" d=" M 952.24 1022.24 L 952.76 1022.24 L 952.76 1022.76 L 952.24 1022.76 L 952.24 1022.24 Z" />
</g>
</svg>
