<?xml version="1.0" encoding="UTF-8" ?>
<!DOCTYPE svg PUBLIC "-//W3C//DTD SVG 1.1//EN" "http://www.w3.org/Graphics/SVG/1.1/DTD/svg11.dtd">
<svg width="1024pt" height="1024pt" viewBox="0 0 1024 1024" version="1.1" xmlns="http://www.w3.org/2000/svg">
<g id="#000000ff">
</g>
<g id="#ffffffff">
<path fill="#ffffff" opacity="1.00" d=" M 72.24 2.24 L 72.76 2.24 L 72.76 2.76 L 72.24 2.76 L 72.24 2.24 Z" />
<path fill="#ffffff" opacity="1.00" d=" M 328.24 2.24 L 328.76 2.24 L 328.76 2.76 L 328.24 2.76 L 328.24 2.24 Z" />
<path fill="#ffffff" opacity="1.00" d=" M 82.24 3.24 L 82.76 3.24 L 82.76 3.76 L 82.24 3.76 L 82.24 3.24 Z" />
<path fill="#ffffff" opacity="1.00" d=" M 250.16 3.16 L 251.00 2.83 L 251.84 3.16 L 252.17 4.00 L 251.84 4.84 L 251.00 5.17 L 250.16 4.84 L 249.83 4.00 L 250.16 3.16 Z" />
<path fill="#ffffff" opacity="1.00" d=" M 1018.16 3.16 L 1019.00 2.83 L 1019.84 3.16 L 1020.17 4.00 L 1019.84 4.84 L 1019.00 5.17 L 1018.16 4.84 L 1017.83 4.00 L 1018.16 3.16 Z" />
<path fill="#ffffff" opacity="1.00" d=" M 248.24 4.24 L 248.76 4.24 L 248.76 4.76 L 248.24 4.76 L 248.24 4.24 Z" />
<path fill="#ffffff" opacity="1.00" d=" M 1016.24 4.24 L 1016.76 4.24 L 1016.76 4.76 L 1016.24 4.76 L 1016.24 4.24 Z" />
<path fill="#ffffff" opacity="1.00" d=" M 263.24 6.24 L 263.76 6.24 L 263.76 6.76 L 263.24 6.76 L 263.24 6.24 Z" />
<path fill="#ffffff" opacity="1.00" d=" M 82.24 7.24 L 82.76 7.24 L 82.76 7.76 L 82.24 7.76 L 82.24 7.24 Z" />
<path fill="#ffffff" opacity="1.00" d=" M 888.24 7.24 L 888.76 7.24 L 888.76 7.76 L 888.24 7.76 L 888.24 7.24 Z" />
<path fill="#ffffff" opacity="1.00" d=" M 259.24 9.24 L 259.76 9.24 L 259.76 9.76 L 259.24 9.76 L 259.24 9.24 Z" />
<path fill="#ffffff" opacity="1.00" d=" M 66.24 12.24 L 66.76 12.24 L 66.76 12.76 L 66.24 12.76 L 66.24 12.24 Z" />
<path fill="#ffffff" opacity="1.00" d=" M 247.24 12.24 L 247.76 12.24 L 247.76 12.76 L 247.24 12.76 L 247.24 12.24 Z" />
<path fill="#ffffff" opacity="1.00" d=" M 258.24 12.24 L 258.76 12.24 L 258.76 12.76 L 258.24 12.76 L 258.24 12.24 Z" />
<path fill="#ffffff" opacity="1.00" d=" M 884.24 12.24 L 884.76 12.24 L 884.76 12.76 L 884.24 12.76 L 884.24 12.24 Z" />
<path fill="#ffffff" opacity="1.00" d=" M 1015.24 12.24 L 1015.76 12.24 L 1015.76 12.76 L 1015.24 12.76 L 1015.24 12.24 Z" />
<path fill="#ffffff" opacity="1.00" d=" M 84.24 13.24 L 84.76 13.24 L 84.76 13.76 L 84.24 13.76 L 84.24 13.24 Z" />
<path fill="#ffffff" opacity="1.00" d=" M 694.24 14.24 L 694.76 14.24 L 694.76 14.76 L 694.24 14.76 L 694.24 14.24 Z" />
<path fill="#ffffff" opacity="1.00" d=" M 179.24 16.24 L 179.76 16.24 L 179.76 16.76 L 179.24 16.76 L 179.24 16.24 Z" />
<path fill="#ffffff" opacity="1.00" d=" M 691.24 16.24 L 691.76 16.24 L 691.76 16.76 L 691.24 16.76 L 691.24 16.24 Z" />
<path fill="#ffffff" opacity="1.00" d=" M 55.24 18.24 L 55.76 18.24 L 55.76 18.76 L 55.24 18.76 L 55.24 18.24 Z" />
<path fill="#ffffff" opacity="1.00" d=" M 213.24 18.24 L 213.76 18.24 L 213.76 18.76 L 213.24 18.76 L 213.24 18.24 Z" />
<path fill="#ffffff" opacity="1.00" d=" M 981.24 18.24 L 981.76 18.24 L 981.76 18.76 L 981.24 18.76 L 981.24 18.24 Z" />
<path fill="#ffffff" opacity="1.00" d=" M 61.24 23.24 L 61.76 23.24 L 61.76 23.76 L 61.24 23.76 L 61.24 23.24 Z" />
<path fill="#ffffff" opacity="1.00" d=" M 829.24 23.24 L 829.76 23.24 L 829.76 23.76 L 829.24 23.76 L 829.24 23.24 Z" />
<path fill="#ffffff" opacity="1.00" d=" M 688.24 26.24 L 688.76 26.24 L 688.76 26.76 L 688.24 26.76 L 688.24 26.24 Z" />
<path fill="#ffffff" opacity="1.00" d=" M 944.24 26.24 L 944.76 26.24 L 944.76 26.76 L 944.24 26.76 L 944.24 26.24 Z" />
<path fill="#ffffff" opacity="1.00" d=" M 631.24 28.24 L 631.76 28.24 L 631.76 28.76 L 631.24 28.76 L 631.24 28.24 Z" />
<path fill="#ffffff" opacity="1.00" d=" M 682.24 28.24 L 682.76 28.24 L 682.76 28.76 L 682.24 28.76 L 682.24 28.24 Z" />
<path fill="#ffffff" opacity="1.00" d=" M 938.24 28.24 L 938.76 28.24 L 938.76 28.76 L 938.24 28.76 L 938.24 28.24 Z" />
<path fill="#ffffff" opacity="1.00" d=" M 679.24 30.24 L 679.76 30.24 L 679.76 30.76 L 679.24 30.76 L 679.24 30.24 Z" />
<path fill="#ffffff" opacity="1.00" d=" M 627.24 32.24 L 627.76 32.24 L 627.76 32.76 L 627.24 32.76 L 627.24 32.24 Z" />
<path fill="#ffffff" opacity="1.00" d=" M 298.24 33.24 L 298.76 33.24 L 298.76 33.76 L 298.24 33.76 L 298.24 33.24 Z" />
<path fill="#ffffff" opacity="1.00" d=" M 631.24 33.24 L 631.76 33.24 L 631.76 33.76 L 631.24 33.76 L 631.24 33.24 Z" />
<path fill="#ffffff" opacity="1.00" d=" M 690.25 34.10 L 691.00 33.72 L 691.75 34.10 L 691.75 34.90 L 691.00 35.28 L 690.25 34.90 L 690.25 34.10 Z" />
<path fill="#ffffff" opacity="1.00" d=" M 694.24 34.24 L 694.76 34.24 L 694.76 34.76 L 694.24 34.76 L 694.24 34.24 Z" />
<path fill="#ffffff" opacity="1.00" d=" M 616.24 38.24 L 616.76 38.24 L 616.76 38.76 L 616.24 38.76 L 616.24 38.24 Z" />
<path fill="#ffffff" opacity="1.00" d=" M 608.24 39.24 L 608.76 39.24 L 608.76 39.76 L 608.24 39.76 L 608.24 39.24 Z" />
<path fill="#ffffff" opacity="1.00" d=" M 720.24 39.24 L 720.76 39.24 L 720.76 39.76 L 720.24 39.76 L 720.24 39.24 Z" />
<path fill="#ffffff" opacity="1.00" d=" M 991.24 43.24 L 991.76 43.24 L 991.76 43.76 L 991.24 43.76 L 991.24 43.24 Z" />
<path fill="#ffffff" opacity="1.00" d=" M 604.24 46.24 L 604.76 46.24 L 604.76 46.76 L 604.24 46.76 L 604.24 46.24 Z" />
<path fill="#ffffff" opacity="1.00" d=" M 993.24 46.24 L 993.76 46.24 L 993.76 46.76 L 993.24 46.76 L 993.24 46.24 Z" />
<path fill="#ffffff" opacity="1.00" d=" M 533.24 47.24 L 533.76 47.24 L 533.76 47.76 L 533.24 47.76 L 533.24 47.24 Z" />
<path fill="#ffffff" opacity="1.00" d=" M 716.25 47.10 L 717.00 46.72 L 717.75 47.10 L 717.75 47.90 L 717.00 48.28 L 716.25 47.90 L 716.25 47.10 Z" />
<path fill="#ffffff" opacity="1.00" d=" M 1006.24 47.24 L 1006.76 47.24 L 1006.76 47.76 L 1006.24 47.76 L 1006.24 47.24 Z" />
<path fill="#ffffff" opacity="1.00" d=" M 256.24 48.24 L 256.76 48.24 L 256.76 48.76 L 256.24 48.76 L 256.24 48.24 Z" />
<path fill="#ffffff" opacity="1.00" d=" M 1003.24 48.24 L 1003.76 48.24 L 1003.76 48.76 L 1003.24 48.76 L 1003.24 48.24 Z" />
<path fill="#ffffff" opacity="1.00" d=" M 615.24 49.24 L 615.76 49.24 L 615.76 49.76 L 615.24 49.76 L 615.24 49.24 Z" />
<path fill="#ffffff" opacity="1.00" d=" M 1010.24 50.24 L 1010.76 50.24 L 1010.76 50.76 L 1010.24 50.76 L 1010.24 50.24 Z" />
<path fill="#ffffff" opacity="1.00" d=" M 526.24 52.24 L 526.76 52.24 L 526.76 52.76 L 526.24 52.76 L 526.24 52.24 Z" />
<path fill="#ffffff" opacity="1.00" d=" M 627.24 54.24 L 627.76 54.24 L 627.76 54.76 L 627.24 54.76 L 627.24 54.24 Z" />
<path fill="#ffffff" opacity="1.00" d=" M 517.24 56.24 L 517.76 56.24 L 517.76 56.76 L 517.24 56.76 L 517.24 56.24 Z" />
<path fill="#ffffff" opacity="1.00" d=" M 614.24 60.24 L 614.76 60.24 L 614.76 60.76 L 614.24 60.76 L 614.24 60.24 Z" />
<path fill="#ffffff" opacity="1.00" d=" M 666.24 60.24 L 666.76 60.24 L 666.76 60.76 L 666.24 60.76 L 666.24 60.24 Z" />
<path fill="#ffffff" opacity="1.00" d=" M 514.24 62.24 L 514.76 62.24 L 514.76 62.76 L 514.24 62.76 L 514.24 62.24 Z" />
<path fill="#ffffff" opacity="1.00" d=" M 833.24 62.24 L 833.76 62.24 L 833.76 62.76 L 833.24 62.76 L 833.24 62.24 Z" />
<path fill="#ffffff" opacity="1.00" d=" M 605.24 63.24 L 605.76 63.24 L 605.76 63.76 L 605.24 63.76 L 605.24 63.24 Z" />
<path fill="#ffffff" opacity="1.00" d=" M 972.24 63.24 L 972.76 63.24 L 972.76 63.76 L 972.24 63.76 L 972.24 63.24 Z" />
<path fill="#ffffff" opacity="1.00" d=" M 511.24 64.24 L 511.76 64.24 L 511.76 64.76 L 511.24 64.76 L 511.24 64.24 Z" />
<path fill="#ffffff" opacity="1.00" d=" M 957.13 64.34 C 958.46 64.01 958.97 64.52 958.66 65.87 C 957.21 66.28 956.70 65.77 957.13 64.34 Z" />
<path fill="#ffffff" opacity="1.00" d=" M 622.24 65.24 L 622.76 65.24 L 622.76 65.76 L 622.24 65.76 L 622.24 65.24 Z" />
<path fill="#ffffff" opacity="1.00" d=" M 82.24 66.24 L 82.76 66.24 L 82.76 66.76 L 82.24 66.76 L 82.24 66.24 Z" />
<path fill="#ffffff" opacity="1.00" d=" M 85.24 66.24 L 85.76 66.24 L 85.76 66.76 L 85.24 66.76 L 85.24 66.24 Z" />
<path fill="#ffffff" opacity="1.00" d=" M 507.24 66.24 L 507.76 66.24 L 507.76 66.76 L 507.24 66.76 L 507.24 66.24 Z" />
<path fill="#ffffff" opacity="1.00" d=" M 594.24 66.24 L 594.76 66.24 L 594.76 66.76 L 594.24 66.76 L 594.24 66.24 Z" />
<path fill="#ffffff" opacity="1.00" d=" M 597.24 66.24 L 597.76 66.24 L 597.76 66.76 L 597.24 66.76 L 597.24 66.24 Z" />
<path fill="#ffffff" opacity="1.00" d=" M 942.24 67.24 L 942.76 67.24 L 942.76 67.76 L 942.24 67.76 L 942.24 67.24 Z" />
<path fill="#ffffff" opacity="1.00" d=" M 972.24 68.24 L 972.76 68.24 L 972.76 68.76 L 972.24 68.76 L 972.24 68.24 Z" />
<path fill="#ffffff" opacity="1.00" d=" M 948.24 69.24 L 948.76 69.24 L 948.76 69.76 L 948.24 69.76 L 948.24 69.24 Z" />
<path fill="#ffffff" opacity="1.00" d=" M 945.24 70.24 L 945.76 70.24 L 945.76 70.76 L 945.24 70.76 L 945.24 70.24 Z" />
<path fill="#ffffff" opacity="1.00" d=" M 966.24 71.24 L 966.76 71.24 L 966.76 71.76 L 966.24 71.76 L 966.24 71.24 Z" />
<path fill="#ffffff" opacity="1.00" d=" M 81.24 72.24 L 81.76 72.24 L 81.76 72.76 L 81.24 72.76 L 81.24 72.24 Z" />
<path fill="#ffffff" opacity="1.00" d=" M 593.24 72.24 L 593.76 72.24 L 593.76 72.76 L 593.24 72.76 L 593.24 72.24 Z" />
<path fill="#ffffff" opacity="1.00" d=" M 619.24 72.24 L 619.76 72.24 L 619.76 72.76 L 619.24 72.76 L 619.24 72.24 Z" />
<path fill="#ffffff" opacity="1.00" d=" M 80.24 75.24 L 80.76 75.24 L 80.76 75.76 L 80.24 75.76 L 80.24 75.24 Z" />
<path fill="#ffffff" opacity="1.00" d=" M 592.24 75.24 L 592.76 75.24 L 592.76 75.76 L 592.24 75.76 L 592.24 75.24 Z" />
<path fill="#ffffff" opacity="1.00" d=" M 622.24 75.24 L 622.76 75.24 L 622.76 75.76 L 622.24 75.76 L 622.24 75.24 Z" />
<path fill="#ffffff" opacity="1.00" d=" M 75.24 76.24 L 75.76 76.24 L 75.76 76.76 L 75.24 76.76 L 75.24 76.24 Z" />
<path fill="#ffffff" opacity="1.00" d=" M 777.13 76.34 C 778.46 76.01 778.98 76.52 778.66 77.87 C 777.22 78.28 776.70 77.77 777.13 76.34 Z" />
<path fill="#ffffff" opacity="1.00" d=" M 1021.24 76.24 L 1021.76 76.24 L 1021.76 76.76 L 1021.24 76.76 L 1021.24 76.24 Z" />
<path fill="#ffffff" opacity="1.00" d=" M 771.24 77.24 L 771.76 77.24 L 771.76 77.76 L 771.24 77.76 L 771.24 77.24 Z" />
<path fill="#ffffff" opacity="1.00" d=" M 69.24 78.24 L 69.76 78.24 L 69.76 78.76 L 69.24 78.76 L 69.24 78.24 Z" />
<path fill="#ffffff" opacity="1.00" d=" M 80.24 78.24 L 80.76 78.24 L 80.76 78.76 L 80.24 78.76 L 80.24 78.24 Z" />
<path fill="#ffffff" opacity="1.00" d=" M 592.24 78.24 L 592.76 78.24 L 592.76 78.76 L 592.24 78.76 L 592.24 78.24 Z" />
<path fill="#ffffff" opacity="1.00" d=" M 617.25 78.10 L 618.00 77.72 L 618.75 78.10 L 618.75 78.90 L 618.00 79.28 L 617.25 78.90 L 617.25 78.10 Z" />
<path fill="#ffffff" opacity="1.00" d=" M 773.24 78.24 L 773.76 78.24 L 773.76 78.76 L 773.24 78.76 L 773.24 78.24 Z" />
<path fill="#ffffff" opacity="1.00" d=" M 63.24 79.24 L 63.76 79.24 L 63.76 79.76 L 63.24 79.76 L 63.24 79.24 Z" />
<path fill="#ffffff" opacity="1.00" d=" M 763.24 79.24 L 763.76 79.24 L 763.76 79.76 L 763.24 79.76 L 763.24 79.24 Z" />
<path fill="#ffffff" opacity="1.00" d=" M 1019.24 79.24 L 1019.76 79.24 L 1019.76 79.76 L 1019.24 79.76 L 1019.24 79.24 Z" />
<path fill="#ffffff" opacity="1.00" d=" M 769.24 80.24 L 769.76 80.24 L 769.76 80.76 L 769.24 80.76 L 769.24 80.24 Z" />
<path fill="#ffffff" opacity="1.00" d=" M 791.24 81.24 L 791.76 81.24 L 791.76 81.76 L 791.24 81.76 L 791.24 81.24 Z" />
<path fill="#ffffff" opacity="1.00" d=" M 759.24 82.24 L 759.76 82.24 L 759.76 82.76 L 759.24 82.76 L 759.24 82.24 Z" />
<path fill="#ffffff" opacity="1.00" d=" M 788.24 82.24 L 788.76 82.24 L 788.76 82.76 L 788.24 82.76 L 788.24 82.24 Z" />
<path fill="#ffffff" opacity="1.00" d=" M 1015.24 82.24 L 1015.76 82.24 L 1015.76 82.76 L 1015.24 82.76 L 1015.24 82.24 Z" />
<path fill="#ffffff" opacity="1.00" d=" M 70.24 83.24 L 70.76 83.24 L 70.76 83.76 L 70.24 83.76 L 70.24 83.24 Z" />
<path fill="#ffffff" opacity="1.00" d=" M 62.24 84.24 L 62.76 84.24 L 62.76 84.76 L 62.24 84.76 L 62.24 84.24 Z" />
<path fill="#ffffff" opacity="1.00" d=" M 994.24 84.24 L 994.76 84.24 L 994.76 84.76 L 994.24 84.76 L 994.24 84.24 Z" />
<path fill="#ffffff" opacity="1.00" d=" M 69.24 86.24 L 69.76 86.24 L 69.76 86.76 L 69.24 86.76 L 69.24 86.24 Z" />
<path fill="#ffffff" opacity="1.00" d=" M 554.24 86.24 L 554.76 86.24 L 554.76 86.76 L 554.24 86.76 L 554.24 86.24 Z" />
<path fill="#ffffff" opacity="1.00" d=" M 61.24 88.24 L 61.76 88.24 L 61.76 88.76 L 61.24 88.76 L 61.24 88.24 Z" />
<path fill="#ffffff" opacity="1.00" d=" M 747.24 88.24 L 747.76 88.24 L 747.76 88.76 L 747.24 88.76 L 747.24 88.24 Z" />
<path fill="#ffffff" opacity="1.00" d=" M 1003.24 88.24 L 1003.76 88.24 L 1003.76 88.76 L 1003.24 88.76 L 1003.24 88.24 Z" />
<path fill="#ffffff" opacity="1.00" d=" M 48.24 89.24 L 48.76 89.24 L 48.76 89.76 L 48.24 89.76 L 48.24 89.24 Z" />
<path fill="#ffffff" opacity="1.00" d=" M 141.24 89.24 L 141.76 89.24 L 141.76 89.76 L 141.24 89.76 L 141.24 89.24 Z" />
<path fill="#ffffff" opacity="1.00" d=" M 560.24 89.24 L 560.76 89.24 L 560.76 89.76 L 560.24 89.76 L 560.24 89.24 Z" />
<path fill="#ffffff" opacity="1.00" d=" M 754.24 91.24 L 754.76 91.24 L 754.76 91.76 L 754.24 91.76 L 754.24 91.24 Z" />
<path fill="#ffffff" opacity="1.00" d=" M 1000.34 92.87 C 1000.00 91.52 1000.51 91.01 1001.87 91.34 C 1002.27 92.77 1001.76 93.28 1000.34 92.87 Z" />
<path fill="#ffffff" opacity="1.00" d=" M 1010.24 91.24 L 1010.76 91.24 L 1010.76 91.76 L 1010.24 91.76 L 1010.24 91.24 Z" />
<path fill="#ffffff" opacity="1.00" d=" M 756.24 92.24 L 756.76 92.24 L 756.76 92.76 L 756.24 92.76 L 756.24 92.24 Z" />
<path fill="#ffffff" opacity="1.00" d=" M 1012.24 92.24 L 1012.76 92.24 L 1012.76 92.76 L 1012.24 92.76 L 1012.24 92.24 Z" />
<path fill="#ffffff" opacity="1.00" d=" M 77.24 93.24 L 77.76 93.24 L 77.76 93.76 L 77.24 93.76 L 77.24 93.24 Z" />
<path fill="#ffffff" opacity="1.00" d=" M 589.24 93.24 L 589.76 93.24 L 589.76 93.76 L 589.24 93.76 L 589.24 93.24 Z" />
<path fill="#ffffff" opacity="1.00" d=" M 602.25 93.10 L 603.00 92.72 L 603.75 93.10 L 603.75 93.90 L 603.00 94.28 L 602.25 93.90 L 602.25 93.10 Z" />
<path fill="#ffffff" opacity="1.00" d=" M 548.24 94.24 L 548.76 94.24 L 548.76 94.76 L 548.24 94.76 L 548.24 94.24 Z" />
<path fill="#ffffff" opacity="1.00" d=" M 870.24 94.24 L 870.76 94.24 L 870.76 94.76 L 870.24 94.76 L 870.24 94.24 Z" />
<path fill="#ffffff" opacity="1.00" d=" M 984.24 95.24 L 984.76 95.24 L 984.76 95.76 L 984.24 95.76 L 984.24 95.24 Z" />
<path fill="#ffffff" opacity="1.00" d=" M 1011.25 95.10 L 1012.00 94.72 L 1012.75 95.10 L 1012.75 95.90 L 1012.00 96.28 L 1011.25 95.90 L 1011.25 95.10 Z" />
<path fill="#ffffff" opacity="1.00" d=" M 51.24 97.24 L 51.76 97.24 L 51.76 97.76 L 51.24 97.76 L 51.24 97.24 Z" />
<path fill="#ffffff" opacity="1.00" d=" M 563.24 97.24 L 563.76 97.24 L 563.76 97.76 L 563.24 97.76 L 563.24 97.24 Z" />
<path fill="#ffffff" opacity="1.00" d=" M 747.24 97.24 L 747.76 97.24 L 747.76 97.76 L 747.24 97.76 L 747.24 97.24 Z" />
<path fill="#ffffff" opacity="1.00" d=" M 819.24 97.24 L 819.76 97.24 L 819.76 97.76 L 819.24 97.76 L 819.24 97.24 Z" />
<path fill="#ffffff" opacity="1.00" d=" M 1003.24 97.24 L 1003.76 97.24 L 1003.76 97.76 L 1003.24 97.76 L 1003.24 97.24 Z" />
<path fill="#ffffff" opacity="1.00" d=" M 102.24 98.24 L 102.76 98.24 L 102.76 98.76 L 102.24 98.76 L 102.24 98.24 Z" />
<path fill="#ffffff" opacity="1.00" d=" M 870.24 98.24 L 870.76 98.24 L 870.76 98.76 L 870.24 98.76 L 870.24 98.24 Z" />
<path fill="#ffffff" opacity="1.00" d=" M 994.24 100.24 L 994.76 100.24 L 994.76 100.76 L 994.24 100.76 L 994.24 100.24 Z" />
<path fill="#ffffff" opacity="1.00" d=" M 978.24 101.24 L 978.76 101.24 L 978.76 101.76 L 978.24 101.76 L 978.24 101.24 Z" />
<path fill="#ffffff" opacity="1.00" d=" M 974.24 102.24 L 974.76 102.24 L 974.76 102.76 L 974.24 102.76 L 974.24 102.24 Z" />
<path fill="#ffffff" opacity="1.00" d=" M 52.24 104.24 L 52.76 104.24 L 52.76 104.76 L 52.24 104.76 L 52.24 104.24 Z" />
<path fill="#ffffff" opacity="1.00" d=" M 820.24 104.24 L 820.76 104.24 L 820.76 104.76 L 820.24 104.76 L 820.24 104.24 Z" />
<path fill="#ffffff" opacity="1.00" d=" M 872.10 105.25 L 872.90 105.25 L 873.28 106.00 L 872.90 106.75 L 872.10 106.75 L 871.72 106.00 L 872.10 105.25 Z" />
<path fill="#ffffff" opacity="1.00" d=" M 57.24 108.24 L 57.76 108.24 L 57.76 108.76 L 57.24 108.76 L 57.24 108.24 Z" />
<path fill="#ffffff" opacity="1.00" d=" M 815.24 108.24 L 815.76 108.24 L 815.76 108.76 L 815.24 108.76 L 815.24 108.24 Z" />
<path fill="#ffffff" opacity="1.00" d=" M 949.24 109.24 L 949.76 109.24 L 949.76 109.76 L 949.24 109.76 L 949.24 109.24 Z" />
<path fill="#ffffff" opacity="1.00" d=" M 783.24 111.24 L 783.76 111.24 L 783.76 111.76 L 783.24 111.76 L 783.24 111.24 Z" />
<path fill="#ffffff" opacity="1.00" d=" M 1.24 112.24 L 1.76 112.24 L 1.76 112.76 L 1.24 112.76 L 1.24 112.24 Z" />
<path fill="#ffffff" opacity="1.00" d=" M 366.24 116.24 L 366.76 116.24 L 366.76 116.76 L 366.24 116.76 L 366.24 116.24 Z" />
<path fill="#ffffff" opacity="1.00" d=" M 373.24 116.24 L 373.76 116.24 L 373.76 116.76 L 373.24 116.76 L 373.24 116.24 Z" />
<path fill="#ffffff" opacity="1.00" d=" M 776.24 119.24 L 776.76 119.24 L 776.76 119.76 L 776.24 119.76 L 776.24 119.24 Z" />
<path fill="#ffffff" opacity="1.00" d=" M 789.24 120.24 L 789.76 120.24 L 789.76 120.76 L 789.24 120.76 L 789.24 120.24 Z" />
<path fill="#ffffff" opacity="1.00" d=" M 786.24 121.24 L 786.76 121.24 L 786.76 121.76 L 786.24 121.76 L 786.24 121.24 Z" />
<path fill="#ffffff" opacity="1.00" d=" M 776.24 122.24 L 776.76 122.24 L 776.76 122.76 L 776.24 122.76 L 776.24 122.24 Z" />
<path fill="#ffffff" opacity="1.00" d=" M 348.24 126.24 L 348.76 126.24 L 348.76 126.76 L 348.24 126.76 L 348.24 126.24 Z" />
<path fill="#ffffff" opacity="1.00" d=" M 788.24 126.24 L 788.76 126.24 L 788.76 126.76 L 788.24 126.76 L 788.24 126.24 Z" />
<path fill="#ffffff" opacity="1.00" d=" M 771.24 127.24 L 771.76 127.24 L 771.76 127.76 L 771.24 127.76 L 771.24 127.24 Z" />
<path fill="#ffffff" opacity="1.00" d=" M 778.24 129.24 L 778.76 129.24 L 778.76 129.76 L 778.24 129.76 L 778.24 129.24 Z" />
<path fill="#ffffff" opacity="1.00" d=" M 784.24 130.24 L 784.76 130.24 L 784.76 130.76 L 784.24 130.76 L 784.24 130.24 Z" />
<path fill="#ffffff" opacity="1.00" d=" M 788.24 130.24 L 788.76 130.24 L 788.76 130.76 L 788.24 130.76 L 788.24 130.24 Z" />
<path fill="#ffffff" opacity="1.00" d=" M 347.24 132.24 L 347.76 132.24 L 347.76 132.76 L 347.24 132.76 L 347.24 132.24 Z" />
<path fill="#ffffff" opacity="1.00" d=" M 603.24 132.24 L 603.76 132.24 L 603.76 132.76 L 603.24 132.76 L 603.24 132.24 Z" />
<path fill="#ffffff" opacity="1.00" d=" M 396.24 137.24 L 396.76 137.24 L 396.76 137.76 L 396.24 137.76 L 396.24 137.24 Z" />
<path fill="#ffffff" opacity="1.00" d=" M 560.24 139.24 L 560.76 139.24 L 560.76 139.76 L 560.24 139.76 L 560.24 139.24 Z" />
<path fill="#ffffff" opacity="1.00" d=" M 343.24 140.24 L 343.76 140.24 L 343.76 140.76 L 343.24 140.76 L 343.24 140.24 Z" />
<path fill="#ffffff" opacity="1.00" d=" M 543.24 140.24 L 543.76 140.24 L 543.76 140.76 L 543.24 140.76 L 543.24 140.24 Z" />
<path fill="#ffffff" opacity="1.00" d=" M 599.24 140.24 L 599.76 140.24 L 599.76 140.76 L 599.24 140.76 L 599.24 140.24 Z" />
<path fill="#ffffff" opacity="1.00" d=" M 529.24 143.24 L 529.76 143.24 L 529.76 143.76 L 529.24 143.76 L 529.24 143.24 Z" />
<path fill="#ffffff" opacity="1.00" d=" M 524.24 144.24 L 524.76 144.24 L 524.76 144.76 L 524.24 144.76 L 524.24 144.24 Z" />
<path fill="#ffffff" opacity="1.00" d=" M 548.24 146.24 L 548.76 146.24 L 548.76 146.76 L 548.24 146.76 L 548.24 146.24 Z" />
<path fill="#ffffff" opacity="1.00" d=" M 533.24 147.24 L 533.76 147.24 L 533.76 147.76 L 533.24 147.76 L 533.24 147.24 Z" />
<path fill="#ffffff" opacity="1.00" d=" M 380.24 148.24 L 380.76 148.24 L 380.76 148.76 L 380.24 148.76 L 380.24 148.24 Z" />
<path fill="#ffffff" opacity="1.00" d=" M 315.24 150.24 L 315.76 150.24 L 315.76 150.76 L 315.24 150.76 L 315.24 150.24 Z" />
<path fill="#ffffff" opacity="1.00" d=" M 547.24 150.24 L 547.76 150.24 L 547.76 150.76 L 547.24 150.76 L 547.24 150.24 Z" />
<path fill="#ffffff" opacity="1.00" d=" M 304.24 151.24 L 304.76 151.24 L 304.76 151.76 L 304.24 151.76 L 304.24 151.24 Z" />
<path fill="#ffffff" opacity="1.00" d=" M 560.24 151.24 L 560.76 151.24 L 560.76 151.76 L 560.24 151.76 L 560.24 151.24 Z" />
<path fill="#ffffff" opacity="1.00" d=" M 199.24 154.24 L 199.76 154.24 L 199.76 154.76 L 199.24 154.76 L 199.24 154.24 Z" />
<path fill="#ffffff" opacity="1.00" d=" M 318.24 154.24 L 318.76 154.24 L 318.76 154.76 L 318.24 154.76 L 318.24 154.24 Z" />
<path fill="#ffffff" opacity="1.00" d=" M 544.24 154.24 L 544.76 154.24 L 544.76 154.76 L 544.24 154.76 L 544.24 154.24 Z" />
<path fill="#ffffff" opacity="1.00" d=" M 506.24 155.24 L 506.76 155.24 L 506.76 155.76 L 506.24 155.76 L 506.24 155.24 Z" />
<path fill="#ffffff" opacity="1.00" d=" M 197.24 156.24 L 197.76 156.24 L 197.76 156.76 L 197.24 156.76 L 197.24 156.24 Z" />
<path fill="#ffffff" opacity="1.00" d=" M 303.24 158.24 L 303.76 158.24 L 303.76 158.76 L 303.24 158.76 L 303.24 158.24 Z" />
<path fill="#ffffff" opacity="1.00" d=" M 533.24 158.24 L 533.76 158.24 L 533.76 158.76 L 533.24 158.76 L 533.24 158.24 Z" />
<path fill="#ffffff" opacity="1.00" d=" M 309.24 159.24 L 309.76 159.24 L 309.76 159.76 L 309.24 159.76 L 309.24 159.24 Z" />
<path fill="#ffffff" opacity="1.00" d=" M 169.24 162.24 L 169.76 162.24 L 169.76 162.76 L 169.24 162.76 L 169.24 162.24 Z" />
<path fill="#ffffff" opacity="1.00" d=" M 194.24 165.24 L 194.76 165.24 L 194.76 165.76 L 194.24 165.76 L 194.24 165.24 Z" />
<path fill="#ffffff" opacity="1.00" d=" M 751.24 165.24 L 751.76 165.24 L 751.76 165.76 L 751.24 165.76 L 751.24 165.24 Z" />
<path fill="#ffffff" opacity="1.00" d=" M 749.24 167.24 L 749.76 167.24 L 749.76 167.76 L 749.24 167.76 L 749.24 167.24 Z" />
<path fill="#ffffff" opacity="1.00" d=" M 707.24 174.24 L 707.76 174.24 L 707.76 174.76 L 707.24 174.76 L 707.24 174.24 Z" />
<path fill="#ffffff" opacity="1.00" d=" M 715.24 175.24 L 715.76 175.24 L 715.76 175.76 L 715.24 175.76 L 715.24 175.24 Z" />
<path fill="#ffffff" opacity="1.00" d=" M 728.24 175.24 L 728.76 175.24 L 728.76 175.76 L 728.24 175.76 L 728.24 175.24 Z" />
<path fill="#ffffff" opacity="1.00" d=" M 716.24 178.24 L 716.76 178.24 L 716.76 178.76 L 716.24 178.76 L 716.24 178.24 Z" />
<path fill="#ffffff" opacity="1.00" d=" M 718.24 179.24 L 718.76 179.24 L 718.76 179.76 L 718.24 179.76 L 718.24 179.24 Z" />
<path fill="#ffffff" opacity="1.00" d=" M 730.24 179.24 L 730.76 179.24 L 730.76 179.76 L 730.24 179.76 L 730.24 179.24 Z" />
<path fill="#ffffff" opacity="1.00" d=" M 1014.24 182.24 L 1014.76 182.24 L 1014.76 182.76 L 1014.24 182.76 L 1014.24 182.24 Z" />
<path fill="#ffffff" opacity="1.00" d=" M 1016.24 187.24 L 1016.76 187.24 L 1016.76 187.76 L 1016.24 187.76 L 1016.24 187.24 Z" />
<path fill="#ffffff" opacity="1.00" d=" M 1005.24 191.24 L 1005.76 191.24 L 1005.76 191.76 L 1005.24 191.76 L 1005.24 191.24 Z" />
<path fill="#ffffff" opacity="1.00" d=" M 1000.18 192.42 C 1001.36 191.91 1003.07 193.63 1002.58 194.82 C 1001.28 195.64 999.35 193.71 1000.18 192.42 Z" />
<path fill="#ffffff" opacity="1.00" d=" M 1010.24 193.24 L 1010.76 193.24 L 1010.76 193.76 L 1010.24 193.76 L 1010.24 193.24 Z" />
<path fill="#ffffff" opacity="1.00" d=" M 245.24 195.24 L 245.76 195.24 L 245.76 195.76 L 245.24 195.76 L 245.24 195.24 Z" />
<path fill="#ffffff" opacity="1.00" d=" M 247.24 195.24 L 247.76 195.24 L 247.76 195.76 L 247.24 195.76 L 247.24 195.24 Z" />
<path fill="#ffffff" opacity="1.00" d=" M 368.24 197.24 L 368.76 197.24 L 368.76 197.76 L 368.24 197.76 L 368.24 197.24 Z" />
<path fill="#ffffff" opacity="1.00" d=" M 1003.24 198.24 L 1003.76 198.24 L 1003.76 198.76 L 1003.24 198.76 L 1003.24 198.24 Z" />
<path fill="#ffffff" opacity="1.00" d=" M 503.24 205.24 L 503.76 205.24 L 503.76 205.76 L 503.24 205.76 L 503.24 205.24 Z" />
<path fill="#ffffff" opacity="1.00" d=" M 514.24 205.24 L 514.76 205.24 L 514.76 205.76 L 514.24 205.76 L 514.24 205.24 Z" />
<path fill="#ffffff" opacity="1.00" d=" M 848.24 206.24 L 848.76 206.24 L 848.76 206.76 L 848.24 206.76 L 848.24 206.24 Z" />
<path fill="#ffffff" opacity="1.00" d=" M 497.24 207.24 L 497.76 207.24 L 497.76 207.76 L 497.24 207.76 L 497.24 207.24 Z" />
<path fill="#ffffff" opacity="1.00" d=" M 828.24 207.24 L 828.76 207.24 L 828.76 207.76 L 828.24 207.76 L 828.24 207.24 Z" />
<path fill="#ffffff" opacity="1.00" d=" M 494.24 209.24 L 494.76 209.24 L 494.76 209.76 L 494.24 209.76 L 494.24 209.24 Z" />
<path fill="#ffffff" opacity="1.00" d=" M 488.24 212.24 L 488.76 212.24 L 488.76 212.76 L 488.24 212.76 L 488.24 212.24 Z" />
<path fill="#ffffff" opacity="1.00" d=" M 823.24 212.24 L 823.76 212.24 L 823.76 212.76 L 823.24 212.76 L 823.24 212.24 Z" />
<path fill="#ffffff" opacity="1.00" d=" M 213.25 214.10 L 214.00 213.72 L 214.75 214.10 L 214.75 214.90 L 214.00 215.28 L 213.25 214.90 L 213.25 214.10 Z" />
<path fill="#ffffff" opacity="1.00" d=" M 825.24 216.24 L 825.76 216.24 L 825.76 216.76 L 825.24 216.76 L 825.24 216.24 Z" />
<path fill="#ffffff" opacity="1.00" d=" M 829.24 219.24 L 829.76 219.24 L 829.76 219.76 L 829.24 219.76 L 829.24 219.24 Z" />
<path fill="#ffffff" opacity="1.00" d=" M 809.13 221.34 C 810.46 221.01 810.98 221.52 810.66 222.87 C 809.22 223.28 808.70 222.77 809.13 221.34 Z" />
<path fill="#ffffff" opacity="1.00" d=" M 60.24 222.24 L 60.76 222.24 L 60.76 222.76 L 60.24 222.76 L 60.24 222.24 Z" />
<path fill="#ffffff" opacity="1.00" d=" M 823.24 222.24 L 823.76 222.24 L 823.76 222.76 L 823.24 222.76 L 823.24 222.24 Z" />
<path fill="#ffffff" opacity="1.00" d=" M 57.24 226.24 L 57.76 226.24 L 57.76 226.76 L 57.24 226.76 L 57.24 226.24 Z" />
<path fill="#ffffff" opacity="1.00" d=" M 639.24 226.24 L 639.76 226.24 L 639.76 226.76 L 639.24 226.76 L 639.24 226.24 Z" />
<path fill="#ffffff" opacity="1.00" d=" M 809.24 227.24 L 809.76 227.24 L 809.76 227.76 L 809.24 227.76 L 809.24 227.24 Z" />
<path fill="#ffffff" opacity="1.00" d=" M 546.24 229.24 L 546.76 229.24 L 546.76 229.76 L 546.24 229.76 L 546.24 229.24 Z" />
<path fill="#ffffff" opacity="1.00" d=" M 635.24 229.24 L 635.76 229.24 L 635.76 229.76 L 635.24 229.76 L 635.24 229.24 Z" />
<path fill="#ffffff" opacity="1.00" d=" M 539.24 231.24 L 539.76 231.24 L 539.76 231.76 L 539.24 231.76 L 539.24 231.24 Z" />
<path fill="#ffffff" opacity="1.00" d=" M 55.25 232.10 L 56.00 231.72 L 56.75 232.10 L 56.75 232.90 L 56.00 233.28 L 55.25 232.90 L 55.25 232.10 Z" />
<path fill="#ffffff" opacity="1.00" d=" M 60.24 232.24 L 60.76 232.24 L 60.76 232.76 L 60.24 232.76 L 60.24 232.24 Z" />
<path fill="#ffffff" opacity="1.00" d=" M 58.24 233.24 L 58.76 233.24 L 58.76 233.76 L 58.24 233.76 L 58.24 233.24 Z" />
<path fill="#ffffff" opacity="1.00" d=" M 624.24 237.24 L 624.76 237.24 L 624.76 237.76 L 624.24 237.76 L 624.24 237.24 Z" />
<path fill="#ffffff" opacity="1.00" d=" M 700.24 242.24 L 700.76 242.24 L 700.76 242.76 L 700.24 242.76 L 700.24 242.24 Z" />
<path fill="#ffffff" opacity="1.00" d=" M 769.25 242.10 L 770.00 241.72 L 770.75 242.10 L 770.75 242.90 L 770.00 243.28 L 769.25 242.90 L 769.25 242.10 Z" />
<path fill="#ffffff" opacity="1.00" d=" M 593.24 243.24 L 593.76 243.24 L 593.76 243.76 L 593.24 243.76 L 593.24 243.24 Z" />
<path fill="#ffffff" opacity="1.00" d=" M 591.24 244.24 L 591.76 244.24 L 591.76 244.76 L 591.24 244.76 L 591.24 244.24 Z" />
<path fill="#ffffff" opacity="1.00" d=" M 449.24 245.24 L 449.76 245.24 L 449.76 245.76 L 449.24 245.76 L 449.24 245.24 Z" />
<path fill="#ffffff" opacity="1.00" d=" M 447.24 246.24 L 447.76 246.24 L 447.76 246.76 L 447.24 246.76 L 447.24 246.24 Z" />
<path fill="#ffffff" opacity="1.00" d=" M 689.24 246.24 L 689.76 246.24 L 689.76 246.76 L 689.24 246.76 L 689.24 246.24 Z" />
<path fill="#ffffff" opacity="1.00" d=" M 690.24 250.24 L 690.76 250.24 L 690.76 250.76 L 690.24 250.76 L 690.24 250.24 Z" />
<path fill="#ffffff" opacity="1.00" d=" M 674.24 251.24 L 674.76 251.24 L 674.76 251.76 L 674.24 251.76 L 674.24 251.24 Z" />
<path fill="#ffffff" opacity="1.00" d=" M 675.24 253.24 L 675.76 253.24 L 675.76 253.76 L 675.24 253.76 L 675.24 253.24 Z" />
<path fill="#ffffff" opacity="1.00" d=" M 423.16 254.16 L 424.00 253.83 L 424.84 254.16 L 425.17 255.00 L 424.84 255.84 L 424.00 256.17 L 423.16 255.84 L 422.83 255.00 L 423.16 254.16 Z" />
<path fill="#ffffff" opacity="1.00" d=" M 679.16 254.16 L 680.00 253.83 L 680.84 254.16 L 681.17 255.00 L 680.84 255.84 L 680.00 256.17 L 679.16 255.84 L 678.83 255.00 L 679.16 254.16 Z" />
<path fill="#ffffff" opacity="1.00" d=" M 681.10 263.25 L 681.90 263.25 L 682.28 264.00 L 681.90 264.75 L 681.10 264.75 L 680.72 264.00 L 681.10 263.25 Z" />
<path fill="#ffffff" opacity="1.00" d=" M 1015.24 268.24 L 1015.76 268.24 L 1015.76 268.76 L 1015.24 268.76 L 1015.24 268.24 Z" />
<path fill="#ffffff" opacity="1.00" d=" M 1023.44 274.23 L 1024.00 274.23 L 1024.00 274.77 L 1023.44 274.77 L 1023.44 274.23 Z" />
<path fill="#ffffff" opacity="1.00" d=" M 1019.24 276.24 L 1019.76 276.24 L 1019.76 276.76 L 1019.24 276.76 L 1019.24 276.24 Z" />
<path fill="#ffffff" opacity="1.00" d=" M 1019.24 279.24 L 1019.76 279.24 L 1019.76 279.76 L 1019.24 279.76 L 1019.24 279.24 Z" />
<path fill="#ffffff" opacity="1.00" d=" M 1004.24 284.24 L 1004.76 284.24 L 1004.76 284.76 L 1004.24 284.76 L 1004.24 284.24 Z" />
<path fill="#ffffff" opacity="1.00" d=" M 1020.24 285.24 L 1020.76 285.24 L 1020.76 285.76 L 1020.24 285.76 L 1020.24 285.24 Z" />
<path fill="#ffffff" opacity="1.00" d=" M 584.24 289.24 L 584.76 289.24 L 584.76 289.76 L 584.24 289.76 L 584.24 289.24 Z" />
<path fill="#ffffff" opacity="1.00" d=" M 587.24 289.24 L 587.76 289.24 L 587.76 289.76 L 587.24 289.76 L 587.24 289.24 Z" />
<path fill="#ffffff" opacity="1.00" d=" M 994.24 291.24 L 994.76 291.24 L 994.76 291.76 L 994.24 291.76 L 994.24 291.24 Z" />
<path fill="#ffffff" opacity="1.00" d=" M 579.24 294.24 L 579.76 294.24 L 579.76 294.76 L 579.24 294.76 L 579.24 294.24 Z" />
<path fill="#ffffff" opacity="1.00" d=" M 585.24 294.24 L 585.76 294.24 L 585.76 294.76 L 585.24 294.76 L 585.24 294.24 Z" />
<path fill="#ffffff" opacity="1.00" d=" M 303.24 296.24 L 303.76 296.24 L 303.76 296.76 L 303.24 296.76 L 303.24 296.24 Z" />
<path fill="#ffffff" opacity="1.00" d=" M 581.24 299.24 L 581.76 299.24 L 581.76 299.76 L 581.24 299.76 L 581.24 299.24 Z" />
<path fill="#ffffff" opacity="1.00" d=" M 576.25 306.10 L 577.00 305.72 L 577.75 306.10 L 577.75 306.90 L 577.00 307.28 L 576.25 306.90 L 576.25 306.10 Z" />
<path fill="#ffffff" opacity="1.00" d=" M 289.24 307.24 L 289.76 307.24 L 289.76 307.76 L 289.24 307.76 L 289.24 307.24 Z" />
<path fill="#ffffff" opacity="1.00" d=" M 578.25 308.10 L 579.00 307.72 L 579.75 308.10 L 579.75 308.90 L 579.00 309.28 L 578.25 308.90 L 578.25 308.10 Z" />
<path fill="#ffffff" opacity="1.00" d=" M 475.24 310.24 L 475.76 310.24 L 475.76 310.76 L 475.24 310.76 L 475.24 310.24 Z" />
<path fill="#ffffff" opacity="1.00" d=" M 303.24 315.24 L 303.76 315.24 L 303.76 315.76 L 303.24 315.76 L 303.24 315.24 Z" />
<path fill="#ffffff" opacity="1.00" d=" M 65.24 318.24 L 65.76 318.24 L 65.76 318.76 L 65.24 318.76 L 65.24 318.24 Z" />
<path fill="#ffffff" opacity="1.00" d=" M 577.24 318.24 L 577.76 318.24 L 577.76 318.76 L 577.24 318.76 L 577.24 318.24 Z" />
<path fill="#ffffff" opacity="1.00" d=" M 527.24 320.24 L 527.76 320.24 L 527.76 320.76 L 527.24 320.76 L 527.24 320.24 Z" />
<path fill="#ffffff" opacity="1.00" d=" M 530.24 320.24 L 530.76 320.24 L 530.76 320.76 L 530.24 320.76 L 530.24 320.24 Z" />
<path fill="#ffffff" opacity="1.00" d=" M 744.24 321.24 L 744.76 321.24 L 744.76 321.76 L 744.24 321.76 L 744.24 321.24 Z" />
<path fill="#ffffff" opacity="1.00" d=" M 529.24 322.24 L 529.76 322.24 L 529.76 322.76 L 529.24 322.76 L 529.24 322.24 Z" />
<path fill="#ffffff" opacity="1.00" d=" M 742.24 323.24 L 742.76 323.24 L 742.76 323.76 L 742.24 323.76 L 742.24 323.24 Z" />
<path fill="#ffffff" opacity="1.00" d=" M 780.24 323.24 L 780.76 323.24 L 780.76 323.76 L 780.24 323.76 L 780.24 323.24 Z" />
<path fill="#ffffff" opacity="1.00" d=" M 1008.24 323.24 L 1008.76 323.24 L 1008.76 323.76 L 1008.24 323.76 L 1008.24 323.24 Z" />
<path fill="#ffffff" opacity="1.00" d=" M 68.24 325.24 L 68.76 325.24 L 68.76 325.76 L 68.24 325.76 L 68.24 325.24 Z" />
<path fill="#ffffff" opacity="1.00" d=" M 429.24 325.24 L 429.76 325.24 L 429.76 325.76 L 429.24 325.76 L 429.24 325.24 Z" />
<path fill="#ffffff" opacity="1.00" d=" M 994.25 325.10 L 995.00 324.72 L 995.75 325.10 L 995.75 325.90 L 995.00 326.28 L 994.25 325.90 L 994.25 325.10 Z" />
<path fill="#ffffff" opacity="1.00" d=" M 715.24 326.24 L 715.76 326.24 L 715.76 326.76 L 715.24 326.76 L 715.24 326.24 Z" />
<path fill="#ffffff" opacity="1.00" d=" M 434.24 327.24 L 434.76 327.24 L 434.76 327.76 L 434.24 327.76 L 434.24 327.24 Z" />
<path fill="#ffffff" opacity="1.00" d=" M 536.24 327.24 L 536.76 327.24 L 536.76 327.76 L 536.24 327.76 L 536.24 327.24 Z" />
<path fill="#ffffff" opacity="1.00" d=" M 737.24 327.24 L 737.76 327.24 L 737.76 327.76 L 737.24 327.76 L 737.24 327.24 Z" />
<path fill="#ffffff" opacity="1.00" d=" M 1003.24 327.24 L 1003.76 327.24 L 1003.76 327.76 L 1003.24 327.76 L 1003.24 327.24 Z" />
<path fill="#ffffff" opacity="1.00" d=" M 540.24 328.24 L 540.76 328.24 L 540.76 328.76 L 540.24 328.76 L 540.24 328.24 Z" />
<path fill="#ffffff" opacity="1.00" d=" M 709.24 329.24 L 709.76 329.24 L 709.76 329.76 L 709.24 329.76 L 709.24 329.24 Z" />
<path fill="#ffffff" opacity="1.00" d=" M 454.24 331.24 L 454.76 331.24 L 454.76 331.76 L 454.24 331.76 L 454.24 331.24 Z" />
<path fill="#ffffff" opacity="1.00" d=" M 710.24 331.24 L 710.76 331.24 L 710.76 331.76 L 710.24 331.76 L 710.24 331.24 Z" />
<path fill="#ffffff" opacity="1.00" d=" M 75.24 332.24 L 75.76 332.24 L 75.76 332.76 L 75.24 332.76 L 75.24 332.24 Z" />
<path fill="#ffffff" opacity="1.00" d=" M 713.24 333.24 L 713.76 333.24 L 713.76 333.76 L 713.24 333.76 L 713.24 333.24 Z" />
<path fill="#ffffff" opacity="1.00" d=" M 69.24 334.24 L 69.76 334.24 L 69.76 334.76 L 69.24 334.76 L 69.24 334.24 Z" />
<path fill="#ffffff" opacity="1.00" d=" M 717.24 334.24 L 717.76 334.24 L 717.76 334.76 L 717.24 334.76 L 717.24 334.24 Z" />
<path fill="#ffffff" opacity="1.00" d=" M 63.24 335.24 L 63.76 335.24 L 63.76 335.76 L 63.24 335.76 L 63.24 335.24 Z" />
<path fill="#ffffff" opacity="1.00" d=" M 445.24 335.24 L 445.76 335.24 L 445.76 335.76 L 445.24 335.76 L 445.24 335.24 Z" />
<path fill="#ffffff" opacity="1.00" d=" M 701.24 335.24 L 701.76 335.24 L 701.76 335.76 L 701.24 335.76 L 701.24 335.24 Z" />
<path fill="#ffffff" opacity="1.00" d=" M 769.25 335.10 L 770.00 334.72 L 770.75 335.10 L 770.75 335.90 L 770.00 336.28 L 769.25 335.90 L 769.25 335.10 Z" />
<path fill="#ffffff" opacity="1.00" d=" M 772.24 336.24 L 772.76 336.24 L 772.76 336.76 L 772.24 336.76 L 772.24 336.24 Z" />
<path fill="#ffffff" opacity="1.00" d=" M 415.24 337.24 L 415.76 337.24 L 415.76 337.76 L 415.24 337.76 L 415.24 337.24 Z" />
<path fill="#ffffff" opacity="1.00" d=" M 862.24 337.24 L 862.76 337.24 L 862.76 337.76 L 862.24 337.76 L 862.24 337.24 Z" />
<path fill="#ffffff" opacity="1.00" d=" M 900.24 338.24 L 900.76 338.24 L 900.76 338.76 L 900.24 338.76 L 900.24 338.24 Z" />
<path fill="#ffffff" opacity="1.00" d=" M 70.24 339.24 L 70.76 339.24 L 70.76 339.76 L 70.24 339.76 L 70.24 339.24 Z" />
<path fill="#ffffff" opacity="1.00" d=" M 62.24 340.24 L 62.76 340.24 L 62.76 340.76 L 62.24 340.76 L 62.24 340.24 Z" />
<path fill="#ffffff" opacity="1.00" d=" M 994.24 340.24 L 994.76 340.24 L 994.76 340.76 L 994.24 340.76 L 994.24 340.24 Z" />
<path fill="#ffffff" opacity="1.00" d=" M 42.24 342.24 L 42.76 342.24 L 42.76 342.76 L 42.24 342.76 L 42.24 342.24 Z" />
<path fill="#ffffff" opacity="1.00" d=" M 48.24 345.24 L 48.76 345.24 L 48.76 345.76 L 48.24 345.76 L 48.24 345.24 Z" />
<path fill="#ffffff" opacity="1.00" d=" M 415.24 345.24 L 415.76 345.24 L 415.76 345.76 L 415.24 345.76 L 415.24 345.24 Z" />
<path fill="#ffffff" opacity="1.00" d=" M 420.10 347.25 L 420.90 347.25 L 421.28 348.00 L 420.90 348.75 L 420.10 348.75 L 419.72 348.00 L 420.10 347.25 Z" />
<path fill="#ffffff" opacity="1.00" d=" M 687.25 348.10 L 688.00 347.72 L 688.75 348.10 L 688.75 348.90 L 688.00 349.28 L 687.25 348.90 L 687.25 348.10 Z" />
<path fill="#ffffff" opacity="1.00" d=" M 858.25 349.10 L 859.00 348.72 L 859.75 349.10 L 859.75 349.90 L 859.00 350.28 L 858.25 349.90 L 858.25 349.10 Z" />
<path fill="#ffffff" opacity="1.00" d=" M 358.24 350.24 L 358.76 350.24 L 358.76 350.76 L 358.24 350.76 L 358.24 350.24 Z" />
<path fill="#ffffff" opacity="1.00" d=" M 418.24 351.24 L 418.76 351.24 L 418.76 351.76 L 418.24 351.76 L 418.24 351.24 Z" />
<path fill="#ffffff" opacity="1.00" d=" M 421.24 351.24 L 421.76 351.24 L 421.76 351.76 L 421.24 351.76 L 421.24 351.24 Z" />
<path fill="#ffffff" opacity="1.00" d=" M 858.24 352.24 L 858.76 352.24 L 858.76 352.76 L 858.24 352.76 L 858.24 352.24 Z" />
<path fill="#ffffff" opacity="1.00" d=" M 855.24 353.24 L 855.76 353.24 L 855.76 353.76 L 855.24 353.76 L 855.24 353.24 Z" />
<path fill="#ffffff" opacity="1.00" d=" M 415.24 355.24 L 415.76 355.24 L 415.76 355.76 L 415.24 355.76 L 415.24 355.24 Z" />
<path fill="#ffffff" opacity="1.00" d=" M 898.10 359.25 L 898.90 359.25 L 899.28 360.00 L 898.90 360.75 L 898.10 360.75 L 897.72 360.00 L 898.10 359.25 Z" />
<path fill="#ffffff" opacity="1.00" d=" M 463.24 365.24 L 463.76 365.24 L 463.76 365.76 L 463.24 365.76 L 463.24 365.24 Z" />
<path fill="#ffffff" opacity="1.00" d=" M 459.24 367.24 L 459.76 367.24 L 459.76 367.76 L 459.24 367.76 L 459.24 367.24 Z" />
<path fill="#ffffff" opacity="1.00" d=" M 532.24 368.24 L 532.76 368.24 L 532.76 368.76 L 532.24 368.76 L 532.24 368.24 Z" />
<path fill="#ffffff" opacity="1.00" d=" M 518.21 369.21 C 519.59 369.17 519.59 371.82 518.21 371.79 C 516.81 371.56 516.81 369.43 518.21 369.21 Z" />
<path fill="#ffffff" opacity="1.00" d=" M 526.24 369.24 L 526.76 369.24 L 526.76 369.76 L 526.24 369.76 L 526.24 369.24 Z" />
<path fill="#ffffff" opacity="1.00" d=" M 774.21 369.21 C 775.59 369.17 775.59 371.82 774.21 371.79 C 772.81 371.56 772.81 369.43 774.21 369.21 Z" />
<path fill="#ffffff" opacity="1.00" d=" M 898.24 369.24 L 898.76 369.24 L 898.76 369.76 L 898.24 369.76 L 898.24 369.24 Z" />
<path fill="#ffffff" opacity="1.00" d=" M 523.24 370.24 L 523.76 370.24 L 523.76 370.76 L 523.24 370.76 L 523.24 370.24 Z" />
<path fill="#ffffff" opacity="1.00" d=" M 885.24 372.24 L 885.76 372.24 L 885.76 372.76 L 885.24 372.76 L 885.24 372.24 Z" />
<path fill="#ffffff" opacity="1.00" d=" M 524.24 378.24 L 524.76 378.24 L 524.76 378.76 L 524.24 378.76 L 524.24 378.24 Z" />
<path fill="#ffffff" opacity="1.00" d=" M 118.24 379.24 L 118.76 379.24 L 118.76 379.76 L 118.24 379.76 L 118.24 379.24 Z" />
<path fill="#ffffff" opacity="1.00" d=" M 886.24 379.24 L 886.76 379.24 L 886.76 379.76 L 886.24 379.76 L 886.24 379.24 Z" />
<path fill="#ffffff" opacity="1.00" d=" M 366.24 381.24 L 366.76 381.24 L 366.76 381.76 L 366.24 381.76 L 366.24 381.24 Z" />
<path fill="#ffffff" opacity="1.00" d=" M 878.13 381.34 C 879.46 381.01 879.98 381.52 879.66 382.87 C 878.22 383.28 877.70 382.77 878.13 381.34 Z" />
<path fill="#ffffff" opacity="1.00" d=" M 515.24 382.24 L 515.76 382.24 L 515.76 382.76 L 515.24 382.76 L 515.24 382.24 Z" />
<path fill="#ffffff" opacity="1.00" d=" M 816.24 384.24 L 816.76 384.24 L 816.76 384.76 L 816.24 384.76 L 816.24 384.24 Z" />
<path fill="#ffffff" opacity="1.00" d=" M 569.13 389.34 C 570.47 389.01 570.98 389.52 570.66 390.87 C 569.22 391.28 568.71 390.77 569.13 389.34 Z" />
<path fill="#ffffff" opacity="1.00" d=" M 562.24 392.24 L 562.76 392.24 L 562.76 392.76 L 562.24 392.76 L 562.24 392.24 Z" />
<path fill="#ffffff" opacity="1.00" d=" M 396.24 393.24 L 396.76 393.24 L 396.76 393.76 L 396.24 393.76 L 396.24 393.24 Z" />
<path fill="#ffffff" opacity="1.00" d=" M 36.24 402.24 L 36.76 402.24 L 36.76 402.76 L 36.24 402.76 L 36.24 402.24 Z" />
<path fill="#ffffff" opacity="1.00" d=" M 35.24 406.24 L 35.76 406.24 L 35.76 406.76 L 35.24 406.76 L 35.24 406.24 Z" />
<path fill="#ffffff" opacity="1.00" d=" M 32.24 410.24 L 32.76 410.24 L 32.76 410.76 L 32.24 410.76 L 32.24 410.24 Z" />
<path fill="#ffffff" opacity="1.00" d=" M 82.24 411.24 L 82.76 411.24 L 82.76 411.76 L 82.24 411.76 L 82.24 411.24 Z" />
<path fill="#ffffff" opacity="1.00" d=" M 250.24 411.24 L 250.76 411.24 L 250.76 411.76 L 250.24 411.76 L 250.24 411.24 Z" />
<path fill="#ffffff" opacity="1.00" d=" M 214.24 417.24 L 214.76 417.24 L 214.76 417.76 L 214.24 417.76 L 214.24 417.24 Z" />
<path fill="#ffffff" opacity="1.00" d=" M 74.24 423.24 L 74.76 423.24 L 74.76 423.76 L 74.24 423.76 L 74.24 423.24 Z" />
<path fill="#ffffff" opacity="1.00" d=" M 963.24 424.24 L 963.76 424.24 L 963.76 424.76 L 963.24 424.76 L 963.24 424.24 Z" />
<path fill="#ffffff" opacity="1.00" d=" M 26.24 429.24 L 26.76 429.24 L 26.76 429.76 L 26.24 429.76 L 26.24 429.24 Z" />
<path fill="#ffffff" opacity="1.00" d=" M 203.24 431.24 L 203.76 431.24 L 203.76 431.76 L 203.24 431.76 L 203.24 431.24 Z" />
<path fill="#ffffff" opacity="1.00" d=" M 201.10 434.25 L 201.90 434.25 L 202.28 435.00 L 201.90 435.75 L 201.10 435.75 L 200.72 435.00 L 201.10 434.25 Z" />
<path fill="#ffffff" opacity="1.00" d=" M 204.24 434.24 L 204.76 434.24 L 204.76 434.76 L 204.24 434.76 L 204.24 434.24 Z" />
<path fill="#ffffff" opacity="1.00" d=" M 206.24 435.24 L 206.76 435.24 L 206.76 435.76 L 206.24 435.76 L 206.24 435.24 Z" />
<path fill="#ffffff" opacity="1.00" d=" M 512.24 435.24 L 512.76 435.24 L 512.76 435.76 L 512.24 435.76 L 512.24 435.24 Z" />
<path fill="#ffffff" opacity="1.00" d=" M 515.24 435.24 L 515.76 435.24 L 515.76 435.76 L 515.24 435.76 L 515.24 435.24 Z" />
<path fill="#ffffff" opacity="1.00" d=" M 202.24 437.24 L 202.76 437.24 L 202.76 437.76 L 202.24 437.76 L 202.24 437.24 Z" />
<path fill="#ffffff" opacity="1.00" d=" M 202.24 441.24 L 202.76 441.24 L 202.76 441.76 L 202.24 441.76 L 202.24 441.24 Z" />
<path fill="#ffffff" opacity="1.00" d=" M 880.24 453.24 L 880.76 453.24 L 880.76 453.76 L 880.24 453.76 L 880.24 453.24 Z" />
<path fill="#ffffff" opacity="1.00" d=" M 823.24 457.24 L 823.76 457.24 L 823.76 457.76 L 823.24 457.76 L 823.24 457.24 Z" />
<path fill="#ffffff" opacity="1.00" d=" M 144.24 473.24 L 144.76 473.24 L 144.76 473.76 L 144.24 473.76 L 144.24 473.24 Z" />
<path fill="#ffffff" opacity="1.00" d=" M 655.24 474.24 L 655.76 474.24 L 655.76 474.76 L 655.24 474.76 L 655.24 474.24 Z" />
<path fill="#ffffff" opacity="1.00" d=" M 108.24 477.24 L 108.76 477.24 L 108.76 477.76 L 108.24 477.76 L 108.24 477.24 Z" />
<path fill="#ffffff" opacity="1.00" d=" M 733.24 478.24 L 733.76 478.24 L 733.76 478.76 L 733.24 478.76 L 733.24 478.24 Z" />
<path fill="#ffffff" opacity="1.00" d=" M 650.24 480.24 L 650.76 480.24 L 650.76 480.76 L 650.24 480.76 L 650.24 480.24 Z" />
<path fill="#ffffff" opacity="1.00" d=" M 616.24 482.24 L 616.76 482.24 L 616.76 482.76 L 616.24 482.76 L 616.24 482.24 Z" />
<path fill="#ffffff" opacity="1.00" d=" M 739.24 482.24 L 739.76 482.24 L 739.76 482.76 L 739.24 482.76 L 739.24 482.24 Z" />
<path fill="#ffffff" opacity="1.00" d=" M 716.13 483.34 C 717.47 483.01 717.98 483.52 717.66 484.87 C 716.22 485.28 715.71 484.77 716.13 483.34 Z" />
<path fill="#ffffff" opacity="1.00" d=" M 602.24 490.24 L 602.76 490.24 L 602.76 490.76 L 602.24 490.76 L 602.24 490.24 Z" />
<path fill="#ffffff" opacity="1.00" d=" M 600.24 493.24 L 600.76 493.24 L 600.76 493.76 L 600.24 493.76 L 600.24 493.24 Z" />
<path fill="#ffffff" opacity="1.00" d=" M 66.24 495.24 L 66.76 495.24 L 66.76 495.76 L 66.24 495.76 L 66.24 495.24 Z" />
<path fill="#ffffff" opacity="1.00" d=" M 385.24 495.24 L 385.76 495.24 L 385.76 495.76 L 385.24 495.76 L 385.24 495.24 Z" />
<path fill="#ffffff" opacity="1.00" d=" M 81.10 500.25 L 81.90 500.25 L 82.28 501.00 L 81.90 501.75 L 81.10 501.75 L 80.72 501.00 L 81.10 500.25 Z" />
<path fill="#ffffff" opacity="1.00" d=" M 690.24 512.24 L 690.76 512.24 L 690.76 512.76 L 690.24 512.76 L 690.24 512.24 Z" />
<path fill="#ffffff" opacity="1.00" d=" M 975.24 521.24 L 975.76 521.24 L 975.76 521.76 L 975.24 521.76 L 975.24 521.24 Z" />
<path fill="#ffffff" opacity="1.00" d=" M 1008.24 523.24 L 1008.76 523.24 L 1008.76 523.76 L 1008.24 523.76 L 1008.24 523.24 Z" />
<path fill="#ffffff" opacity="1.00" d=" M 999.24 530.24 L 999.76 530.24 L 999.76 530.76 L 999.24 530.76 L 999.24 530.24 Z" />
<path fill="#ffffff" opacity="1.00" d=" M 997.24 537.24 L 997.76 537.24 L 997.76 537.76 L 997.24 537.76 L 997.24 537.24 Z" />
<path fill="#ffffff" opacity="1.00" d=" M 990.24 540.24 L 990.76 540.24 L 990.76 540.76 L 990.24 540.76 L 990.24 540.24 Z" />
<path fill="#ffffff" opacity="1.00" d=" M 992.10 545.25 L 992.90 545.25 L 993.28 546.00 L 992.90 546.75 L 992.10 546.75 L 991.72 546.00 L 992.10 545.25 Z" />
<path fill="#ffffff" opacity="1.00" d=" M 996.24 545.24 L 996.76 545.24 L 996.76 545.76 L 996.24 545.76 L 996.24 545.24 Z" />
<path fill="#ffffff" opacity="1.00" d=" M 987.24 547.24 L 987.76 547.24 L 987.76 547.76 L 987.24 547.76 L 987.24 547.24 Z" />
<path fill="#ffffff" opacity="1.00" d=" M 817.24 560.24 L 817.76 560.24 L 817.76 560.76 L 817.24 560.76 L 817.24 560.24 Z" />
<path fill="#ffffff" opacity="1.00" d=" M 816.24 562.24 L 816.76 562.24 L 816.76 562.76 L 816.24 562.76 L 816.24 562.24 Z" />
<path fill="#ffffff" opacity="1.00" d=" M 616.24 577.24 L 616.76 577.24 L 616.76 577.76 L 616.24 577.76 L 616.24 577.24 Z" />
<path fill="#ffffff" opacity="1.00" d=" M 610.24 585.24 L 610.76 585.24 L 610.76 585.76 L 610.24 585.76 L 610.24 585.24 Z" />
<path fill="#ffffff" opacity="1.00" d=" M 618.24 586.24 L 618.76 586.24 L 618.76 586.76 L 618.24 586.76 L 618.24 586.24 Z" />
<path fill="#ffffff" opacity="1.00" d=" M 608.24 589.24 L 608.76 589.24 L 608.76 589.76 L 608.24 589.76 L 608.24 589.24 Z" />
<path fill="#ffffff" opacity="1.00" d=" M 61.24 600.24 L 61.76 600.24 L 61.76 600.76 L 61.24 600.76 L 61.24 600.24 Z" />
<path fill="#ffffff" opacity="1.00" d=" M 208.24 600.24 L 208.76 600.24 L 208.76 600.76 L 208.24 600.76 L 208.24 600.24 Z" />
<path fill="#ffffff" opacity="1.00" d=" M 62.24 603.24 L 62.76 603.24 L 62.76 603.76 L 62.24 603.76 L 62.24 603.24 Z" />
<path fill="#ffffff" opacity="1.00" d=" M 39.24 605.24 L 39.76 605.24 L 39.76 605.76 L 39.24 605.76 L 39.24 605.24 Z" />
<path fill="#ffffff" opacity="1.00" d=" M 42.24 607.24 L 42.76 607.24 L 42.76 607.76 L 42.24 607.76 L 42.24 607.24 Z" />
<path fill="#ffffff" opacity="1.00" d=" M 31.24 611.24 L 31.76 611.24 L 31.76 611.76 L 31.24 611.76 L 31.24 611.24 Z" />
<path fill="#ffffff" opacity="1.00" d=" M 37.24 613.24 L 37.76 613.24 L 37.76 613.76 L 37.24 613.76 L 37.24 613.24 Z" />
<path fill="#ffffff" opacity="1.00" d=" M 697.24 623.24 L 697.76 623.24 L 697.76 623.76 L 697.24 623.76 L 697.24 623.24 Z" />
<path fill="#ffffff" opacity="1.00" d=" M 706.24 631.24 L 706.76 631.24 L 706.76 631.76 L 706.24 631.76 L 706.24 631.24 Z" />
<path fill="#ffffff" opacity="1.00" d=" M 988.24 634.24 L 988.76 634.24 L 988.76 634.76 L 988.24 634.76 L 988.24 634.24 Z" />
<path fill="#ffffff" opacity="1.00" d=" M 998.18 634.42 C 999.36 633.91 1001.07 635.62 1000.58 636.82 C 999.28 637.63 997.35 635.70 998.18 634.42 Z" />
<path fill="#ffffff" opacity="1.00" d=" M 437.25 636.10 L 438.00 635.72 L 438.75 636.10 L 438.75 636.90 L 438.00 637.28 L 437.25 636.90 L 437.25 636.10 Z" />
<path fill="#ffffff" opacity="1.00" d=" M 706.24 636.24 L 706.76 636.24 L 706.76 636.76 L 706.24 636.76 L 706.24 636.24 Z" />
<path fill="#ffffff" opacity="1.00" d=" M 1004.24 638.24 L 1004.76 638.24 L 1004.76 638.76 L 1004.24 638.76 L 1004.24 638.24 Z" />
<path fill="#ffffff" opacity="1.00" d=" M 702.24 639.24 L 702.76 639.24 L 702.76 639.76 L 702.24 639.76 L 702.24 639.24 Z" />
<path fill="#ffffff" opacity="1.00" d=" M 418.24 640.24 L 418.76 640.24 L 418.76 640.76 L 418.24 640.76 L 418.24 640.24 Z" />
<path fill="#ffffff" opacity="1.00" d=" M 991.24 642.24 L 991.76 642.24 L 991.76 642.76 L 991.24 642.76 L 991.24 642.24 Z" />
<path fill="#ffffff" opacity="1.00" d=" M 1004.24 642.24 L 1004.76 642.24 L 1004.76 642.76 L 1004.24 642.76 L 1004.24 642.24 Z" />
<path fill="#ffffff" opacity="1.00" d=" M 704.24 648.24 L 704.76 648.24 L 704.76 648.76 L 704.24 648.76 L 704.24 648.24 Z" />
<path fill="#ffffff" opacity="1.00" d=" M 804.24 650.24 L 804.76 650.24 L 804.76 650.76 L 804.24 650.76 L 804.24 650.24 Z" />
<path fill="#ffffff" opacity="1.00" d=" M 807.24 650.24 L 807.76 650.24 L 807.76 650.76 L 807.24 650.76 L 807.24 650.24 Z" />
<path fill="#ffffff" opacity="1.00" d=" M 80.24 652.24 L 80.76 652.24 L 80.76 652.76 L 80.24 652.76 L 80.24 652.24 Z" />
<path fill="#ffffff" opacity="1.00" d=" M 260.24 655.24 L 260.76 655.24 L 260.76 655.76 L 260.24 655.76 L 260.24 655.24 Z" />
<path fill="#ffffff" opacity="1.00" d=" M 705.24 655.24 L 705.76 655.24 L 705.76 655.76 L 705.24 655.76 L 705.24 655.24 Z" />
<path fill="#ffffff" opacity="1.00" d=" M 804.24 656.24 L 804.76 656.24 L 804.76 656.76 L 804.24 656.76 L 804.24 656.24 Z" />
<path fill="#ffffff" opacity="1.00" d=" M 81.24 657.24 L 81.76 657.24 L 81.76 657.76 L 81.24 657.76 L 81.24 657.24 Z" />
<path fill="#ffffff" opacity="1.00" d=" M 74.13 658.34 C 75.47 658.00 75.99 658.52 75.66 659.87 C 74.23 660.28 73.71 659.76 74.13 658.34 Z" />
<path fill="#ffffff" opacity="1.00" d=" M 820.24 659.24 L 820.76 659.24 L 820.76 659.76 L 820.24 659.76 L 820.24 659.24 Z" />
<path fill="#ffffff" opacity="1.00" d=" M 816.10 660.25 L 816.90 660.25 L 817.28 661.00 L 816.90 661.75 L 816.10 661.75 L 815.72 661.00 L 816.10 660.25 Z" />
<path fill="#ffffff" opacity="1.00" d=" M 805.25 662.10 L 806.00 661.72 L 806.75 662.10 L 806.75 662.90 L 806.00 663.28 L 805.25 662.90 L 805.25 662.10 Z" />
<path fill="#ffffff" opacity="1.00" d=" M 818.24 666.24 L 818.76 666.24 L 818.76 666.76 L 818.24 666.76 L 818.24 666.24 Z" />
<path fill="#ffffff" opacity="1.00" d=" M 814.24 667.24 L 814.76 667.24 L 814.76 667.76 L 814.24 667.76 L 814.24 667.24 Z" />
<path fill="#ffffff" opacity="1.00" d=" M 798.24 668.24 L 798.76 668.24 L 798.76 668.76 L 798.24 668.76 L 798.24 668.24 Z" />
<path fill="#ffffff" opacity="1.00" d=" M 789.24 671.24 L 789.76 671.24 L 789.76 671.76 L 789.24 671.76 L 789.24 671.24 Z" />
<path fill="#ffffff" opacity="1.00" d=" M 484.24 672.24 L 484.76 672.24 L 484.76 672.76 L 484.24 672.76 L 484.24 672.24 Z" />
<path fill="#ffffff" opacity="1.00" d=" M 808.24 673.24 L 808.76 673.24 L 808.76 673.76 L 808.24 673.76 L 808.24 673.24 Z" />
<path fill="#ffffff" opacity="1.00" d=" M 476.24 674.24 L 476.76 674.24 L 476.76 674.76 L 476.24 674.76 L 476.24 674.24 Z" />
<path fill="#ffffff" opacity="1.00" d=" M 179.24 675.24 L 179.76 675.24 L 179.76 675.76 L 179.24 675.76 L 179.24 675.24 Z" />
<path fill="#ffffff" opacity="1.00" d=" M 780.24 676.24 L 780.76 676.24 L 780.76 676.76 L 780.24 676.76 L 780.24 676.24 Z" />
<path fill="#ffffff" opacity="1.00" d=" M 791.34 677.87 C 791.00 676.52 791.52 676.00 792.87 676.34 C 793.28 677.76 792.76 678.28 791.34 677.87 Z" />
<path fill="#ffffff" opacity="1.00" d=" M 782.24 677.24 L 782.76 677.24 L 782.76 677.76 L 782.24 677.76 L 782.24 677.24 Z" />
<path fill="#ffffff" opacity="1.00" d=" M 115.24 679.24 L 115.76 679.24 L 115.76 679.76 L 115.24 679.76 L 115.24 679.24 Z" />
<path fill="#ffffff" opacity="1.00" d=" M 475.24 679.24 L 475.76 679.24 L 475.76 679.76 L 475.24 679.76 L 475.24 679.24 Z" />
<path fill="#ffffff" opacity="1.00" d=" M 305.24 680.24 L 305.76 680.24 L 305.76 680.76 L 305.24 680.76 L 305.24 680.24 Z" />
<path fill="#ffffff" opacity="1.00" d=" M 124.24 686.24 L 124.76 686.24 L 124.76 686.76 L 124.24 686.76 L 124.24 686.24 Z" />
<path fill="#ffffff" opacity="1.00" d=" M 961.24 689.24 L 961.76 689.24 L 961.76 689.76 L 961.24 689.76 L 961.24 689.24 Z" />
<path fill="#ffffff" opacity="1.00" d=" M 918.25 690.10 L 919.00 689.72 L 919.75 690.10 L 919.75 690.90 L 919.00 691.28 L 918.25 690.90 L 918.25 690.10 Z" />
<path fill="#ffffff" opacity="1.00" d=" M 54.24 693.24 L 54.76 693.24 L 54.76 693.76 L 54.24 693.76 L 54.24 693.24 Z" />
<path fill="#ffffff" opacity="1.00" d=" M 566.24 693.24 L 566.76 693.24 L 566.76 693.76 L 566.24 693.76 L 566.24 693.24 Z" />
<path fill="#ffffff" opacity="1.00" d=" M 914.24 693.24 L 914.76 693.24 L 914.76 693.76 L 914.24 693.76 L 914.24 693.24 Z" />
<path fill="#ffffff" opacity="1.00" d=" M 615.24 695.24 L 615.76 695.24 L 615.76 695.76 L 615.24 695.76 L 615.24 695.24 Z" />
<path fill="#ffffff" opacity="1.00" d=" M 917.24 696.24 L 917.76 696.24 L 917.76 696.76 L 917.24 696.76 L 917.24 696.24 Z" />
<path fill="#ffffff" opacity="1.00" d=" M 58.24 697.24 L 58.76 697.24 L 58.76 697.76 L 58.24 697.76 L 58.24 697.24 Z" />
<path fill="#ffffff" opacity="1.00" d=" M 52.24 700.24 L 52.76 700.24 L 52.76 700.76 L 52.24 700.76 L 52.24 700.24 Z" />
<path fill="#ffffff" opacity="1.00" d=" M 914.24 703.24 L 914.76 703.24 L 914.76 703.76 L 914.24 703.76 L 914.24 703.24 Z" />
<path fill="#ffffff" opacity="1.00" d=" M 608.24 704.24 L 608.76 704.24 L 608.76 704.76 L 608.24 704.76 L 608.24 704.24 Z" />
<path fill="#ffffff" opacity="1.00" d=" M 468.25 705.10 L 469.00 704.72 L 469.75 705.10 L 469.75 705.90 L 469.00 706.28 L 468.25 705.90 L 468.25 705.10 Z" />
<path fill="#ffffff" opacity="1.00" d=" M 614.24 708.24 L 614.76 708.24 L 614.76 708.76 L 614.24 708.76 L 614.24 708.24 Z" />
<path fill="#ffffff" opacity="1.00" d=" M 374.24 709.24 L 374.76 709.24 L 374.76 709.76 L 374.24 709.76 L 374.24 709.24 Z" />
<path fill="#ffffff" opacity="1.00" d=" M 594.24 713.24 L 594.76 713.24 L 594.76 713.76 L 594.24 713.76 L 594.24 713.24 Z" />
<path fill="#ffffff" opacity="1.00" d=" M 141.24 714.24 L 141.76 714.24 L 141.76 714.76 L 141.24 714.76 L 141.24 714.24 Z" />
<path fill="#ffffff" opacity="1.00" d=" M 418.24 715.24 L 418.76 715.24 L 418.76 715.76 L 418.24 715.76 L 418.24 715.24 Z" />
<path fill="#ffffff" opacity="1.00" d=" M 409.24 719.24 L 409.76 719.24 L 409.76 719.76 L 409.24 719.76 L 409.24 719.24 Z" />
<path fill="#ffffff" opacity="1.00" d=" M 94.24 720.24 L 94.76 720.24 L 94.76 720.76 L 94.24 720.76 L 94.24 720.24 Z" />
<path fill="#ffffff" opacity="1.00" d=" M 427.24 720.24 L 427.76 720.24 L 427.76 720.76 L 427.24 720.76 L 427.24 720.24 Z" />
<path fill="#ffffff" opacity="1.00" d=" M 125.24 721.24 L 125.76 721.24 L 125.76 721.76 L 125.24 721.76 L 125.24 721.24 Z" />
<path fill="#ffffff" opacity="1.00" d=" M 424.25 721.10 L 425.00 720.72 L 425.75 721.10 L 425.75 721.90 L 425.00 722.28 L 424.25 721.90 L 424.25 721.10 Z" />
<path fill="#ffffff" opacity="1.00" d=" M 92.24 725.24 L 92.76 725.24 L 92.76 725.76 L 92.24 725.76 L 92.24 725.24 Z" />
<path fill="#ffffff" opacity="1.00" d=" M 175.24 725.24 L 175.76 725.24 L 175.76 725.76 L 175.24 725.76 L 175.24 725.24 Z" />
<path fill="#ffffff" opacity="1.00" d=" M 55.24 728.24 L 55.76 728.24 L 55.76 728.76 L 55.24 728.76 L 55.24 728.24 Z" />
<path fill="#ffffff" opacity="1.00" d=" M 48.24 729.24 L 48.76 729.24 L 48.76 729.76 L 48.24 729.76 L 48.24 729.24 Z" />
<path fill="#ffffff" opacity="1.00" d=" M 106.25 729.10 L 107.00 728.72 L 107.75 729.10 L 107.75 729.90 L 107.00 730.28 L 106.25 729.90 L 106.25 729.10 Z" />
<path fill="#ffffff" opacity="1.00" d=" M 426.16 729.16 L 427.00 728.83 L 427.84 729.16 L 428.17 730.00 L 427.84 730.84 L 427.00 731.17 L 426.16 730.84 L 425.83 730.00 L 426.16 729.16 Z" />
<path fill="#ffffff" opacity="1.00" d=" M 408.24 730.24 L 408.76 730.24 L 408.76 730.76 L 408.24 730.76 L 408.24 730.24 Z" />
<path fill="#ffffff" opacity="1.00" d=" M 934.24 730.24 L 934.76 730.24 L 934.76 730.76 L 934.24 730.76 L 934.24 730.24 Z" />
<path fill="#ffffff" opacity="1.00" d=" M 52.24 731.24 L 52.76 731.24 L 52.76 731.76 L 52.24 731.76 L 52.24 731.24 Z" />
<path fill="#ffffff" opacity="1.00" d=" M 136.24 731.24 L 136.76 731.24 L 136.76 731.76 L 136.24 731.76 L 136.24 731.24 Z" />
<path fill="#ffffff" opacity="1.00" d=" M 392.24 731.24 L 392.76 731.24 L 392.76 731.76 L 392.24 731.76 L 392.24 731.24 Z" />
<path fill="#ffffff" opacity="1.00" d=" M 58.24 732.24 L 58.76 732.24 L 58.76 732.76 L 58.24 732.76 L 58.24 732.24 Z" />
<path fill="#ffffff" opacity="1.00" d=" M 90.24 733.24 L 90.76 733.24 L 90.76 733.76 L 90.24 733.76 L 90.24 733.24 Z" />
<path fill="#ffffff" opacity="1.00" d=" M 110.24 733.24 L 110.76 733.24 L 110.76 733.76 L 110.24 733.76 L 110.24 733.24 Z" />
<path fill="#ffffff" opacity="1.00" d=" M 131.24 734.25 C 132.05 733.05 134.80 734.03 133.48 735.46 C 132.69 736.84 130.04 735.72 131.24 734.25 Z" />
<path fill="#ffffff" opacity="1.00" d=" M 387.24 734.25 C 388.05 733.05 390.80 734.03 389.48 735.46 C 388.68 736.84 386.04 735.72 387.24 734.25 Z" />
<path fill="#ffffff" opacity="1.00" d=" M 106.24 735.24 L 106.76 735.24 L 106.76 735.76 L 106.24 735.76 L 106.24 735.24 Z" />
<path fill="#ffffff" opacity="1.00" d=" M 137.24 735.24 L 137.76 735.24 L 137.76 735.76 L 137.24 735.76 L 137.24 735.24 Z" />
<path fill="#ffffff" opacity="1.00" d=" M 393.24 735.24 L 393.76 735.24 L 393.76 735.76 L 393.24 735.76 L 393.24 735.24 Z" />
<path fill="#ffffff" opacity="1.00" d=" M 397.24 736.24 L 397.76 736.24 L 397.76 736.76 L 397.24 736.76 L 397.24 736.24 Z" />
<path fill="#ffffff" opacity="1.00" d=" M 516.24 737.24 L 516.76 737.24 L 516.76 737.76 L 516.24 737.76 L 516.24 737.24 Z" />
<path fill="#ffffff" opacity="1.00" d=" M 89.24 738.24 L 89.76 738.24 L 89.76 738.76 L 89.24 738.76 L 89.24 738.24 Z" />
<path fill="#ffffff" opacity="1.00" d=" M 570.24 739.24 L 570.76 739.24 L 570.76 739.76 L 570.24 739.76 L 570.24 739.24 Z" />
<path fill="#ffffff" opacity="1.00" d=" M 86.24 740.24 L 86.76 740.24 L 86.76 740.76 L 86.24 740.76 L 86.24 740.24 Z" />
<path fill="#ffffff" opacity="1.00" d=" M 253.24 740.24 L 253.76 740.24 L 253.76 740.76 L 253.24 740.76 L 253.24 740.24 Z" />
<path fill="#ffffff" opacity="1.00" d=" M 393.24 740.24 L 393.76 740.24 L 393.76 740.76 L 393.24 740.76 L 393.24 740.24 Z" />
<path fill="#ffffff" opacity="1.00" d=" M 520.24 740.24 L 520.76 740.24 L 520.76 740.76 L 520.24 740.76 L 520.24 740.24 Z" />
<path fill="#ffffff" opacity="1.00" d=" M 512.24 741.24 L 512.76 741.24 L 512.76 741.76 L 512.24 741.76 L 512.24 741.24 Z" />
<path fill="#ffffff" opacity="1.00" d=" M 562.24 742.24 L 562.76 742.24 L 562.76 742.76 L 562.24 742.76 L 562.24 742.24 Z" />
<path fill="#ffffff" opacity="1.00" d=" M 375.24 745.24 L 375.76 745.24 L 375.76 745.76 L 375.24 745.76 L 375.24 745.24 Z" />
<path fill="#ffffff" opacity="1.00" d=" M 386.38 745.17 C 386.78 745.05 387.56 744.83 387.96 744.72 L 388.62 745.17 L 388.62 745.83 L 387.96 746.28 C 387.56 746.17 386.78 745.95 386.38 745.83 L 386.38 745.17 Z" />
<path fill="#ffffff" opacity="1.00" d=" M 511.13 745.34 C 512.47 745.00 512.98 745.52 512.66 746.87 C 511.22 747.28 510.71 746.76 511.13 745.34 Z" />
<path fill="#ffffff" opacity="1.00" d=" M 559.24 745.24 L 559.76 745.24 L 559.76 745.76 L 559.24 745.76 L 559.24 745.24 Z" />
<path fill="#ffffff" opacity="1.00" d=" M 553.21 749.06 C 556.73 748.13 552.97 753.13 552.20 750.21 C 552.45 749.92 552.96 749.34 553.21 749.06 Z" />
<path fill="#ffffff" opacity="1.00" d=" M 811.24 750.24 L 811.76 750.24 L 811.76 750.76 L 811.24 750.76 L 811.24 750.24 Z" />
<path fill="#ffffff" opacity="1.00" d=" M 410.24 751.24 L 410.76 751.24 L 410.76 751.76 L 410.24 751.76 L 410.24 751.24 Z" />
<path fill="#ffffff" opacity="1.00" d=" M 518.24 751.24 L 518.76 751.24 L 518.76 751.76 L 518.24 751.76 L 518.24 751.24 Z" />
<path fill="#ffffff" opacity="1.00" d=" M 406.24 752.24 L 406.76 752.24 L 406.76 752.76 L 406.24 752.76 L 406.24 752.24 Z" />
<path fill="#ffffff" opacity="1.00" d=" M 551.24 752.24 L 551.76 752.24 L 551.76 752.76 L 551.24 752.76 L 551.24 752.24 Z" />
<path fill="#ffffff" opacity="1.00" d=" M 995.24 752.24 L 995.76 752.24 L 995.76 752.76 L 995.24 752.76 L 995.24 752.24 Z" />
<path fill="#ffffff" opacity="1.00" d=" M 9.24 756.24 L 9.76 756.24 L 9.76 756.76 L 9.24 756.76 L 9.24 756.24 Z" />
<path fill="#ffffff" opacity="1.00" d=" M 396.24 756.24 L 396.76 756.24 L 396.76 756.76 L 396.24 756.76 L 396.24 756.24 Z" />
<path fill="#ffffff" opacity="1.00" d=" M 777.24 756.24 L 777.76 756.24 L 777.76 756.76 L 777.24 756.76 L 777.24 756.24 Z" />
<path fill="#ffffff" opacity="1.00" d=" M 398.24 758.24 L 398.76 758.24 L 398.76 758.76 L 398.24 758.76 L 398.24 758.24 Z" />
<path fill="#ffffff" opacity="1.00" d=" M 585.24 759.24 L 585.76 759.24 L 585.76 759.76 L 585.24 759.76 L 585.24 759.24 Z" />
<path fill="#ffffff" opacity="1.00" d=" M 343.10 760.25 L 343.90 760.25 L 344.28 761.00 L 343.90 761.75 L 343.10 761.75 L 342.72 761.00 L 343.10 760.25 Z" />
<path fill="#ffffff" opacity="1.00" d=" M 599.24 760.24 L 599.76 760.24 L 599.76 760.76 L 599.24 760.76 L 599.24 760.24 Z" />
<path fill="#ffffff" opacity="1.00" d=" M 136.24 761.24 L 136.76 761.24 L 136.76 761.76 L 136.24 761.76 L 136.24 761.24 Z" />
<path fill="#ffffff" opacity="1.00" d=" M 392.24 761.24 L 392.76 761.24 L 392.76 761.76 L 392.24 761.76 L 392.24 761.24 Z" />
<path fill="#ffffff" opacity="1.00" d=" M 942.24 761.24 L 942.76 761.24 L 942.76 761.76 L 942.24 761.76 L 942.24 761.24 Z" />
<path fill="#ffffff" opacity="1.00" d=" M 578.24 764.24 L 578.76 764.24 L 578.76 764.76 L 578.24 764.76 L 578.24 764.24 Z" />
<path fill="#ffffff" opacity="1.00" d=" M 773.16 764.16 L 774.00 763.83 L 774.84 764.16 L 775.17 765.00 L 774.84 765.84 L 774.00 766.17 L 773.16 765.84 L 772.83 765.00 L 773.16 764.16 Z" />
<path fill="#ffffff" opacity="1.00" d=" M 776.24 764.24 L 776.76 764.24 L 776.76 764.76 L 776.24 764.76 L 776.24 764.24 Z" />
<path fill="#ffffff" opacity="1.00" d=" M 942.24 765.24 L 942.76 765.24 L 942.76 765.76 L 942.24 765.76 L 942.24 765.24 Z" />
<path fill="#ffffff" opacity="1.00" d=" M 401.24 768.24 L 401.76 768.24 L 401.76 768.76 L 401.24 768.76 L 401.24 768.24 Z" />
<path fill="#ffffff" opacity="1.00" d=" M 579.24 768.24 L 579.76 768.24 L 579.76 768.76 L 579.24 768.76 L 579.24 768.24 Z" />
<path fill="#ffffff" opacity="1.00" d=" M 913.24 768.24 L 913.76 768.24 L 913.76 768.76 L 913.24 768.76 L 913.24 768.24 Z" />
<path fill="#ffffff" opacity="1.00" d=" M 917.24 768.24 L 917.76 768.24 L 917.76 768.76 L 917.24 768.76 L 917.24 768.24 Z" />
<path fill="#ffffff" opacity="1.00" d=" M 951.24 768.24 L 951.76 768.24 L 951.76 768.76 L 951.24 768.76 L 951.24 768.24 Z" />
<path fill="#ffffff" opacity="1.00" d=" M 944.13 769.34 C 945.46 769.00 945.97 769.52 945.66 770.87 C 944.21 771.28 943.70 770.76 944.13 769.34 Z" />
<path fill="#ffffff" opacity="1.00" d=" M 500.24 771.24 L 500.76 771.24 L 500.76 771.76 L 500.24 771.76 L 500.24 771.24 Z" />
<path fill="#ffffff" opacity="1.00" d=" M 921.24 771.24 L 921.76 771.24 L 921.76 771.76 L 921.24 771.76 L 921.24 771.24 Z" />
<path fill="#ffffff" opacity="1.00" d=" M 984.24 771.24 L 984.76 771.24 L 984.76 771.76 L 984.24 771.76 L 984.24 771.24 Z" />
<path fill="#ffffff" opacity="1.00" d=" M 920.24 773.24 L 920.76 773.24 L 920.76 773.76 L 920.24 773.76 L 920.24 773.24 Z" />
<path fill="#ffffff" opacity="1.00" d=" M 939.24 773.24 L 939.76 773.24 L 939.76 773.76 L 939.24 773.76 L 939.24 773.24 Z" />
<path fill="#ffffff" opacity="1.00" d=" M 948.16 773.16 L 949.00 772.83 L 949.84 773.16 L 950.17 774.00 L 949.84 774.84 L 949.00 775.17 L 948.16 774.84 L 947.83 774.00 L 948.16 773.16 Z" />
<path fill="#ffffff" opacity="1.00" d=" M 917.24 774.24 L 917.76 774.24 L 917.76 774.76 L 917.24 774.76 L 917.24 774.24 Z" />
<path fill="#ffffff" opacity="1.00" d=" M 988.24 775.24 L 988.76 775.24 L 988.76 775.76 L 988.24 775.76 L 988.24 775.24 Z" />
<path fill="#ffffff" opacity="1.00" d=" M 915.24 776.24 L 915.76 776.24 L 915.76 776.76 L 915.24 776.76 L 915.24 776.24 Z" />
<path fill="#ffffff" opacity="1.00" d=" M 938.24 776.24 L 938.76 776.24 L 938.76 776.76 L 938.24 776.76 L 938.24 776.24 Z" />
<path fill="#ffffff" opacity="1.00" d=" M 1023.29 776.37 L 1024.00 776.09 L 1024.00 776.69 L 1023.41 776.87 L 1023.29 776.37 Z" />
<path fill="#ffffff" opacity="1.00" d=" M 84.24 791.24 L 84.76 791.24 L 84.76 791.76 L 84.24 791.76 L 84.24 791.24 Z" />
<path fill="#ffffff" opacity="1.00" d=" M 66.24 795.24 L 66.76 795.24 L 66.76 795.76 L 66.24 795.76 L 66.24 795.24 Z" />
<path fill="#ffffff" opacity="1.00" d=" M 77.24 797.24 L 77.76 797.24 L 77.76 797.76 L 77.24 797.76 L 77.24 797.24 Z" />
<path fill="#ffffff" opacity="1.00" d=" M 294.24 799.24 L 294.76 799.24 L 294.76 799.76 L 294.24 799.76 L 294.24 799.24 Z" />
<path fill="#ffffff" opacity="1.00" d=" M 919.24 800.24 L 919.76 800.24 L 919.76 800.76 L 919.24 800.76 L 919.24 800.24 Z" />
<path fill="#ffffff" opacity="1.00" d=" M 86.24 803.24 L 86.76 803.24 L 86.76 803.76 L 86.24 803.76 L 86.24 803.24 Z" />
<path fill="#ffffff" opacity="1.00" d=" M 513.24 803.24 L 513.76 803.24 L 513.76 803.76 L 513.24 803.76 L 513.24 803.24 Z" />
<path fill="#ffffff" opacity="1.00" d=" M 657.24 803.24 L 657.76 803.24 L 657.76 803.76 L 657.24 803.76 L 657.24 803.24 Z" />
<path fill="#ffffff" opacity="1.00" d=" M 290.24 804.24 L 290.76 804.24 L 290.76 804.76 L 290.24 804.76 L 290.24 804.24 Z" />
<path fill="#ffffff" opacity="1.00" d=" M 4.24 805.24 L 4.76 805.24 L 4.76 805.76 L 4.24 805.76 L 4.24 805.24 Z" />
<path fill="#ffffff" opacity="1.00" d=" M 422.24 805.24 L 422.76 805.24 L 422.76 805.76 L 422.24 805.76 L 422.24 805.24 Z" />
<path fill="#ffffff" opacity="1.00" d=" M 151.24 807.24 L 151.76 807.24 L 151.76 807.76 L 151.24 807.76 L 151.24 807.24 Z" />
<path fill="#ffffff" opacity="1.00" d=" M 433.24 807.24 L 433.76 807.24 L 433.76 807.76 L 433.24 807.76 L 433.24 807.24 Z" />
<path fill="#ffffff" opacity="1.00" d=" M 663.24 807.24 L 663.76 807.24 L 663.76 807.76 L 663.24 807.76 L 663.24 807.24 Z" />
<path fill="#ffffff" opacity="1.00" d=" M 793.24 807.24 L 793.76 807.24 L 793.76 807.76 L 793.24 807.76 L 793.24 807.24 Z" />
<path fill="#ffffff" opacity="1.00" d=" M 837.24 807.24 L 837.76 807.24 L 837.76 807.76 L 837.24 807.76 L 837.24 807.24 Z" />
<path fill="#ffffff" opacity="1.00" d=" M 711.24 808.24 L 711.76 808.24 L 711.76 808.76 L 711.24 808.76 L 711.24 808.24 Z" />
<path fill="#ffffff" opacity="1.00" d=" M 3.24 809.24 L 3.76 809.24 L 3.76 809.76 L 3.24 809.76 L 3.24 809.24 Z" />
<path fill="#ffffff" opacity="1.00" d=" M 5.13 809.34 C 6.47 809.00 6.99 809.52 6.66 810.87 C 5.23 811.28 4.71 810.76 5.13 809.34 Z" />
<path fill="#ffffff" opacity="1.00" d=" M 426.25 809.10 L 427.00 808.72 L 427.75 809.10 L 427.75 809.90 L 427.00 810.28 L 426.25 809.90 L 426.25 809.10 Z" />
<path fill="#ffffff" opacity="1.00" d=" M 833.24 809.24 L 833.76 809.24 L 833.76 809.76 L 833.24 809.76 L 833.24 809.24 Z" />
<path fill="#ffffff" opacity="1.00" d=" M 793.24 810.24 L 793.76 810.24 L 793.76 810.76 L 793.24 810.76 L 793.24 810.24 Z" />
<path fill="#ffffff" opacity="1.00" d=" M 713.24 812.24 L 713.76 812.24 L 713.76 812.76 L 713.24 812.76 L 713.24 812.24 Z" />
<path fill="#ffffff" opacity="1.00" d=" M 719.24 812.24 L 719.76 812.24 L 719.76 812.76 L 719.24 812.76 L 719.24 812.24 Z" />
<path fill="#ffffff" opacity="1.00" d=" M 792.24 812.24 L 792.76 812.24 L 792.76 812.76 L 792.24 812.76 L 792.24 812.24 Z" />
<path fill="#ffffff" opacity="1.00" d=" M 335.24 814.24 L 335.76 814.24 L 335.76 814.76 L 335.24 814.76 L 335.24 814.24 Z" />
<path fill="#ffffff" opacity="1.00" d=" M 431.24 814.24 L 431.76 814.24 L 431.76 814.76 L 431.24 814.76 L 431.24 814.24 Z" />
<path fill="#ffffff" opacity="1.00" d=" M 650.24 814.24 L 650.76 814.24 L 650.76 814.76 L 650.24 814.76 L 650.24 814.24 Z" />
<path fill="#ffffff" opacity="1.00" d=" M 1018.24 814.24 L 1018.76 814.24 L 1018.76 814.76 L 1018.24 814.76 L 1018.24 814.24 Z" />
<path fill="#ffffff" opacity="1.00" d=" M 18.24 815.24 L 18.76 815.24 L 18.76 815.76 L 18.24 815.76 L 18.24 815.24 Z" />
<path fill="#ffffff" opacity="1.00" d=" M 786.24 815.24 L 786.76 815.24 L 786.76 815.76 L 786.24 815.76 L 786.24 815.24 Z" />
<path fill="#ffffff" opacity="1.00" d=" M 425.24 816.24 L 425.76 816.24 L 425.76 816.76 L 425.24 816.76 L 425.24 816.24 Z" />
<path fill="#ffffff" opacity="1.00" d=" M 722.24 816.24 L 722.76 816.24 L 722.76 816.76 L 722.24 816.76 L 722.24 816.24 Z" />
<path fill="#ffffff" opacity="1.00" d=" M 15.24 817.24 L 15.76 817.24 L 15.76 817.76 L 15.24 817.76 L 15.24 817.24 Z" />
<path fill="#ffffff" opacity="1.00" d=" M 718.24 818.24 L 718.76 818.24 L 718.76 818.76 L 718.24 818.76 L 718.24 818.24 Z" />
<path fill="#ffffff" opacity="1.00" d=" M 9.24 819.24 L 9.76 819.24 L 9.76 819.76 L 9.24 819.76 L 9.24 819.24 Z" />
<path fill="#ffffff" opacity="1.00" d=" M 322.24 819.24 L 322.76 819.24 L 322.76 819.76 L 322.24 819.76 L 322.24 819.24 Z" />
<path fill="#ffffff" opacity="1.00" d=" M 1022.24 819.24 L 1022.76 819.24 L 1022.76 819.76 L 1022.24 819.76 L 1022.24 819.24 Z" />
<path fill="#ffffff" opacity="1.00" d=" M 1010.24 821.24 L 1010.76 821.24 L 1010.76 821.76 L 1010.24 821.76 L 1010.24 821.24 Z" />
<path fill="#ffffff" opacity="1.00" d=" M 7.24 822.24 L 7.76 822.24 L 7.76 822.76 L 7.24 822.76 L 7.24 822.24 Z" />
<path fill="#ffffff" opacity="1.00" d=" M 964.24 823.24 L 964.76 823.24 L 964.76 823.76 L 964.24 823.76 L 964.24 823.24 Z" />
<path fill="#ffffff" opacity="1.00" d=" M 1018.25 824.10 L 1019.00 823.72 L 1019.75 824.10 L 1019.75 824.90 L 1019.00 825.28 L 1018.25 824.90 L 1018.25 824.10 Z" />
<path fill="#ffffff" opacity="1.00" d=" M 896.24 826.24 L 896.76 826.24 L 896.76 826.76 L 896.24 826.76 L 896.24 826.24 Z" />
<path fill="#ffffff" opacity="1.00" d=" M 1017.24 826.24 L 1017.76 826.24 L 1017.76 826.76 L 1017.24 826.76 L 1017.24 826.24 Z" />
<path fill="#ffffff" opacity="1.00" d=" M 898.24 827.24 L 898.76 827.24 L 898.76 827.76 L 898.24 827.76 L 898.24 827.24 Z" />
<path fill="#ffffff" opacity="1.00" d=" M 912.24 827.24 L 912.76 827.24 L 912.76 827.76 L 912.24 827.76 L 912.24 827.24 Z" />
<path fill="#ffffff" opacity="1.00" d=" M 1013.24 827.24 L 1013.76 827.24 L 1013.76 827.76 L 1013.24 827.76 L 1013.24 827.24 Z" />
<path fill="#ffffff" opacity="1.00" d=" M 9.24 829.24 L 9.76 829.24 L 9.76 829.76 L 9.24 829.76 L 9.24 829.24 Z" />
<path fill="#ffffff" opacity="1.00" d=" M 11.24 829.24 L 11.76 829.24 L 11.76 829.76 L 11.24 829.76 L 11.24 829.24 Z" />
<path fill="#ffffff" opacity="1.00" d=" M 1014.24 829.24 L 1014.76 829.24 L 1014.76 829.76 L 1014.24 829.76 L 1014.24 829.24 Z" />
<path fill="#ffffff" opacity="1.00" d=" M 955.24 830.24 L 955.76 830.24 L 955.76 830.76 L 955.24 830.76 L 955.24 830.24 Z" />
<path fill="#ffffff" opacity="1.00" d=" M 1007.24 830.24 L 1007.76 830.24 L 1007.76 830.76 L 1007.24 830.76 L 1007.24 830.24 Z" />
<path fill="#ffffff" opacity="1.00" d=" M 1012.13 830.34 C 1013.46 830.00 1013.97 830.51 1013.66 831.87 C 1012.21 832.28 1011.70 831.76 1012.13 830.34 Z" />
<path fill="#ffffff" opacity="1.00" d=" M 14.24 831.24 L 14.76 831.24 L 14.76 831.76 L 14.24 831.76 L 14.24 831.24 Z" />
<path fill="#ffffff" opacity="1.00" d=" M 1018.24 831.24 L 1018.76 831.24 L 1018.76 831.76 L 1018.24 831.76 L 1018.24 831.24 Z" />
<path fill="#ffffff" opacity="1.00" d=" M 887.24 833.24 L 887.76 833.24 L 887.76 833.76 L 887.24 833.76 L 887.24 833.24 Z" />
<path fill="#ffffff" opacity="1.00" d=" M 1019.24 833.24 L 1019.76 833.24 L 1019.76 833.76 L 1019.24 833.76 L 1019.24 833.24 Z" />
<path fill="#ffffff" opacity="1.00" d=" M 1014.24 834.24 L 1014.76 834.24 L 1014.76 834.76 L 1014.24 834.76 L 1014.24 834.24 Z" />
<path fill="#ffffff" opacity="1.00" d=" M 1016.13 835.66 C 1015.70 834.22 1016.21 833.70 1017.66 834.13 C 1017.97 835.46 1017.46 835.98 1016.13 835.66 Z" />
<path fill="#ffffff" opacity="1.00" d=" M 98.14 835.36 C 100.43 834.17 100.74 839.30 98.25 837.76 L 97.81 836.99 C 97.89 836.59 98.06 835.77 98.14 835.36 Z" />
<path fill="#ffffff" opacity="1.00" d=" M 895.24 836.24 L 895.76 836.24 L 895.76 836.76 L 895.24 836.76 L 895.24 836.24 Z" />
<path fill="#ffffff" opacity="1.00" d=" M 8.24 837.24 L 8.76 837.24 L 8.76 837.76 L 8.24 837.76 L 8.24 837.24 Z" />
<path fill="#ffffff" opacity="1.00" d=" M 1010.24 860.24 L 1010.76 860.24 L 1010.76 860.76 L 1010.24 860.76 L 1010.24 860.24 Z" />
<path fill="#ffffff" opacity="1.00" d=" M 807.24 861.24 L 807.76 861.24 L 807.76 861.76 L 807.24 861.76 L 807.24 861.24 Z" />
<path fill="#ffffff" opacity="1.00" d=" M 1003.24 861.24 L 1003.76 861.24 L 1003.76 861.76 L 1003.24 861.76 L 1003.24 861.24 Z" />
<path fill="#ffffff" opacity="1.00" d=" M 77.24 862.24 L 77.76 862.24 L 77.76 862.76 L 77.24 862.76 L 77.24 862.24 Z" />
<path fill="#ffffff" opacity="1.00" d=" M 949.24 862.24 L 949.76 862.24 L 949.76 862.76 L 949.24 862.76 L 949.24 862.24 Z" />
<path fill="#ffffff" opacity="1.00" d=" M 810.24 863.24 L 810.76 863.24 L 810.76 863.76 L 810.24 863.76 L 810.24 863.24 Z" />
<path fill="#ffffff" opacity="1.00" d=" M 946.24 864.24 L 946.76 864.24 L 946.76 864.76 L 946.24 864.76 L 946.24 864.24 Z" />
<path fill="#ffffff" opacity="1.00" d=" M 805.24 869.24 L 805.76 869.24 L 805.76 869.76 L 805.24 869.76 L 805.24 869.24 Z" />
<path fill="#ffffff" opacity="1.00" d=" M 942.24 869.24 L 942.76 869.24 L 942.76 869.76 L 942.24 869.76 L 942.24 869.24 Z" />
<path fill="#ffffff" opacity="1.00" d=" M 876.24 870.24 L 876.76 870.24 L 876.76 870.76 L 876.24 870.76 L 876.24 870.24 Z" />
<path fill="#ffffff" opacity="1.00" d=" M 947.24 870.24 L 947.76 870.24 L 947.76 870.76 L 947.24 870.76 L 947.24 870.24 Z" />
<path fill="#ffffff" opacity="1.00" d=" M 559.24 873.24 L 559.76 873.24 L 559.76 873.76 L 559.24 873.76 L 559.24 873.24 Z" />
<path fill="#ffffff" opacity="1.00" d=" M 893.24 874.24 L 893.76 874.24 L 893.76 874.76 L 893.24 874.76 L 893.24 874.24 Z" />
<path fill="#ffffff" opacity="1.00" d=" M 552.24 875.24 L 552.76 875.24 L 552.76 875.76 L 552.24 875.76 L 552.24 875.24 Z" />
<path fill="#ffffff" opacity="1.00" d=" M 945.24 875.24 L 945.76 875.24 L 945.76 875.76 L 945.24 875.76 L 945.24 875.24 Z" />
<path fill="#ffffff" opacity="1.00" d=" M 900.24 876.24 L 900.76 876.24 L 900.76 876.76 L 900.24 876.76 L 900.24 876.24 Z" />
<path fill="#ffffff" opacity="1.00" d=" M 39.24 879.24 L 39.76 879.24 L 39.76 879.76 L 39.24 879.76 L 39.24 879.24 Z" />
<path fill="#ffffff" opacity="1.00" d=" M 606.25 879.10 L 607.00 878.72 L 607.75 879.10 L 607.75 879.90 L 607.00 880.28 L 606.25 879.90 L 606.25 879.10 Z" />
<path fill="#ffffff" opacity="1.00" d=" M 807.24 879.24 L 807.76 879.24 L 807.76 879.76 L 807.24 879.76 L 807.24 879.24 Z" />
<path fill="#ffffff" opacity="1.00" d=" M 548.24 881.24 L 548.76 881.24 L 548.76 881.76 L 548.24 881.76 L 548.24 881.24 Z" />
<path fill="#ffffff" opacity="1.00" d=" M 903.24 882.24 L 903.76 882.24 L 903.76 882.76 L 903.24 882.76 L 903.24 882.24 Z" />
<path fill="#ffffff" opacity="1.00" d=" M 44.24 883.24 L 44.76 883.24 L 44.76 883.76 L 44.24 883.76 L 44.24 883.24 Z" />
<path fill="#ffffff" opacity="1.00" d=" M 611.24 884.24 L 611.76 884.24 L 611.76 884.76 L 611.24 884.76 L 611.24 884.24 Z" />
<path fill="#ffffff" opacity="1.00" d=" M 620.24 884.24 L 620.76 884.24 L 620.76 884.76 L 620.24 884.76 L 620.24 884.24 Z" />
<path fill="#ffffff" opacity="1.00" d=" M 876.24 884.24 L 876.76 884.24 L 876.76 884.76 L 876.24 884.76 L 876.24 884.24 Z" />
<path fill="#ffffff" opacity="1.00" d=" M 892.24 885.24 L 892.76 885.24 L 892.76 885.76 L 892.24 885.76 L 892.24 885.24 Z" />
<path fill="#ffffff" opacity="1.00" d=" M 898.24 885.24 L 898.76 885.24 L 898.76 885.76 L 898.24 885.76 L 898.24 885.24 Z" />
<path fill="#ffffff" opacity="1.00" d=" M 606.24 887.24 L 606.76 887.24 L 606.76 887.76 L 606.24 887.76 L 606.24 887.24 Z" />
<path fill="#ffffff" opacity="1.00" d=" M 884.24 887.24 L 884.76 887.24 L 884.76 887.76 L 884.24 887.76 L 884.24 887.24 Z" />
<path fill="#ffffff" opacity="1.00" d=" M 998.18 890.42 C 999.36 889.90 1001.07 891.62 1000.58 892.82 C 999.28 893.63 997.35 891.70 998.18 890.42 Z" />
<path fill="#ffffff" opacity="1.00" d=" M 322.24 899.24 L 322.76 899.24 L 322.76 899.76 L 322.24 899.76 L 322.24 899.24 Z" />
<path fill="#ffffff" opacity="1.00" d=" M 714.24 899.24 L 714.76 899.24 L 714.76 899.76 L 714.24 899.76 L 714.24 899.24 Z" />
<path fill="#ffffff" opacity="1.00" d=" M 329.24 902.24 L 329.76 902.24 L 329.76 902.76 L 329.24 902.76 L 329.24 902.24 Z" />
<path fill="#ffffff" opacity="1.00" d=" M 324.24 903.24 L 324.76 903.24 L 324.76 903.76 L 324.24 903.76 L 324.24 903.24 Z" />
<path fill="#ffffff" opacity="1.00" d=" M 793.24 903.24 L 793.76 903.24 L 793.76 903.76 L 793.24 903.76 L 793.24 903.24 Z" />
<path fill="#ffffff" opacity="1.00" d=" M 681.24 904.24 L 681.76 904.24 L 681.76 904.76 L 681.24 904.76 L 681.24 904.24 Z" />
<path fill="#ffffff" opacity="1.00" d=" M 720.24 905.24 L 720.76 905.24 L 720.76 905.76 L 720.24 905.76 L 720.24 905.24 Z" />
<path fill="#ffffff" opacity="1.00" d=" M 730.24 906.24 L 730.76 906.24 L 730.76 906.76 L 730.24 906.76 L 730.24 906.24 Z" />
<path fill="#ffffff" opacity="1.00" d=" M 793.24 907.24 L 793.76 907.24 L 793.76 907.76 L 793.24 907.76 L 793.24 907.24 Z" />
<path fill="#ffffff" opacity="1.00" d=" M 336.24 908.24 L 336.76 908.24 L 336.76 908.76 L 336.24 908.76 L 336.24 908.24 Z" />
<path fill="#ffffff" opacity="1.00" d=" M 682.24 908.24 L 682.76 908.24 L 682.76 908.76 L 682.24 908.76 L 682.24 908.24 Z" />
<path fill="#ffffff" opacity="1.00" d=" M 791.24 910.24 L 791.76 910.24 L 791.76 910.76 L 791.24 910.76 L 791.24 910.24 Z" />
<path fill="#ffffff" opacity="1.00" d=" M 337.24 913.24 L 337.76 913.24 L 337.76 913.76 L 337.24 913.76 L 337.24 913.24 Z" />
<path fill="#ffffff" opacity="1.00" d=" M 342.24 914.24 L 342.76 914.24 L 342.76 914.76 L 342.24 914.76 L 342.24 914.24 Z" />
<path fill="#ffffff" opacity="1.00" d=" M 886.24 916.24 L 886.76 916.24 L 886.76 916.76 L 886.24 916.76 L 886.24 916.24 Z" />
<path fill="#ffffff" opacity="1.00" d=" M 664.10 918.25 L 664.90 918.25 L 665.28 919.00 L 664.90 919.75 L 664.10 919.75 L 663.72 919.00 L 664.10 918.25 Z" />
<path fill="#ffffff" opacity="1.00" d=" M 345.24 921.24 L 345.76 921.24 L 345.76 921.76 L 345.24 921.76 L 345.24 921.24 Z" />
<path fill="#ffffff" opacity="1.00" d=" M 461.24 927.24 L 461.76 927.24 L 461.76 927.76 L 461.24 927.76 L 461.24 927.24 Z" />
<path fill="#ffffff" opacity="1.00" d=" M 89.24 928.24 L 89.76 928.24 L 89.76 928.76 L 89.24 928.76 L 89.24 928.24 Z" />
<path fill="#ffffff" opacity="1.00" d=" M 243.24 928.24 L 243.76 928.24 L 243.76 928.76 L 243.24 928.76 L 243.24 928.24 Z" />
<path fill="#ffffff" opacity="1.00" d=" M 249.24 928.24 L 249.76 928.24 L 249.76 928.76 L 249.24 928.76 L 249.24 928.24 Z" />
<path fill="#ffffff" opacity="1.00" d=" M 252.24 930.24 L 252.76 930.24 L 252.76 930.76 L 252.24 930.76 L 252.24 930.24 Z" />
<path fill="#ffffff" opacity="1.00" d=" M 476.24 930.24 L 476.76 930.24 L 476.76 930.76 L 476.24 930.76 L 476.24 930.24 Z" />
<path fill="#ffffff" opacity="1.00" d=" M 89.24 931.24 L 89.76 931.24 L 89.76 931.76 L 89.24 931.76 L 89.24 931.24 Z" />
<path fill="#ffffff" opacity="1.00" d=" M 92.25 931.10 L 93.00 930.72 L 93.75 931.10 L 93.75 931.90 L 93.00 932.28 L 92.25 931.90 L 92.25 931.10 Z" />
<path fill="#ffffff" opacity="1.00" d=" M 98.24 931.24 L 98.76 931.24 L 98.76 931.76 L 98.24 931.76 L 98.24 931.24 Z" />
<path fill="#ffffff" opacity="1.00" d=" M 80.24 934.24 L 80.76 934.24 L 80.76 934.76 L 80.24 934.76 L 80.24 934.24 Z" />
<path fill="#ffffff" opacity="1.00" d=" M 91.24 934.24 L 91.76 934.24 L 91.76 934.76 L 91.24 934.76 L 91.24 934.24 Z" />
<path fill="#ffffff" opacity="1.00" d=" M 69.24 935.24 L 69.76 935.24 L 69.76 935.76 L 69.24 935.76 L 69.24 935.24 Z" />
<path fill="#ffffff" opacity="1.00" d=" M 71.24 935.24 L 71.76 935.24 L 71.76 935.76 L 71.24 935.76 L 71.24 935.24 Z" />
<path fill="#ffffff" opacity="1.00" d=" M 115.24 935.24 L 115.76 935.24 L 115.76 935.76 L 115.24 935.76 L 115.24 935.24 Z" />
<path fill="#ffffff" opacity="1.00" d=" M 235.24 935.24 L 235.76 935.24 L 235.76 935.76 L 235.24 935.76 L 235.24 935.24 Z" />
<path fill="#ffffff" opacity="1.00" d=" M 237.25 935.10 L 238.00 934.72 L 238.75 935.10 L 238.75 935.90 L 238.00 936.28 L 237.25 935.90 L 237.25 935.10 Z" />
<path fill="#ffffff" opacity="1.00" d=" M 242.24 935.24 L 242.76 935.24 L 242.76 935.76 L 242.24 935.76 L 242.24 935.24 Z" />
<path fill="#ffffff" opacity="1.00" d=" M 464.24 935.24 L 464.76 935.24 L 464.76 935.76 L 464.24 935.76 L 464.24 935.24 Z" />
<path fill="#ffffff" opacity="1.00" d=" M 1003.24 935.24 L 1003.76 935.24 L 1003.76 935.76 L 1003.24 935.76 L 1003.24 935.24 Z" />
<path fill="#ffffff" opacity="1.00" d=" M 1005.25 935.10 L 1006.00 934.72 L 1006.75 935.10 L 1006.75 935.90 L 1006.00 936.28 L 1005.25 935.90 L 1005.25 935.10 Z" />
<path fill="#ffffff" opacity="1.00" d=" M 1010.24 935.24 L 1010.76 935.24 L 1010.76 935.76 L 1010.24 935.76 L 1010.24 935.24 Z" />
<path fill="#ffffff" opacity="1.00" d=" M 229.24 937.24 L 229.76 937.24 L 229.76 937.76 L 229.24 937.76 L 229.24 937.24 Z" />
<path fill="#ffffff" opacity="1.00" d=" M 997.24 937.24 L 997.76 937.24 L 997.76 937.76 L 997.24 937.76 L 997.24 937.24 Z" />
<path fill="#ffffff" opacity="1.00" d=" M 938.24 939.24 L 938.76 939.24 L 938.76 939.76 L 938.24 939.76 L 938.24 939.24 Z" />
<path fill="#ffffff" opacity="1.00" d=" M 74.24 941.24 L 74.76 941.24 L 74.76 941.76 L 74.24 941.76 L 74.24 941.24 Z" />
<path fill="#ffffff" opacity="1.00" d=" M 124.24 942.24 L 124.76 942.24 L 124.76 942.76 L 124.24 942.76 L 124.24 942.24 Z" />
<path fill="#ffffff" opacity="1.00" d=" M 233.10 942.25 L 233.90 942.25 L 234.28 943.00 L 233.90 943.75 L 233.10 943.75 L 232.72 943.00 L 233.10 942.25 Z" />
<path fill="#ffffff" opacity="1.00" d=" M 236.24 942.24 L 236.76 942.24 L 236.76 942.76 L 236.24 942.76 L 236.24 942.24 Z" />
<path fill="#ffffff" opacity="1.00" d=" M 1001.10 942.25 L 1001.90 942.25 L 1002.28 943.00 L 1001.90 943.75 L 1001.10 943.75 L 1000.72 943.00 L 1001.10 942.25 Z" />
<path fill="#ffffff" opacity="1.00" d=" M 1004.24 942.24 L 1004.76 942.24 L 1004.76 942.76 L 1004.24 942.76 L 1004.24 942.24 Z" />
<path fill="#ffffff" opacity="1.00" d=" M 1023.29 944.36 L 1024.00 944.08 L 1024.00 944.68 L 1023.41 944.87 L 1023.29 944.36 Z" />
<path fill="#ffffff" opacity="1.00" d=" M 124.24 945.24 L 124.76 945.24 L 124.76 945.76 L 124.24 945.76 L 124.24 945.24 Z" />
<path fill="#ffffff" opacity="1.00" d=" M 1019.24 946.24 L 1019.76 946.24 L 1019.76 946.76 L 1019.24 946.76 L 1019.24 946.24 Z" />
<path fill="#ffffff" opacity="1.00" d=" M 1014.13 947.34 C 1015.46 947.00 1015.97 947.51 1015.66 948.87 C 1014.21 949.27 1013.70 948.76 1014.13 947.34 Z" />
<path fill="#ffffff" opacity="1.00" d=" M 1021.24 947.24 L 1021.76 947.24 L 1021.76 947.76 L 1021.24 947.76 L 1021.24 947.24 Z" />
<path fill="#ffffff" opacity="1.00" d=" M 998.13 948.34 C 999.46 948.00 999.97 948.51 999.66 949.87 C 998.21 950.27 997.70 949.76 998.13 948.34 Z" />
<path fill="#ffffff" opacity="1.00" d=" M 310.24 949.24 L 310.76 949.24 L 310.76 949.76 L 310.24 949.76 L 310.24 949.24 Z" />
<path fill="#ffffff" opacity="1.00" d=" M 103.24 951.24 L 103.76 951.24 L 103.76 951.76 L 103.24 951.76 L 103.24 951.24 Z" />
<path fill="#ffffff" opacity="1.00" d=" M 871.24 951.24 L 871.76 951.24 L 871.76 951.76 L 871.24 951.76 L 871.24 951.24 Z" />
<path fill="#ffffff" opacity="1.00" d=" M 314.24 953.24 L 314.76 953.24 L 314.76 953.76 L 314.24 953.76 L 314.24 953.24 Z" />
<path fill="#ffffff" opacity="1.00" d=" M 700.24 955.24 L 700.76 955.24 L 700.76 955.76 L 700.24 955.76 L 700.24 955.24 Z" />
<path fill="#ffffff" opacity="1.00" d=" M 998.24 955.24 L 998.76 955.24 L 998.76 955.76 L 998.24 955.76 L 998.24 955.24 Z" />
<path fill="#ffffff" opacity="1.00" d=" M 1012.24 957.24 L 1012.76 957.24 L 1012.76 957.76 L 1012.24 957.76 L 1012.24 957.24 Z" />
<path fill="#ffffff" opacity="1.00" d=" M 0.00 960.08 C 0.42 960.09 1.26 960.10 1.68 960.11 L 1.69 960.89 C 1.26 960.90 0.42 960.91 0.00 960.92 L 0.00 960.08 Z" />
<path fill="#ffffff" opacity="1.00" d=" M 864.24 960.24 L 864.76 960.24 L 864.76 960.76 L 864.24 960.76 L 864.24 960.24 Z" />
<path fill="#ffffff" opacity="1.00" d=" M 1022.24 962.24 L 1022.76 962.24 L 1022.76 962.76 L 1022.24 962.76 L 1022.24 962.24 Z" />
<path fill="#ffffff" opacity="1.00" d=" M 51.25 977.10 L 52.00 976.72 L 52.75 977.10 L 52.75 977.90 L 52.00 978.28 L 51.25 977.90 L 51.25 977.10 Z" />
<path fill="#ffffff" opacity="1.00" d=" M 48.24 985.24 L 48.76 985.24 L 48.76 985.76 L 48.24 985.76 L 48.24 985.24 Z" />
<path fill="#ffffff" opacity="1.00" d=" M 648.24 987.24 L 648.76 987.24 L 648.76 987.76 L 648.24 987.76 L 648.24 987.24 Z" />
<path fill="#ffffff" opacity="1.00" d=" M 643.24 990.25 C 644.04 989.04 646.80 990.03 645.48 991.46 C 644.68 992.83 642.04 991.72 643.24 990.25 Z" />
<path fill="#ffffff" opacity="1.00" d=" M 470.24 991.24 L 470.76 991.24 L 470.76 991.76 L 470.24 991.76 L 470.24 991.24 Z" />
<path fill="#ffffff" opacity="1.00" d=" M 649.24 991.24 L 649.76 991.24 L 649.76 991.76 L 649.24 991.76 L 649.24 991.24 Z" />
<path fill="#ffffff" opacity="1.00" d=" M 949.24 991.24 L 949.76 991.24 L 949.76 991.76 L 949.24 991.76 L 949.24 991.24 Z" />
<path fill="#ffffff" opacity="1.00" d=" M 952.24 991.24 L 952.76 991.24 L 952.76 991.76 L 952.24 991.76 L 952.24 991.24 Z" />
<path fill="#ffffff" opacity="1.00" d=" M 653.24 992.24 L 653.76 992.24 L 653.76 992.76 L 653.24 992.76 L 653.24 992.24 Z" />
<path fill="#ffffff" opacity="1.00" d=" M 507.24 994.24 L 507.76 994.24 L 507.76 994.76 L 507.24 994.76 L 507.24 994.24 Z" />
<path fill="#ffffff" opacity="1.00" d=" M 1019.24 994.24 L 1019.76 994.24 L 1019.76 994.76 L 1019.24 994.76 L 1019.24 994.24 Z" />
<path fill="#ffffff" opacity="1.00" d=" M 516.24 995.24 L 516.76 995.24 L 516.76 995.76 L 516.24 995.76 L 516.24 995.24 Z" />
<path fill="#ffffff" opacity="1.00" d=" M 468.24 996.24 L 468.76 996.24 L 468.76 996.76 L 468.24 996.76 L 468.24 996.24 Z" />
<path fill="#ffffff" opacity="1.00" d=" M 509.24 996.24 L 509.76 996.24 L 509.76 996.76 L 509.24 996.76 L 509.24 996.24 Z" />
<path fill="#ffffff" opacity="1.00" d=" M 649.24 996.24 L 649.76 996.24 L 649.76 996.76 L 649.24 996.76 L 649.24 996.24 Z" />
<path fill="#ffffff" opacity="1.00" d=" M 1010.24 997.24 L 1010.76 997.24 L 1010.76 997.76 L 1010.24 997.76 L 1010.24 997.24 Z" />
<path fill="#ffffff" opacity="1.00" d=" M 205.34 999.87 C 205.01 998.51 205.52 998.00 206.87 998.34 C 207.28 999.76 206.77 1000.27 205.34 999.87 Z" />
<path fill="#ffffff" opacity="1.00" d=" M 848.24 998.24 L 848.76 998.24 L 848.76 998.76 L 848.24 998.76 L 848.24 998.24 Z" />
<path fill="#ffffff" opacity="1.00" d=" M 963.24 1001.24 L 963.76 1001.24 L 963.76 1001.76 L 963.24 1001.76 L 963.24 1001.24 Z" />
<path fill="#ffffff" opacity="1.00" d=" M 154.24 1007.24 L 154.76 1007.24 L 154.76 1007.76 L 154.24 1007.76 L 154.24 1007.24 Z" />
<path fill="#ffffff" opacity="1.00" d=" M 150.24 1008.24 L 150.76 1008.24 L 150.76 1008.76 L 150.24 1008.76 L 150.24 1008.24 Z" />
<path fill="#ffffff" opacity="1.00" d=" M 845.24 1008.24 L 845.76 1008.24 L 845.76 1008.76 L 845.24 1008.76 L 845.24 1008.24 Z" />
<path fill="#ffffff" opacity="1.00" d=" M 918.24 1008.24 L 918.76 1008.24 L 918.76 1008.76 L 918.24 1008.76 L 918.24 1008.24 Z" />
<path fill="#ffffff" opacity="1.00" d=" M 842.24 1010.24 L 842.76 1010.24 L 842.76 1010.76 L 842.24 1010.76 L 842.24 1010.24 Z" />
<path fill="#ffffff" opacity="1.00" d=" M 908.24 1012.24 L 908.76 1012.24 L 908.76 1012.76 L 908.24 1012.76 L 908.24 1012.24 Z" />
<path fill="#ffffff" opacity="1.00" d=" M 430.24 1017.24 L 430.76 1017.24 L 430.76 1017.76 L 430.24 1017.76 L 430.24 1017.24 Z" />
<path fill="#ffffff" opacity="1.00" d=" M 430.24 1021.24 L 430.76 1021.24 L 430.76 1021.76 L 430.24 1021.76 L 430.24 1021.24 Z" />
<path fill="#ffffff" opacity="1.00" d=" M 440.24 1022.24 L 440.76 1022.24 L 440.76 1022.76 L 440.24 1022.76 L 440.24 1022.24 Z" />
</g>
</svg>
