<?xml version="1.0" encoding="UTF-8" ?>
<!DOCTYPE svg PUBLIC "-//W3C//DTD SVG 1.1//EN" "http://www.w3.org/Graphics/SVG/1.1/DTD/svg11.dtd">
<svg width="274pt" height="195pt" viewBox="0 0 274 195" version="1.1" xmlns="http://www.w3.org/2000/svg">
<g id="#000000ff">
</g>
<g id="#fcd108ff">
<path fill="#ffd54f" opacity="1.00" d=" M 145.06 25.83 C 147.29 24.75 149.64 26.23 150.57 28.31 C 151.35 36.13 149.89 43.99 147.36 51.38 C 146.41 54.23 143.23 57.09 140.33 54.71 C 137.35 50.09 138.94 44.20 139.27 39.07 C 140.62 34.53 140.56 28.59 145.06 25.83 Z" />
<path fill="#ffd54f" opacity="1.00" d=" M 98.51 30.27 C 99.97 28.00 102.55 30.82 103.97 31.87 C 109.14 38.08 112.88 45.89 113.40 54.00 C 113.91 57.17 109.28 56.85 107.87 55.05 C 101.28 49.02 94.94 39.40 98.51 30.27 Z" />
<path fill="#ffd54f" opacity="1.00" d=" M 185.19 51.88 C 188.24 49.94 193.15 53.23 190.74 56.69 C 186.68 61.64 181.45 65.77 175.62 68.47 C 172.82 69.49 166.78 68.24 168.93 64.21 C 172.44 58.32 179.19 54.89 185.19 51.88 Z" />
<path fill="#ffd54f" opacity="1.00" d=" M 72.27 54.36 C 80.65 55.15 88.54 59.73 95.26 64.68 C 98.33 66.48 99.51 72.39 94.86 72.67 C 85.80 71.62 77.92 65.55 72.27 58.65 C 71.39 57.60 70.44 54.81 72.27 54.36 Z" />
<path fill="#ffd54f" opacity="1.00" d=" M 123.29 57.38 C 132.73 54.30 132.36 67.92 126.36 71.34 C 114.69 78.61 106.58 94.04 112.62 107.39 C 116.28 115.45 125.56 119.29 134.03 118.05 C 150.27 116.18 164.02 99.89 161.54 83.36 C 155.17 71.91 137.60 75.69 131.70 85.64 C 129.95 90.07 133.09 97.82 138.13 97.22 C 138.91 93.89 133.85 90.75 136.31 87.26 C 140.15 82.58 148.23 83.80 151.99 88.01 C 157.20 96.76 150.35 109.38 140.37 110.42 C 134.83 111.07 127.39 111.43 124.40 105.62 C 121.71 100.25 118.54 94.25 120.01 88.06 C 123.63 77.94 132.30 69.98 142.36 66.45 C 154.16 62.87 169.26 69.44 172.18 82.03 C 173.45 91.74 174.58 102.96 168.29 111.26 C 157.20 124.97 138.46 131.31 121.16 129.56 C 106.66 126.98 95.09 112.89 96.15 98.02 C 95.06 80.24 107.70 64.35 123.29 57.38 Z" />
<path fill="#ffd54f" opacity="1.00" d=" M 195.37 85.44 C 199.54 84.68 203.80 84.40 208.03 84.67 C 211.14 85.95 211.26 91.96 207.64 92.53 C 200.35 94.62 192.81 96.87 185.16 96.62 C 182.21 96.42 176.85 92.44 180.76 89.79 C 185.16 87.23 190.42 86.44 195.37 85.44 Z" />
<path fill="#ffd54f" opacity="1.00" d=" M 69.32 87.47 C 76.63 85.99 84.84 85.88 91.62 89.35 C 94.90 91.07 92.73 95.26 89.75 95.73 C 81.81 98.27 72.25 98.41 64.84 94.23 C 61.81 91.00 66.38 88.04 69.32 87.47 Z" />
<path fill="#ffd54f" opacity="1.00" d=" M 175.36 110.39 C 184.99 108.66 192.37 117.45 200.02 122.02 C 203.59 123.42 201.88 131.42 197.60 129.48 C 190.77 127.10 184.73 122.93 178.44 119.43 C 174.95 117.79 171.68 113.72 175.36 110.39 Z" />
<path fill="#ffd54f" opacity="1.00" d=" M 90.37 117.32 C 93.14 115.27 98.77 117.25 96.00 121.04 C 91.88 126.75 83.80 133.12 76.61 130.33 C 76.40 123.61 85.10 120.03 90.37 117.32 Z" />
<path fill="#ffd54f" opacity="1.00" d=" M 157.40 128.51 C 159.90 127.26 163.10 127.91 164.87 130.10 C 170.49 135.85 172.88 143.80 176.22 150.93 C 178.02 154.54 173.18 158.47 169.98 156.05 C 162.76 150.35 157.98 141.88 155.75 133.03 C 155.31 131.33 156.36 129.74 157.40 128.51 Z" />
<path fill="#ffd54f" opacity="1.00" d=" M 115.29 132.38 C 118.33 131.51 119.04 135.71 118.68 137.86 C 116.90 145.68 113.06 153.55 106.60 158.52 C 102.27 160.74 100.12 155.36 102.22 152.13 C 105.29 145.07 107.79 135.73 115.29 132.38 Z" />
<path fill="#ffd54f" opacity="1.00" d=" M 137.32 136.29 C 141.55 135.45 142.97 141.01 143.59 144.17 C 143.55 151.22 145.01 159.39 140.36 165.38 C 136.19 167.53 134.81 161.82 134.39 158.83 C 134.41 151.30 133.05 143.01 137.32 136.29 Z" />
</g>
</svg>
